<svg width="66" height="66" viewBox="0 0 66 66" fill="none" xmlns="http://www.w3.org/2000/svg">
<path d="M19.5101 22.7297L21.2977 23.4366C21.2977 23.4366 20.4039 25.6753 21.2977 26.4412C22.1915 27.207 23.0853 27.3249 23.6812 29.5636C24.2771 31.8022 29.9975 39.0485 32.2022 39.0485C34.4069 39.0485 38.5185 36.5153 40.4849 33.2751C42.4513 30.0349 43.1663 27.3838 43.1663 27.3838C43.1663 27.3838 43.9409 27.9729 44.3581 26.3823C44.7752 24.7916 44.1793 23.849 44.9539 23.4366C45.7286 23.0242 46.8607 22.6708 46.8607 22.6708C46.8607 22.6708 46.7416 27.5605 46.0861 28.1497C45.371 28.7388 45.0731 32.627 42.8088 34.8068C40.5445 36.9866 34.6453 41.5818 33.1556 41.5818C31.6659 41.5818 23.9791 36.8687 22.3107 32.9805C20.6422 29.0923 20.4039 28.3853 19.5696 27.3249C18.6162 26.2055 19.5101 22.7297 19.5101 22.7297Z" fill="white"/>
<path d="M33.6097 10.8293C29.5577 10.8293 26.2804 14.0695 26.2804 18.0756C26.2804 22.0817 29.5577 25.3219 33.6097 25.3219C37.6616 25.3219 40.9389 22.0817 40.9389 18.0756C40.9389 14.0695 37.602 10.8293 33.6097 10.8293ZM33.6097 20.3732C32.2987 20.3732 31.2857 19.3717 31.2857 18.0756C31.2857 16.7795 32.2987 15.778 33.6097 15.778C34.9206 15.778 35.9336 16.7795 35.9336 18.0756C35.9336 19.3717 34.861 20.3732 33.6097 20.3732Z" fill="white"/>
<path d="M41.1773 7C41.1773 7 31.0474 7 27.1742 7C23.301 7 22.1093 10.4758 22.1093 10.4758C22.1093 10.4758 22.1093 20.0786 22.1093 21.0212C22.1093 21.9638 23.2414 22.1406 23.2414 22.1406H25.2674C24.6715 20.9034 24.314 19.5484 24.314 18.0756C24.314 12.8913 28.5447 8.70847 33.7884 8.70847C39.0321 8.70847 43.2628 12.8913 43.2628 18.0756C43.2628 19.4895 42.9649 20.7856 42.4286 21.9638C42.8457 21.9638 43.5012 21.9638 43.9183 21.9638C44.5142 21.9638 44.5738 21.3158 44.5738 21.3158C44.5738 21.3158 44.5738 16.0136 44.5738 12.3021C44.6334 8.70847 41.1773 7 41.1773 7Z" fill="white"/>
<path d="M40.9389 39.6965L32.4775 54.7782L24.0756 39.2841C24.0756 39.2841 23.9565 41.0515 19.0107 42.1709C14.0054 43.2902 9 45.3521 9 49.5939C9 53.8356 10.013 55.8975 16.7464 57.1936C23.4798 58.4897 40.0451 60.1981 47.6723 57.7827C55.3591 55.3673 58.2789 53.8356 56.4913 49.5349C54.7632 45.2343 53.8098 44.9987 50.4729 43.9382C47.0764 42.9367 41.2369 40.5213 40.9389 39.6965Z" fill="white"/>
</svg>
