<svg width="66" height="66" viewBox="0 0 66 66" fill="none" xmlns="http://www.w3.org/2000/svg">
<path d="M41.7131 7C38.003 7 33.8806 9.23529 33.8806 9.23529C31.7605 10.2941 28.757 7.05882 23.869 7.05882C18.981 7.05882 12.9741 10.6471 17.7443 24.4706C19.9822 35.5294 18.8044 45.2353 18.8044 49.8824C18.8044 54.4706 26.1658 60 26.1658 60C26.1658 46.6471 26.578 36.5882 33.8217 36.5882C41.0653 36.5882 40.712 60 40.712 60C49.1334 52.6471 47.3078 46.7647 46.3067 37.1765C45.3055 27.5882 48.6623 24.0588 49.8401 17C51.018 9.94118 45.4233 7 41.7131 7ZM23.2801 10.3529C23.2801 12.8235 25.9891 13.2353 25.9891 13.2353C23.2801 13.2353 23.0446 16.3529 23.0446 15.1765C22.8679 13.1765 21.2778 13.2941 21.0422 13.1765C23.1034 12.7647 23.2801 10.3529 23.2801 10.3529ZM22.3379 19.2353C22.2201 17.9412 21.2189 18.0588 21.0422 18C22.3379 17.7647 22.4556 16.2353 22.4556 16.2353C22.4556 17.8235 24.1635 18.0588 24.1635 18.0588C22.4556 18.0588 22.3379 20 22.3379 19.2353ZM26.9903 18.0588C26.8725 16.7647 25.8713 16.8824 25.6947 16.8235C26.9903 16.5882 27.1081 15.0588 27.1081 15.0588C27.1081 16.6471 28.8159 16.8824 28.8159 16.8824C27.1081 16.8824 26.9903 18.8235 26.9903 18.0588Z" fill="white"/>
</svg>
