<svg width="66" height="66" viewBox="0 0 66 66" fill="none" xmlns="http://www.w3.org/2000/svg">
<path d="M23.2109 6.78653L9 18.2215L17.8437 28.9304V39.3368L15.709 44.7215V58.9395H24.1868V44.54L22.2351 39.3973V28.7489L11.2567 18.2215L24.4917 8.11758L23.2109 6.78653Z" fill="white"/>
<path d="M57 18.9475C57 11.8082 51.1449 6 43.9479 6C36.751 6 30.8958 11.7477 30.8958 18.9475C30.8958 25.6632 36.0191 31.169 42.5451 31.8345V39.3368L40.1055 44.4795V59H48.0343V44.4795L45.5337 39.3368V31.774C51.9987 31.0479 57 25.5422 57 18.9475ZM43.9479 30.1404C37.7268 30.1404 32.6645 25.1187 32.6645 18.9475C32.6645 12.7763 37.7268 7.75457 43.9479 7.75457C50.169 7.75457 55.2313 12.7158 55.2313 18.9475C55.2313 25.1792 50.169 30.1404 43.9479 30.1404Z" fill="white"/>
</svg>
