<svg width="66" height="66" viewBox="0 0 66 66" fill="none" xmlns="http://www.w3.org/2000/svg">
<path d="M3.96961 28.8175C3.96961 28.8175 15.4397 48 33.6296 48C51.7616 48 63 27.8293 63 27.8293C63 27.8293 46.4321 41.7221 33.4558 41.7221C20.4796 41.7221 3.96961 28.8175 3.96961 28.8175Z" fill="white"/>
<path d="M33.4558 23.5278C39.1909 23.5278 62.9421 24.9229 62.9421 24.9229C59.698 24.9229 49.9658 18.1799 44.2887 18.0055C38.6116 17.8311 33.8613 21.842 33.8613 21.842C28.358 18.8775 22.3913 15.8548 14.6866 20.1563C6.98196 24.4578 2 25.446 2 25.446C26.6201 22.8883 27.7208 23.5278 33.4558 23.5278Z" fill="white"/>
<path d="M12.6591 30.5032C15.7873 31.0845 19.9582 31.6077 24.3029 31.4914C33.0503 31.2589 33.9193 30.9101 33.9193 30.9101C33.9193 30.9101 21.2906 31.7239 12.6591 30.5032Z" fill="white"/>
<path d="M12.6591 30.5032C9.53086 29.9219 7.44539 29.3406 7.44539 29.3406C8.83571 29.8638 10.6315 30.2707 12.6591 30.5032Z" fill="white"/>
</svg>
