<svg width="66" height="66" viewBox="0 0 66 66" fill="none" xmlns="http://www.w3.org/2000/svg">
<path d="M43.7764 32.7031C45.8099 32.7031 50 23.8699 50 17.3064C50 10.7428 45.7482 7.00099 42.4208 7.00099C39.0933 7.00099 35.1496 9.76135 32.6849 9.76135C30.2201 9.76135 24.7975 6.93964 22.3327 7.00099C19.868 7.06233 15 9.94538 15 17.4904C15 25.0354 20.4225 32.7031 20.4225 32.7031C20.4225 32.7031 41.743 32.7031 43.7764 32.7031Z" fill="white"/>
<path d="M43.2218 35.3407H22.0863V39.0212H18.6972V41.5976H46.919V39.0212H43.2218V35.3407Z" fill="white"/>
<path d="M41.8662 43.3151H23.5035V46.5662H20.5458V48.7132H45.0704V46.5662H41.8662V43.3151Z" fill="white"/>
<path d="M40.0176 50.6761H24.7975V53.3138H22.3327V55.0927H42.6673V53.3138H40.0176V50.6761Z" fill="white"/>
<path d="M38.0458 56.8716H27.3856V58.7732H25.6602V60H39.956V58.7732H38.0458V56.8716Z" fill="white"/>
</svg>
