<svg width="66" height="66" viewBox="0 0 66 66" fill="none" xmlns="http://www.w3.org/2000/svg">
<path d="M5.87275 29.4209C5.87275 29.4209 16.7787 48 34.0741 48C51.3143 48 62 28.4638 62 28.4638C62 28.4638 46.2469 41.9196 33.9088 41.9196C21.5707 41.9196 5.87275 29.4209 5.87275 29.4209Z" fill="white"/>
<path d="M33.9088 24.3539C39.3618 24.3539 61.9449 25.7051 61.9449 25.7051C58.8604 25.7051 49.6068 19.1743 44.2089 19.0054C38.811 18.8365 34.2944 22.7212 34.2944 22.7212C29.0617 19.8499 23.3884 16.9222 16.0627 21.0885C8.73694 25.2547 4 26.1555 4 26.1555C27.4093 23.6783 28.4558 24.3539 33.9088 24.3539Z" fill="white"/>
<path d="M54.8946 29.9839V28.4638L58.6952 28.5201V27.7882H54.8946V26.6059H52.471V27.7882H48.5052V26.6059H46.0817V27.7882H41.8405V26.6059H39.4169V27.7882H34.7901V26.6059H32.3666V27.7882H28.4558V26.6059H26.0323V27.7882H22.1766V26.6059H19.8082V27.7882H15.4017V26.6059H12.9782V27.7882H7.69041V28.126L12.9782 28.1823V29.9839H15.4017V28.1823L19.8082 28.2386V29.9839H22.1766V28.2386L26.0323 28.2949V29.9839H28.4558V28.2949H32.3666V29.9839H34.7901V28.3512H39.4169V29.9839H41.8405V28.4075H46.0817V29.9839H48.5052V28.4638H52.471V29.9839H54.8946Z" fill="white"/>
<path d="M14.1349 31.1099C17.1092 31.6729 21.075 32.1796 25.2061 32.067C33.5233 31.8418 34.3495 31.504 34.3495 31.504C34.3495 31.504 22.3419 32.2359 14.1349 31.1099Z" fill="white"/>
<path d="M14.1349 31.1099C11.1605 30.5469 9.17759 29.9839 9.17759 29.9839C10.4995 30.4906 12.207 30.8284 14.1349 31.1099Z" fill="white"/>
</svg>
