<svg width="66" height="66" viewBox="0 0 66 66" fill="none" xmlns="http://www.w3.org/2000/svg">
<path d="M41.7121 7C38.0021 7 33.8798 9.23529 33.8798 9.23529C31.7598 10.2941 28.7565 7.05882 23.8687 7.05882C18.9809 7.05882 12.9742 10.6471 17.7443 24.4706C19.982 35.5294 18.8043 45.2353 18.8043 49.8824C18.8043 54.4706 26.1654 60 26.1654 60C26.1654 46.6471 26.5776 36.5882 33.821 36.5882C41.0643 36.5882 40.711 59.9412 40.711 59.9412C49.1321 52.5882 47.3065 46.7059 46.3054 37.1176C45.3043 27.5294 48.661 24 49.8388 16.9412C51.0166 9.88235 45.481 7 41.7121 7ZM39.8276 23.9412H35.7054V28.0588H30.9943V23.9412H26.9309V19.2353H30.9354V15.7059H35.7643V19.2353H39.8276V23.9412Z" fill="white"/>
</svg>
