<svg width="66" height="66" viewBox="0 0 66 66" fill="none" xmlns="http://www.w3.org/2000/svg">
<path d="M29.7764 29.7031C31.8099 29.7031 36 20.8699 36 14.3064C36 7.74282 31.7482 4.00099 28.4208 4.00099C25.0933 4.00099 21.1496 6.76135 18.6849 6.76135C16.2201 6.76135 10.7975 3.93964 8.33275 4.00099C5.86796 4.06233 1 6.94538 1 14.4904C1 22.0354 6.42253 29.7031 6.42253 29.7031C6.42253 29.7031 27.743 29.7031 29.7764 29.7031Z" fill="white"/>
<path d="M29.2218 32.3407H8.08627V36.0212H4.69718V38.5976H32.919V36.0212H29.2218V32.3407Z" fill="white"/>
<path d="M27.8662 40.3151H9.50352V43.5662H6.54577V45.7132H31.0704V43.5662H27.8662V40.3151Z" fill="white"/>
<path d="M26.0176 47.6761H10.7975V50.3138H8.33275V52.0927H28.6673V50.3138H26.0176V47.6761Z" fill="white"/>
<path d="M24.0458 53.8716H13.3856V55.7732H11.6602V57H25.956V55.7732H24.0458V53.8716Z" fill="white"/>
<path d="M51.795 47.6864C53.0427 48.6416 59.7632 45.19 62.8465 41.1626C65.9298 37.1353 65.0787 32.842 63.037 31.2788C60.9953 29.7157 57.2788 29.5569 55.7664 28.399C54.254 27.2412 52.2523 22.9625 50.7111 21.8422C49.1698 20.722 44.8285 20.2042 41.2842 24.8338C37.7398 29.4634 37.4651 36.7156 37.4651 36.7156C37.4651 36.7156 50.5472 46.7312 51.795 47.6864Z" fill="white"/>
<path d="M50.2156 49.0444L37.2468 39.1157L35.5179 41.374L33.4384 39.7819L32.2281 41.3628L49.5449 54.6203L50.7552 53.0395L48.4866 51.3027L50.2156 49.0444Z" fill="white"/>
<path d="M45.6377 53.3006L34.3704 44.6745L32.8431 46.6694L31.0283 45.2799L30.0197 46.5973L45.068 58.1181L46.0766 56.8007L44.1104 55.2955L45.6377 53.3006Z" fill="white"/>
<path d="M41.0455 56.9489L31.7065 49.7991L30.4674 51.4175L28.955 50.2597L28.1193 51.3512L40.5966 60.9036L41.4322 59.8121L39.8064 58.5674L41.0455 56.9489Z" fill="white"/>
<path d="M36.9252 59.8241L30.3841 54.8164L29.4908 55.9832L28.4321 55.1727L27.8558 55.9254L36.6277 62.6411L37.204 61.8883L36.0319 60.9909L36.9252 59.8241Z" fill="white"/>
</svg>
