<?xml version="1.0" encoding="utf-8"?>
<!-- Generator: Adobe Illustrator 23.0.1, SVG Export Plug-In . SVG Version: 6.00 Build 0)  -->
<svg version="1.1" id="Camada_1" xmlns="http://www.w3.org/2000/svg" xmlns:xlink="http://www.w3.org/1999/xlink" x="0px" y="0px"
	 viewBox="0 0 162 166" style="enable-background:new 0 0 162 166;" xml:space="preserve">
<style type="text/css">
	.st0{fill:#480E3F;}
</style>
<path class="st0" d="M58,61.6l3,1.2c0,0-1.5,3.8,0,5.1s3,1.5,4,5.3c1,3.8,10.6,16.1,14.3,16.1s10.6-4.3,13.9-9.8
	c3.3-5.5,4.5-10,4.5-10s1.3,1,2-1.7s-0.3-4.3,1-5c1.3-0.7,3.2-1.3,3.2-1.3s-0.2,8.3-1.3,9.3c-1.2,1-1.7,7.6-5.5,11.3
	S83.4,93.6,80.9,93.6c-2.5,0-15.4-8-18.2-14.6s-3.2-7.8-4.6-9.6C56.5,67.5,58,61.6,58,61.6z"/>
<path class="st0" d="M80.6,41.4c-6.8,0-12.3,5.5-12.3,12.3S73.8,66,80.6,66c6.8,0,12.3-5.5,12.3-12.3S87.3,41.4,80.6,41.4z
	 M80.6,57.6c-2.2,0-3.9-1.7-3.9-3.9s1.7-3.9,3.9-3.9c2.2,0,3.9,1.7,3.9,3.9S82.7,57.6,80.6,57.6z"/>
<path class="st0" d="M92.8,34.9c0,0-17,0-23.5,0s-8.5,5.9-8.5,5.9s0,16.3,0,17.9s1.9,1.9,1.9,1.9h3.4c-1-2.1-1.6-4.4-1.6-6.9
	c0-8.8,7.1-15.9,15.9-15.9c8.8,0,15.9,7.1,15.9,15.9c0,2.4-0.5,4.6-1.4,6.6c0.7,0,1.8,0,2.5,0c1,0,1.1-1.1,1.1-1.1s0-9,0-15.3
	C98.6,37.8,92.8,34.9,92.8,34.9z"/>
<path class="st0" d="M94.8,90.4L80.6,116L66.5,89.7c0,0-0.2,3-8.5,4.9c-8.4,1.9-16.8,5.4-16.8,12.6c0,7.2,1.7,10.7,13,12.9
	c11.3,2.2,39.1,5.1,51.9,1c12.9-4.1,17.8-6.7,14.8-14c-2.9-7.3-4.5-7.7-10.1-9.5C105.1,95.9,95.3,91.8,94.8,90.4z"/>
</svg>
