<?xml version="1.0" encoding="utf-8"?>
<!-- Generator: Adobe Illustrator 23.0.1, SVG Export Plug-In . SVG Version: 6.00 Build 0)  -->
<svg version="1.1" id="Camada_1" xmlns="http://www.w3.org/2000/svg" xmlns:xlink="http://www.w3.org/1999/xlink" x="0px" y="0px"
	 viewBox="0 0 162 166" style="enable-background:new 0 0 162 166;" xml:space="preserve">
<style type="text/css">
	.st0{fill:#480E3F;}
</style>
<g>
	<path class="st0" d="M31.8,74.8c0,0,19.8,33,51.2,33c31.3,0,50.7-34.7,50.7-34.7S105.1,97,82.7,97C60.3,97,31.8,74.8,31.8,74.8z"/>
	<path class="st0" d="M82.7,65.7c9.9,0,50.9,2.4,50.9,2.4c-5.6,0-22.4-11.6-32.2-11.9c-9.8-0.3-18,6.6-18,6.6
		c-9.5-5.1-19.8-10.3-33.1-2.9S28.4,69,28.4,69C70.9,64.6,72.8,65.7,82.7,65.7z"/>
	<path class="st0" d="M46.8,77.7c5.4,1,12.6,1.9,20.1,1.7c15.1-0.4,16.6-1,16.6-1S61.7,79.8,46.8,77.7z"/>
	<path class="st0" d="M46.8,77.7c-5.4-1-9-2-9-2C40.2,76.6,43.3,77.3,46.8,77.7z"/>
</g>
</svg>
