<?xml version="1.0" encoding="utf-8"?>
<!-- Generator: Adobe Illustrator 23.0.1, SVG Export Plug-In . SVG Version: 6.00 Build 0)  -->
<svg version="1.1" id="Camada_1" xmlns="http://www.w3.org/2000/svg" xmlns:xlink="http://www.w3.org/1999/xlink" x="0px" y="0px"
	 viewBox="0 0 162 166" style="enable-background:new 0 0 162 166;" xml:space="preserve">
<style type="text/css">
	.st0{fill:#480E3F;}
</style>
<g>
	<path class="st0" d="M99.4,81c3.3,0,10.1-14.4,10.1-25.1s-6.9-16.8-12.3-16.8s-11.8,4.5-15.8,4.5S68.6,39,64.6,39.1
		s-11.9,4.8-11.9,17.1S61.5,81,61.5,81S96.1,81,99.4,81z"/>
	<polygon class="st0" points="98.5,85.3 64.2,85.3 64.2,91.3 58.7,91.3 58.7,95.5 104.5,95.5 104.5,91.3 98.5,91.3 	"/>
	<polygon class="st0" points="96.3,98.3 66.5,98.3 66.5,103.6 61.7,103.6 61.7,107.1 101.5,107.1 101.5,103.6 96.3,103.6 	"/>
	<polygon class="st0" points="93.3,110.3 68.6,110.3 68.6,114.6 64.6,114.6 64.6,117.5 97.6,117.5 97.6,114.6 93.3,114.6 	"/>
	<polygon class="st0" points="90.1,120.4 72.8,120.4 72.8,123.5 70,123.5 70,125.5 93.2,125.5 93.2,123.5 90.1,123.5 	"/>
</g>
</svg>
