<?xml version="1.0" encoding="utf-8"?>
<!-- Generator: Adobe Illustrator 16.0.3, SVG Export Plug-In . SVG Version: 6.00 Build 0)  -->
<!DOCTYPE svg PUBLIC "-//W3C//DTD SVG 1.1//EN" "http://www.w3.org/Graphics/SVG/1.1/DTD/svg11.dtd">
<svg version="1.1" id="Camada_1" xmlns="http://www.w3.org/2000/svg" xmlns:xlink="http://www.w3.org/1999/xlink" x="0px" y="0px"
	 width="200px" height="103px" viewBox="0 0 259.583 133.354" enable-background="new 0 0 259.583 133.354"
	 xml:space="preserve">
<g>
	<path fill="#3E183A" d="M89.757,57.129c-0.842-1.04-1.906-1.565-3.177-1.582c-3.201,0.025-5.664,0.835-7.387,2.437
		c-1.722,1.603-2.863,3.638-3.415,6.107c-0.56,2.469-0.801,5.282-0.736,8.45c0.072,2.117,0.352,3.762,0.835,4.918
		c0.494,1.156,1.158,1.973,1.997,2.459c0.84,0.488,1.916,0.809,3.218,0.98l0.98,0.012c2.609,0.035,4.699-0.635,6.274-2
		c1.568-1.367,2.666-3.182,3.292-5.445c0.619-2.262,0.887-4.787,0.791-7.587c-0.098-1.678-0.359-3.297-0.771-4.852
		C91.245,59.462,90.609,58.161,89.757,57.129z M87.88,76.001c-0.784,2.193-2.19,3.281-4.217,3.256
		c-1.309-0.113-2.304-0.611-2.994-1.504c-0.684-0.887-1.131-1.939-1.343-3.148c-0.213-1.203-0.345-2.645-0.402-4.305
		c-0.006-1.658,0.104-3.477,0.33-5.466c0.225-1.979,0.664-3.727,1.326-5.231c0.653-1.505,1.553-2.275,2.694-2.32
		c1.872,0.024,3.253,1.048,4.137,3.059c0.883,2.019,1.375,4.34,1.463,6.969l0.025,0.727C89.003,71.148,88.664,73.8,87.88,76.001z"/>
	<path fill="#3E183A" d="M61.841,55.503c-1.053,1.087-1.542,2.62-1.476,4.594c0.169,2.279,1.253,4.379,3.247,6.31l2.724,2.417
		c1.045,0.898,1.82,1.732,2.337,2.5c0.517,0.773,0.797,1.697,0.833,2.771c0.046,1.355-0.376,2.344-1.271,2.967
		c-0.894,0.631-1.991,0.842-3.293,0.637c-0.804-0.145-1.554-0.463-2.252-0.971c-0.698-0.508-1.262-1.172-1.688-1.992
		c-0.425-0.811-0.656-1.711-0.689-2.699c0.028-0.631,0.056-1.26,0.078-1.883c0.028-0.631,0.051-0.959,0.074-0.996l-1.562-0.449
		l-0.342,7.619c0.436,0.348,1.217,0.814,2.334,1.414c1.124,0.6,2.453,1.02,3.991,1.262l0.1,0.016
		c1.588,0.248,2.961,0.041,4.108-0.627c1.15-0.666,2.018-1.563,2.586-2.693c0.577-1.127,0.847-2.211,0.813-3.232
		c-0.171-2.332-1.356-4.414-3.545-6.248l-2.324-1.938c-2.005-1.764-3.098-3.661-3.285-5.705c-0.026-0.802,0.246-1.555,0.806-2.246
		s1.239-0.982,2.041-0.857c0.726,0.114,1.305,0.526,1.729,1.245c0.423,0.709,0.657,1.491,0.686,2.334l0.044,1.371l1.505,0.236
		l-0.183-5.405c0.034,0.005-0.37-0.152-1.213-0.47c-0.833-0.317-1.554-0.523-2.164-0.619C64.473,53.975,62.893,54.422,61.841,55.503
		z"/>
	<path fill="#3E183A" d="M7.782,19.913c0.695,0.615,1.215,1.453,1.566,2.521c0.351,1.068,0.589,2.5,0.721,4.301l0.54,18.118
		c0.049,1.445-0.024,2.465-0.218,3.045c-0.194,0.581-0.729,0.488-1.61-0.286L7.207,46.22l0.063,1.881
		c2.249,1.651,4.217,3.221,5.921,4.723c1.819,1.604,3.424,3.151,4.814,4.641l-0.063-1.891l-2.083-1.835
		c-1.063-0.938-1.773-1.978-2.127-3.122c-0.352-1.146-0.557-2.456-0.608-3.946l-0.686-22.458c0.16,0.139,0.414,0.349,0.768,0.626
		c0.353,0.279,0.598,0.478,0.731,0.595c1.771,1.563,3.102,3.274,3.989,5.137c0.887,1.855,1.372,3.943,1.45,6.259
		c0.066,1.956-0.163,3.25-0.682,3.867c-0.518,0.615-1.577,0.311-3.171-0.931c-0.196-0.172-0.391-0.31-0.583-0.415
		c-0.592-0.636-1.05-1.187-1.372-1.653l0.06,1.795c0.84,1.135,1.592,1.997,2.264,2.589c0.115,0.102,0.226,0.233,0.332,0.385
		c1.99,1.706,3.49,2.121,4.511,1.244c1.019-0.877,1.483-2.625,1.393-5.255c-0.047-1.405-0.358-2.936-0.944-4.606
		c-0.576-1.665-1.334-3.243-2.28-4.754c-0.94-1.498-1.943-2.718-3.011-3.661c-0.251-0.221-0.592-0.488-1.018-0.805
		c-0.778-0.588-2.046-1.598-3.8-3.012c-0.63-0.598-1.476-1.399-2.547-2.427c-1.072-1.027-1.825-1.739-2.271-2.159l0.057,1.686
		L7.782,19.913z"/>
	<path fill="#3E183A" d="M46.802,73.738c-0.008-0.248,0.151-1.139,0.465-2.666c0.309-1.539,0.735-3.225,1.268-5.07
		c0.529-1.852,1.152-3.571,1.863-5.17c1.585-3.438,3.162-4.901,4.726-4.381c0.237,0.078,0.427,0.149,0.57,0.222
		c0.142,0.074,0.24,0.13,0.287,0.163l-0.145-4.29c-0.05-0.033-0.144-0.089-0.288-0.163c-0.142-0.072-0.332-0.144-0.57-0.222
		c-0.877-0.291-1.666-0.116-2.371,0.534c-0.342,0.289-0.7,0.776-1.084,1.458c-0.376,0.683-0.747,1.45-1.117,2.306
		c-0.361,0.847-0.845,2.033-1.442,3.543c-0.589,1.513-0.905,2.315-0.949,2.42l0.189-12.662c-1.173,0.174-2.555,0.229-4.135,0.141
		c-1.58-0.077-2.946-0.296-4.083-0.647l0.068,2.042l4.649,0.534l-0.365,21.09L46.802,73.738z"/>
	<path fill="#3E183A" d="M27.93,63.683c0.986,1.422,2.22,2.523,3.699,3.314c2.046,1.092,3.605,1.314,4.679,0.67
		c1.073-0.648,1.763-1.56,2.079-2.736c0.31-1.174,0.455-2.115,0.432-2.82l-1.356-0.935l0.013,0.409
		c0.036,1.073-0.155,1.974-0.57,2.713c-0.41,0.735-0.991,1.192-1.734,1.374c-0.748,0.176-1.566,0.023-2.449-0.448
		c-2.884-1.691-4.505-5.196-4.84-10.509c0.052-1.141,0.091-1.707,0.106-1.699c3.139,1.259,6.123,2.101,8.934,2.506
		c0.287-1.61,0.414-2.946,0.377-4.012c-0.041-1.241-0.238-2.434-0.59-3.574c-0.353-1.142-0.908-2.197-1.66-3.158
		c-0.758-0.967-1.733-1.763-2.928-2.401c-1.376-0.685-2.535-0.835-3.476-0.451c-0.947,0.379-1.691,1.146-2.234,2.309
		c-0.538,1.157-0.926,2.515-1.151,4.074c-0.225,1.561-0.344,3.293-0.365,5.213c0.062,1.856,0.337,3.665,0.822,5.413
		C26.206,60.681,26.943,62.27,27.93,63.683z M29.012,45.538c0.648-1.93,1.702-2.52,3.157-1.783c0.981,0.524,1.619,1.307,1.932,2.361
		c0.312,1.053,0.488,2.241,0.534,3.562c0.037,1.166-0.181,2.052-0.652,2.669c-0.47,0.609-1.163,0.775-2.061,0.504l-3.813-1.394
		c0-0.007-0.009-0.045-0.019-0.101c-0.015-0.052-0.039-0.112-0.076-0.192C28.032,49.335,28.359,47.461,29.012,45.538z"/>
	<path fill="#3E183A" d="M183.906,30.677l0.123,3.676c0.232,6.862,0.004,13.271-0.688,19.233l3.675-2.63l0.854-25.533
		c-3.636,3.068-6.375,5.164-8.22,6.287l0.063,1.83L183.906,30.677z"/>
	<path fill="#3E183A" d="M146.98,56.338c-0.883,2.691-1.336,5.117-1.371,7.277c0.121,3.591,1.136,5.074,3.037,4.46
		c1.32-0.492,2.61-1.438,3.857-2.843c1.25-1.403,2.262-2.972,3.061-4.707l4.066-8.695l0.088,2.604
		c0.051,1.473,0.043,2.769-0.027,3.89c-0.082,1.127-0.268,2.936-0.556,5.431c0.015,0.409,0.078,0.583,0.214,0.533
		c0.199-0.075,0.334-0.15,0.396-0.243c1.494-1.395,2.578-2.359,3.265-2.88c0.677-0.521,1.854-1.276,3.522-2.277l-0.641-0.942
		c-0.759,0.411-1.604,0.941-2.537,1.607v0.002c-0.377,0.139-0.641-0.573-0.793-2.135c-0.006-1.146,0.022-2.362,0.088-3.662
		c0.064-1.3,0.215-3.891,0.448-7.769c0.234-3.88,0.403-6.933,0.505-9.145l-3.548,1.737c-0.243,0.089-0.563,0.139-0.944,0.144
		c-0.379,0.004-0.725,0.064-1.025,0.175c-1.014,0.379-2.23,1.453-3.652,3.225c-1.422,1.77-2.798,3.912-4.135,6.418
		C148.968,51.046,147.861,53.638,146.98,56.338z M155.496,43.27c1.013-1.335,1.883-2.143,2.604-2.411
		c0.217-0.081,0.402-0.099,0.557-0.052c0.772,0.066,1.189,0.841,1.238,2.333c0.049,1.465-0.062,2.695-0.332,3.7
		c-0.451,1.971-1.113,4.156-1.98,6.549s-1.855,4.527-2.969,6.406c-1.104,1.868-2.217,3.032-3.327,3.479
		c-1.355,0.507-2.142-0.252-2.37-2.262c0.066-0.242,0.102-0.496,0.091-0.768c0.05-1.786,0.399-3.742,1.046-5.88
		c0.648-2.14,1.469-4.185,2.444-6.143C153.48,46.262,154.474,44.616,155.496,43.27z"/>
	<path fill="#3E183A" d="M183.609,20.205c0.5,0.362,1.074,0.387,1.729,0.066c0.018-0.008,0.033-0.008,0.059-0.011
		c0.022-0.004,0.041-0.002,0.041,0.014c0.774-0.402,1.426-1.074,1.953-2.015c0.518-0.936,0.768-1.845,0.736-2.722
		c-0.025-0.801-0.333-1.377-0.921-1.724c-0.586-0.346-1.251-0.334-1.986,0.025c-0.769,0.375-1.378,1.034-1.832,1.991
		c-0.444,0.942-0.659,1.86-0.63,2.729C182.831,19.295,183.121,19.845,183.609,20.205z"/>
	<path fill="#3E183A" d="M136.695,72.616c2.371-2.172,4.828-3.686,7.365-4.539L144,66.29l-3.656,1.561l0.492-22.021l-2.804,0.841
		c-1.713,2.423-3.209,4.635-4.495,6.646c-1.289,2.012-2.466,4.023-3.548,6.042c-1.082,2.027-2.117,4.187-3.104,6.485l1.187-16.752
		c-2.385,2.333-5.113,3.949-8.17,4.867l0.065,2l3.938-2.118l-0.483,22.028l3.11-0.932c0.19-2.258,0.581-4.389,1.175-6.391
		c0.594-2.01,1.344-3.92,2.244-5.738c0.891-1.825,1.756-3.398,2.57-4.727c0.821-1.337,2.362-3.76,4.621-7.275
		c0.188,9.625-0.231,16.769-1.275,21.431L136.695,72.616z"/>
	<polygon fill="#3E183A" points="217.746,1.344 215.053,0.373 209.576,8.564 210.271,9.077 	"/>
	<path fill="#3E183A" d="M209.261,37.85c1.075,0.34,2.42,0.063,4.034-0.82c2.231-1.223,3.935-2.788,5.11-4.698
		c1.177-1.909,1.932-3.65,2.279-5.236c0.344-1.575,0.506-2.723,0.482-3.429l-1.479,0.593l0.014,0.409
		c0.037,1.073-0.174,2.229-0.631,3.476c-0.45,1.235-1.088,2.381-1.9,3.425c-0.818,1.046-1.71,1.829-2.675,2.358
		c-3.146,1.567-4.906-0.21-5.257-5.341c0.062-1.248,0.105-1.878,0.121-1.887c3.428-2.311,6.685-4.873,9.756-7.69
		c0.32-2.003,0.461-3.539,0.427-4.602c-0.044-1.243-0.254-2.254-0.638-3.034c-0.379-0.78-0.983-1.238-1.801-1.371
		c-0.826-0.128-1.888,0.166-3.193,0.882c-1.502,0.873-2.768,2.052-3.797,3.535c-1.038,1.487-1.853,3.138-2.451,4.975
		c-0.592,1.824-1.02,3.681-1.271,5.56c-0.25,1.879-0.386,3.816-0.412,5.836c0.063,1.855,0.356,3.419,0.883,4.674
		C207.387,36.719,208.187,37.521,209.261,37.85z M210.5,17.753c0.711-2.747,1.866-4.576,3.455-5.49
		c1.069-0.585,1.764-0.505,2.104,0.229c0.338,0.731,0.526,1.765,0.57,3.085c0.038,1.165-0.203,2.338-0.72,3.521
		c-0.517,1.176-1.273,2.146-2.255,2.899l-4.164,2.945c0-0.008-0.008-0.037-0.018-0.083c-0.017-0.032-0.041-0.071-0.084-0.109
		C209.413,22.829,209.777,20.506,210.5,17.753z"/>
	<path fill="#3E183A" d="M194.115,24.692c-0.307,7.674-0.436,13.283-0.389,16.829c0.051,0.535,0.11,1.336,0.18,2.399
		c0.068,1.056,0.127,1.866,0.168,2.406c0.32,0.065,0.887,0.053,1.688-0.015c0.802-0.066,1.724-0.38,2.769-0.93
		c1.299-0.685,2.43-1.609,3.395-2.777c0.969-1.177,1.71-2.504,2.212-3.989c0.501-1.487,0.733-3.003,0.681-4.553l-1.347,0.709
		c0.058,1.711-0.239,3.254-0.899,4.633c-0.658,1.379-1.541,2.407-2.637,3.097c-0.016,0.01-0.039,0.03-0.07,0.055
		c-0.041,0.03-0.078,0.084-0.125,0.161c-0.728,0.348-1.26,0.37-1.604,0.058c-0.343-0.303-0.563-0.838-0.659-1.573
		c-0.101-0.746-0.18-1.865-0.229-3.355c-0.131-9.582-0.143-14.515-0.063-14.772l5.465-2.827l0.023-2.146l-5.074,2.779l0.377-6.176
		l-3.613,2.84l-0.111,5.1l-3.305,1.639l0.074,2.195L194.115,24.692z"/>
	<path fill="#3E183A" d="M169.439,60.281c2.672-2.34,5.5-4.229,8.494-5.681l-0.076-2.195l-4.494,2.956
		c-0.012-0.35-0.016-2.188-0.012-5.524c-0.002-3.326,0.033-7.152,0.094-11.475c0.07-4.325,0.186-8.317,0.36-11.974
		c0.177-3.656,0.427-6.394,0.755-8.217c0.454-2.537,0.937-4.481,1.439-5.847c0.511-1.361,0.954-2.276,1.326-2.755
		c0.377-0.479,0.64-0.806,0.791-0.985l-0.051-1.515l-5.396,2.417c-0.457,2.694-0.835,5.074-1.131,7.143
		c-0.296,2.067-0.556,4.024-0.767,5.864c-0.205,1.845-0.396,3.772-0.562,5.798c-0.155,2.023-0.317,4.358-0.468,7.019
		c-0.109,1.984-0.176,3.976-0.207,5.994c-0.021,2.015-0.031,4.472-0.025,7.365c0.016,2.896,0.024,5.139,0.02,6.738
		C169.527,57.009,169.5,58.629,169.439,60.281z"/>
	<path fill="#3E183A" d="M111.25,78.925c2.415-1.799,4.915-2.924,7.5-3.387l-0.062-1.785l-3.72,0.99l0.514-21.833l-2.854,0.406
		c-1.745,2.148-3.267,4.118-4.58,5.922c-1.312,1.804-2.512,3.626-3.613,5.468c-1.102,1.851-2.157,3.839-3.162,5.976l1.217-16.484
		c-2.429,1.955-5.203,3.145-8.317,3.59l0.067,2l4.008-1.504l-0.506,21.839l3.166-0.451c0.194-2.217,0.594-4.277,1.198-6.174
		c0.606-1.908,1.372-3.693,2.288-5.363c0.907-1.679,1.789-3.115,2.617-4.309c0.838-1.206,2.406-3.38,4.709-6.53
		c0.184,9.603-0.249,16.644-1.313,21.125L111.25,78.925z"/>
	<path fill="#3E183A" d="M57.423,94.384C22.57,86.075,3.933,66.422,1.5,35.421c-1.052,6.836-1.492,13.205-1.383,19.131
		c-1.825,110.288,180.003,72.823,247.599-37.011c-0.337,0.329-0.676,0.654-1.014,0.982c0.954-1.447,1.894-2.904,2.807-4.377
		C196.902,65.075,137.613,101.863,57.423,94.384z"/>
	<path fill="#3E183A" d="M256.195,6.851c-7.489-6.718-17.825-2.046-28.568,4.254c26.346-7.702,30.396,4.658,24.313,26.14
		C258.242,25.283,262.913,13.931,256.195,6.851z"/>
	<path fill="#3E183A" d="M83.448,30.803c0.456,0.004,0.747,0.025,0.889,0.062c0.28,0.05,0.465,0.362,0.559,0.945
		c0.095,0.585,0.16,1.34,0.197,2.271l0.334,8.391c0.049,1.247-0.371,1.864-1.266,1.854l-1.134-0.015l0.037,0.94
		c0.995-0.124,2.129-0.178,3.402-0.16c1.276,0.015,2.417,0.097,3.422,0.244l-0.036-0.885l-1.191-0.015
		c-0.62-0.008-1.025-0.351-1.213-1.025c-0.186-0.672-0.302-1.541-0.344-2.606l-0.308-7.683c-0.005-0.135-0.025-0.235-0.063-0.305
		c0.007-0.632,0.1-1.108,0.288-1.432c0.192-0.322,0.56-0.48,1.1-0.475l1.04,0.013l-0.039-0.976c-0.445,0.035-1.56,0.076-3.352,0.13
		c-1.845-0.106-2.956-0.175-3.321-0.214l0.038,0.927L83.448,30.803z"/>
	<path fill="#3E183A" d="M67.908,31.89c-0.007-0.151-0.027-0.279-0.063-0.382c0.005-0.591,0.081-1.012,0.229-1.269
		c0.151-0.257,0.489-0.363,1.014-0.319l4.485,0.37l0.414,10.349c0.013,1.021,0.01,1.672-0.019,1.947
		c-0.028,0.275-0.174,0.48-0.438,0.619c-0.266,0.138-0.749,0.177-1.45,0.119l-1.131-0.095l0.037,0.938
		c1.83,0.016,3.14,0.056,3.924,0.122c0.945,0.077,2.394,0.265,4.344,0.559l-0.034-0.88l-0.934-0.077
		c-0.718-0.059-1.242-0.19-1.573-0.398c-0.332-0.206-0.548-0.522-0.657-0.939c-0.111-0.42-0.181-1.061-0.215-1.916l-0.404-10.137
		l3.607,0.298c0.496,0.04,0.856,0.133,1.076,0.277c0.218,0.139,0.361,0.341,0.416,0.593c0.061,0.253,0.103,0.66,0.124,1.224
		l0.879,0.072l-0.134-3.332c-2.024-0.041-4.533-0.155-7.517-0.343c-2.783-0.289-5.118-0.574-6.996-0.854l0.13,3.339L67.908,31.89z"
		/>
	<path fill="#3E183A" d="M91.545,33.307c-0.006-0.15-0.028-0.276-0.065-0.372c0.004-0.596,0.08-1.029,0.23-1.305
		c0.149-0.276,0.489-0.424,1.015-0.445l4.498-0.18l0.413,10.35c0.015,1.024,0.012,1.68-0.017,1.958
		c-0.028,0.28-0.174,0.507-0.438,0.677c-0.268,0.171-0.753,0.27-1.456,0.298l-1.135,0.045l0.038,0.935
		c1.836-0.209,3.147-0.328,3.935-0.358c0.947-0.038,2.399-0.029,4.354,0.027l-0.035-0.88l-0.935,0.038
		c-0.721,0.028-1.245-0.04-1.577-0.207c-0.332-0.17-0.55-0.459-0.659-0.865c-0.109-0.407-0.181-1.043-0.215-1.897l-0.404-10.137
		l3.618-0.145c0.496-0.02,0.858,0.029,1.077,0.146c0.22,0.113,0.362,0.297,0.417,0.545c0.062,0.246,0.104,0.649,0.125,1.214
		l0.881-0.035l-0.132-3.332c-2.03,0.206-4.545,0.399-7.537,0.578c-2.791,0.053-5.133,0.053-7.018,0.001l0.135,3.341L91.545,33.307z"
		/>
	<path fill="#3E183A" d="M142.31,37.15c1.207,0.402,2.537,0.389,3.989-0.035c1.411-0.412,2.69-1.102,3.839-2.071
		c1.146-0.971,2.045-2.158,2.691-3.561c0.641-1.403,0.933-2.911,0.869-4.532c-0.059-1.456-0.469-2.709-1.228-3.763
		c-0.758-1.053-1.758-1.77-2.995-2.161c-1.24-0.389-2.563-0.379-3.971,0.032c-1.021,0.313-1.986,0.789-2.896,1.439
		c-0.907,0.647-1.699,1.42-2.367,2.314c-0.674,0.896-1.19,1.883-1.549,2.958c-0.359,1.074-0.517,2.183-0.469,3.319
		c0.075,1.486,0.473,2.767,1.192,3.847C140.138,36.011,141.103,36.75,142.31,37.15z M140.689,26.858
		c0.451-1.106,1.109-2.064,1.977-2.877c0.87-0.813,1.883-1.39,3.039-1.728c0.824-0.242,1.607-0.273,2.342-0.096
		c0.736,0.182,1.377,0.523,1.925,1.027c0.552,0.498,0.986,1.126,1.308,1.872c0.318,0.745,0.496,1.563,0.529,2.443
		c0.06,1.458-0.131,2.766-0.57,3.917c-0.442,1.151-1.084,2.114-1.934,2.882c-0.847,0.771-1.83,1.336-2.958,1.699
		c-0.008,0.002-0.019,0.012-0.043,0.021c-0.024,0.018-0.057,0.039-0.095,0.07c-1.139,0.317-2.174,0.248-3.1-0.202
		c-0.926-0.449-1.658-1.173-2.199-2.169c-0.534-1.003-0.828-2.123-0.879-3.365C140.019,29.13,140.238,27.963,140.689,26.858z"/>
	<path fill="#3E183A" d="M60.465,35.096l1.786,1.255c1.591,1.071,2.433,2.277,2.534,3.627c0.034,0.848-0.218,1.486-0.755,1.923
		c-0.534,0.434-1.203,0.591-2.002,0.468c-0.84-0.128-1.551-0.563-2.145-1.304c-0.591-0.738-0.906-1.541-0.941-2.405l-0.04-1.04
		l-1.079-0.165c0.135,0.787,0.217,1.611,0.252,2.475c0.008,0.202,0.011,0.492,0.009,0.868c-0.001,0.372,0.002,0.666,0.01,0.873
		c0.245,0.196,0.79,0.498,1.644,0.908c0.854,0.413,1.609,0.666,2.271,0.768c0.995,0.135,1.807,0.051,2.442-0.258
		c0.637-0.308,1.095-0.778,1.38-1.417c0.285-0.642,0.408-1.394,0.374-2.257c-0.041-1.007-0.369-2.012-0.986-3.015
		c-0.614-0.998-1.436-1.819-2.459-2.462l-1.555-0.991c-1.365-0.889-2.07-1.96-2.12-3.215c0-0.61,0.226-1.1,0.68-1.457
		c0.454-0.361,0.994-0.493,1.627-0.395c0.547,0.083,0.975,0.292,1.296,0.627c0.319,0.333,0.538,0.693,0.656,1.088
		c0.119,0.392,0.183,0.749,0.198,1.076l0.006,0.202l0.98,0.149l-0.122-3.053l-0.454-0.071c-0.069-0.047-0.191-0.088-0.373-0.115
		c-1.029-0.354-1.751-0.564-2.163-0.628c-0.733-0.111-1.382-0.069-1.948,0.133c-0.569,0.201-1.022,0.566-1.352,1.103
		c-0.335,0.534-0.507,1.215-0.523,2.045C57.666,32.219,58.621,33.771,60.465,35.096z"/>
	<path fill="#3E183A" d="M106.939,30.14c0.442-0.056,0.764,0.022,0.966,0.236c0.205,0.212,0.336,0.53,0.399,0.949
		c0.063,0.418,0.11,1.067,0.145,1.944l0.211,5.29c0.049,1.197,0.243,2.185,0.581,2.958c0.337,0.77,0.793,1.354,1.36,1.748
		c0.569,0.395,1.223,0.645,1.962,0.749c0.737,0.108,1.574,0.116,2.515,0.021c1.951-0.249,3.451-0.991,4.508-2.23
		c1.055-1.24,1.538-2.981,1.447-5.235l-0.233-5.858c-0.033-0.817,0.016-1.399,0.139-1.754c0.126-0.352,0.462-0.563,1.001-0.631
		l0.731-0.095l-0.037-0.979c-0.993,0.219-2.173,0.442-3.534,0.672c-1.244,0.095-2.125,0.131-2.644,0.117l0.041,0.979l1.077-0.138
		c0.501-0.063,0.871-0.061,1.115,0.011c0.238,0.075,0.433,0.334,0.58,0.772c0.153,0.441,0.25,1.19,0.291,2.245l0.176,4.367
		c0.081,2.055-0.255,3.609-1.016,4.661c-0.757,1.054-1.937,1.683-3.539,1.889c-0.911,0.095-1.72,0.003-2.415-0.281
		c-0.695-0.283-1.253-0.783-1.666-1.502c-0.412-0.712-0.641-1.652-0.688-2.819l-0.246-6.162c-0.022-0.563-0.019-0.995,0.012-1.297
		c0.035-0.305,0.141-0.555,0.326-0.761c0.184-0.207,0.482-0.337,0.9-0.39l1.127-0.145l-0.041-0.984
		c-0.557,0.154-1.616,0.365-3.172,0.637c-1.501,0.116-2.51,0.17-3.024,0.154l0.037,0.938L106.939,30.14z"/>
	<path fill="#3E183A" d="M124.754,29.97c-0.006-0.151-0.027-0.273-0.063-0.364c0.005-0.601,0.078-1.05,0.224-1.354
		c0.147-0.303,0.479-0.511,0.993-0.624l4.397-0.958l0.413,10.349c0.017,1.03,0.015,1.689-0.017,1.977
		c-0.026,0.286-0.17,0.538-0.428,0.756c-0.261,0.218-0.735,0.402-1.423,0.551l-1.108,0.241l0.037,0.935
		c1.795-0.526,3.079-0.875,3.849-1.042c0.927-0.2,2.347-0.443,4.258-0.724l-0.034-0.88l-0.914,0.201
		c-0.705,0.153-1.22,0.176-1.543,0.063c-0.326-0.11-0.539-0.367-0.646-0.755c-0.107-0.393-0.178-1.02-0.212-1.875l-0.404-10.137
		l3.537-0.771c0.487-0.104,0.84-0.12,1.056-0.038c0.215,0.077,0.354,0.237,0.409,0.476c0.06,0.237,0.101,0.637,0.122,1.201
		l0.859-0.188l-0.131-3.33c-1.984,0.56-4.444,1.188-7.371,1.884c-2.728,0.534-5.018,0.94-6.859,1.215l0.134,3.34L124.754,29.97z"/>
	<path fill="#3E183A" d="M31.922,20.639c0.434,0.138,0.711,0.244,0.846,0.319c0.265,0.132,0.443,0.495,0.535,1.098
		c0.09,0.607,0.154,1.372,0.191,2.302l0.334,8.392c0.05,1.246-0.349,1.732-1.202,1.461l-1.08-0.345l0.037,0.939
		c0.946,0.168,2.027,0.447,3.241,0.834c1.217,0.39,2.304,0.803,3.259,1.241l-0.034-0.885l-1.137-0.361
		c-0.589-0.189-0.977-0.646-1.156-1.368c-0.179-0.718-0.291-1.609-0.332-2.675l-0.307-7.683c-0.007-0.136-0.026-0.241-0.06-0.32
		c0.001-0.622,0.091-1.068,0.271-1.33c0.181-0.263,0.531-0.313,1.045-0.149l0.991,0.316l-0.039-0.978
		c-0.422-0.095-1.484-0.379-3.192-0.851c-1.759-0.644-2.816-1.037-3.164-1.181l0.038,0.927L31.922,20.639z"/>
	<path fill="#3E183A" d="M39.742,23.271c0.453,0.118,0.76,0.308,0.913,0.569c0.157,0.261,0.245,0.656,0.267,1.188l0.389,9.732
		l0.019,0.454c0.024,0.628-0.039,1.079-0.185,1.344c-0.151,0.265-0.505,0.327-1.063,0.181l-0.852-0.225l0.037,0.936
		c0.978,0.156,1.98,0.37,3.003,0.639c1.153,0.302,2.175,0.637,3.062,1.004l-0.035-0.88l-1.049-0.276
		c-0.701-0.184-1.168-0.54-1.401-1.061c-0.23-0.523-0.363-1.228-0.399-2.117l-0.426-9.489l12.013,16.563l0.56,0.146L54.099,28.32
		c-0.016-0.43,0.044-0.714,0.184-0.86c0.139-0.144,0.413-0.163,0.82-0.055l1.106,0.29l-0.041-0.982
		c-0.942-0.151-1.974-0.351-3.102-0.597c-1.02-0.323-1.995-0.651-2.916-0.984l-0.007,1.021l0.733,0.192l0.855,0.227
		c0.348,0.091,0.595,0.234,0.748,0.434c0.151,0.2,0.238,0.578,0.261,1.131l0.859,10.052L42.517,23.129
		c-0.276-0.031-0.889-0.138-1.848-0.314c-0.987-0.334-1.649-0.583-1.991-0.752l0.038,0.938L39.742,23.271z"/>
	<path fill="#3E183A" d="M191.83,91.335c0.117,0.434,0.125,0.803,0.021,1.107c-0.102,0.307-0.302,0.563-0.6,0.773
		c-0.405,0.281-0.837,0.373-1.305,0.281c-0.463-0.09-0.898-0.391-1.297-0.902l3.59-2.512c-0.064-0.098-0.114-0.172-0.149-0.223
		c-0.553-0.793-1.19-1.27-1.907-1.42c-0.713-0.152-1.392-0.002-2.035,0.445c-0.664,0.467-1.049,1.068-1.153,1.811
		c-0.103,0.736,0.129,1.514,0.696,2.322c0.547,0.783,1.179,1.246,1.895,1.391c0.716,0.146,1.426-0.029,2.131-0.521
		c0.557-0.391,0.922-0.848,1.094-1.371c0.168-0.525,0.147-1.08-0.065-1.666L191.83,91.335z M187.947,90.591
		c0.08-0.43,0.308-0.777,0.683-1.037c0.413-0.293,0.862-0.371,1.341-0.234c0.309,0.08,0.626,0.313,0.945,0.691l-2.688,1.883
		C187.96,91.454,187.867,91.019,187.947,90.591z"/>
	<path fill="#3E183A" d="M201.074,84.23c0.244,0.443,0.334,0.838,0.268,1.186c-0.064,0.35-0.253,0.641-0.563,0.877
		c-0.392,0.295-0.815,0.389-1.27,0.285c-0.461-0.105-0.925-0.471-1.4-1.104c-0.469-0.621-0.686-1.17-0.65-1.645
		c0.031-0.477,0.25-0.865,0.65-1.168c0.266-0.201,0.553-0.289,0.858-0.273c0.31,0.02,0.617,0.16,0.927,0.416l0.688-0.701
		c-0.451-0.404-0.934-0.613-1.454-0.627c-0.517-0.016-1.033,0.17-1.541,0.555c-0.403,0.305-0.706,0.68-0.905,1.129
		c-0.199,0.451-0.24,0.928-0.123,1.434c0.118,0.508,0.367,1.016,0.75,1.521c0.592,0.785,1.24,1.24,1.948,1.365
		c0.705,0.125,1.38-0.057,2.021-0.539c0.515-0.385,0.832-0.865,0.955-1.436s0.022-1.158-0.299-1.76L201.074,84.23z"/>
	<path fill="#3E183A" d="M206.064,79.98l-0.817-1.047c-0.272-0.35-0.472-0.578-0.604-0.693c-0.216-0.18-0.435-0.293-0.66-0.344
		c-0.229-0.049-0.502-0.023-0.82,0.076c-0.319,0.102-0.676,0.301-1.071,0.611c-0.401,0.313-0.708,0.643-0.924,0.986
		c-0.218,0.346-0.328,0.684-0.329,1.01c-0.002,0.326,0.09,0.68,0.277,1.061l0.849-0.492c-0.171-0.393-0.22-0.727-0.147-0.992
		c0.078-0.266,0.301-0.545,0.67-0.832c0.394-0.309,0.762-0.455,1.1-0.434c0.251,0.016,0.501,0.182,0.752,0.504
		c0.021,0.027,0.075,0.098,0.154,0.207c-0.217,0.338-0.615,0.793-1.188,1.365c-0.28,0.279-0.481,0.502-0.604,0.662
		c-0.163,0.221-0.284,0.453-0.364,0.697c-0.078,0.246-0.095,0.502-0.052,0.768c0.041,0.27,0.154,0.518,0.33,0.742
		c0.303,0.387,0.688,0.6,1.154,0.633c0.467,0.035,0.954-0.146,1.463-0.545c0.31-0.238,0.559-0.516,0.75-0.826
		c0.187-0.313,0.33-0.705,0.428-1.182c0.195,0.205,0.397,0.352,0.602,0.453l0.819-0.645c-0.236-0.1-0.448-0.23-0.634-0.4
		C207.011,81.157,206.633,80.71,206.064,79.98z M205.591,82.335c-0.132,0.316-0.35,0.592-0.652,0.828
		c-0.306,0.24-0.59,0.35-0.856,0.334c-0.269-0.016-0.485-0.127-0.647-0.338c-0.107-0.135-0.166-0.289-0.183-0.457
		c-0.017-0.17,0.021-0.336,0.108-0.498c0.088-0.16,0.275-0.393,0.563-0.689c0.505-0.525,0.856-0.959,1.05-1.301l0.227,0.289
		c0.269,0.344,0.432,0.639,0.484,0.883C205.754,81.702,205.724,82.019,205.591,82.335z"/>
	<path fill="#3E183A" d="M217.837,69.154c-0.625-0.691-1.303-1.064-2.039-1.115c-0.736-0.049-1.402,0.193-2.005,0.736
		c-0.54,0.484-0.853,1.063-0.935,1.723c-0.104,0.793,0.213,1.594,0.94,2.402c0.665,0.74,1.362,1.135,2.093,1.186
		c0.73,0.053,1.4-0.195,2.012-0.746c0.381-0.344,0.652-0.748,0.814-1.219c0.163-0.467,0.182-0.936,0.061-1.412
		C218.656,70.234,218.343,69.718,217.837,69.154z M217.357,72.73c-0.369,0.332-0.803,0.471-1.299,0.41
		c-0.494-0.055-0.992-0.365-1.498-0.926c-0.502-0.557-0.758-1.084-0.761-1.582c-0.007-0.498,0.177-0.912,0.545-1.244
		c0.366-0.328,0.795-0.463,1.29-0.408c0.497,0.059,0.989,0.357,1.477,0.896c0.515,0.574,0.776,1.107,0.785,1.607
		C217.904,71.984,217.724,72.398,217.357,72.73z"/>
	<path fill="#3E183A" d="M208.884,70.312l1.872,2.23c-0.287-0.074-0.584-0.076-0.896-0.014c-0.306,0.063-0.596,0.207-0.866,0.436
		c-0.37,0.311-0.624,0.689-0.759,1.137c-0.139,0.445-0.125,0.916,0.031,1.408c0.157,0.492,0.424,0.961,0.803,1.41
		c0.386,0.463,0.81,0.799,1.271,1.014c0.466,0.217,0.931,0.299,1.397,0.242c0.466-0.053,0.879-0.23,1.236-0.533
		c0.555-0.463,0.788-1.039,0.698-1.725l0.478,0.57l0.709-0.598l-5.215-6.215L208.884,70.312z M212.333,74.292
		c0.469,0.561,0.7,1.074,0.696,1.541c-0.004,0.469-0.172,0.842-0.506,1.125c-0.33,0.273-0.738,0.373-1.221,0.291
		c-0.482-0.078-0.965-0.41-1.449-0.988c-0.5-0.596-0.752-1.127-0.757-1.594s0.161-0.846,0.5-1.127
		c0.349-0.295,0.761-0.396,1.241-0.305C211.316,73.323,211.814,73.675,212.333,74.292z"/>
	<path fill="#3E183A" d="M195.724,89.872c-0.119,0.084-0.226,0.131-0.318,0.137c-0.094,0.006-0.176-0.016-0.252-0.063
		c-0.073-0.047-0.192-0.186-0.355-0.416l-1.971-2.816l0.818-0.574l-0.442-0.635l-0.82,0.576l-1.179-1.684l-0.471,1.057l0.838,1.193
		l-0.602,0.422l0.443,0.635l0.601-0.42l1.938,2.77c0.343,0.49,0.601,0.787,0.775,0.895c0.172,0.105,0.373,0.148,0.602,0.127
		c0.23-0.021,0.492-0.135,0.789-0.344c0.182-0.125,0.369-0.295,0.564-0.502l-0.623-0.639
		C195.927,89.716,195.814,89.81,195.724,89.872z"/>
	
		<rect x="193.054" y="86.585" transform="matrix(-0.6018 -0.7986 0.7986 -0.6018 244.3895 296.02)" fill="#3E183A" width="5.874" height="1"/>
	<polygon fill="#3E183A" points="188.109,86.296 187.04,87.044 187.324,88.736 188.001,88.263 	"/>
	
		<rect x="192.723" y="82.836" transform="matrix(0.7991 -0.6013 0.6013 0.7991 -11.3247 132.9353)" fill="#3E183A" width="0.997" height="1.148"/>
	<path fill="#3E183A" d="M225.01,64.109c-0.237-0.244-0.491-0.394-0.763-0.446c-0.273-0.056-0.553-0.03-0.837,0.08
		c-0.283,0.104-0.742,0.337-1.382,0.69c-0.442,0.243-0.711,0.387-0.809,0.43c-0.176,0.069-0.326,0.095-0.461,0.073
		c-0.13-0.019-0.24-0.071-0.332-0.166c-0.139-0.145-0.189-0.341-0.154-0.587c0.035-0.243,0.219-0.524,0.547-0.843
		c0.279-0.269,0.553-0.417,0.824-0.44c0.27-0.024,0.526,0.057,0.768,0.241l0.607-0.771c-0.31-0.23-0.601-0.368-0.879-0.417
		c-0.279-0.048-0.587,0.002-0.93,0.148c-0.346,0.148-0.684,0.379-1.014,0.699c-0.221,0.213-0.399,0.442-0.537,0.686
		c-0.137,0.242-0.219,0.461-0.254,0.649c-0.043,0.249-0.034,0.494,0.035,0.739c0.067,0.244,0.193,0.461,0.375,0.649
		c0.201,0.207,0.436,0.346,0.705,0.414c0.27,0.07,0.555,0.057,0.853-0.044c0.296-0.097,0.771-0.334,1.426-0.709
		c0.483-0.277,0.806-0.435,0.966-0.465c0.23-0.043,0.424,0.017,0.581,0.179c0.173,0.18,0.244,0.414,0.218,0.702
		c-0.031,0.287-0.211,0.591-0.539,0.909c-0.328,0.317-0.654,0.487-0.98,0.508c-0.329,0.023-0.652-0.086-0.965-0.332l-0.6,0.797
		c0.51,0.373,1.02,0.535,1.528,0.482c0.509-0.051,1.037-0.342,1.589-0.873c0.33-0.322,0.574-0.667,0.725-1.035
		c0.15-0.369,0.195-0.726,0.132-1.07C225.387,64.641,225.24,64.348,225.01,64.109z"/>
	<path fill="#3E183A" d="M228.658,58.761c-0.648-0.672-1.34-1.02-2.076-1.043c-0.737-0.026-1.396,0.241-1.979,0.804
		c-0.521,0.505-0.813,1.09-0.873,1.755c-0.074,0.797,0.269,1.587,1.023,2.369c0.691,0.716,1.4,1.086,2.133,1.11
		c0.734,0.028,1.395-0.244,1.984-0.816c0.369-0.356,0.627-0.77,0.773-1.244c0.145-0.473,0.148-0.945,0.01-1.415
		C229.515,59.812,229.183,59.306,228.658,58.761z M228.302,62.351c-0.357,0.348-0.785,0.498-1.283,0.456
		c-0.496-0.04-1.006-0.33-1.527-0.872s-0.797-1.06-0.818-1.557c-0.021-0.495,0.146-0.918,0.502-1.263
		c0.354-0.343,0.777-0.492,1.275-0.453s0.998,0.323,1.504,0.846c0.535,0.555,0.818,1.082,0.843,1.579
		C228.822,61.587,228.658,62.009,228.302,62.351z"/>
	<path fill="#3E183A" d="M240.328,48.348c-0.25-0.23-0.512-0.367-0.787-0.407c-0.273-0.041-0.551,0-0.83,0.124
		c-0.279,0.12-0.725,0.376-1.344,0.762c-0.43,0.266-0.689,0.423-0.785,0.471c-0.17,0.078-0.32,0.111-0.455,0.097
		c-0.132-0.011-0.243-0.06-0.339-0.146c-0.148-0.139-0.21-0.332-0.188-0.578c0.022-0.246,0.19-0.536,0.504-0.871
		c0.262-0.283,0.529-0.445,0.799-0.484c0.267-0.037,0.526,0.03,0.781,0.202l0.563-0.804c-0.32-0.213-0.617-0.335-0.897-0.37
		c-0.281-0.032-0.587,0.032-0.922,0.198c-0.335,0.164-0.662,0.413-0.976,0.751c-0.207,0.224-0.374,0.46-0.5,0.711
		c-0.123,0.249-0.196,0.47-0.218,0.661c-0.035,0.251-0.01,0.497,0.071,0.738c0.082,0.24,0.218,0.448,0.409,0.628
		c0.21,0.194,0.453,0.319,0.725,0.377c0.275,0.055,0.56,0.026,0.849-0.09c0.291-0.112,0.754-0.376,1.387-0.782
		c0.47-0.305,0.783-0.477,0.938-0.516c0.231-0.056,0.427-0.007,0.593,0.148c0.182,0.169,0.267,0.401,0.252,0.688
		c-0.013,0.288-0.177,0.603-0.49,0.936c-0.31,0.334-0.629,0.52-0.952,0.561c-0.328,0.041-0.654-0.053-0.979-0.281l-0.558,0.824
		c0.528,0.346,1.047,0.479,1.553,0.405c0.506-0.076,1.019-0.393,1.539-0.953c0.316-0.336,0.539-0.693,0.67-1.068
		c0.133-0.376,0.156-0.736,0.076-1.078C240.73,48.859,240.57,48.575,240.328,48.348z"/>
	
		<rect x="245.963" y="42.25" transform="matrix(-0.7549 -0.6559 0.6559 -0.7549 404.5441 236.8335)" fill="#3E183A" width="1.135" height="1.135"/>
	
		<rect x="232.064" y="51.857" transform="matrix(-0.7314 -0.682 0.682 -0.7314 371.1643 250.9189)" fill="#3E183A" width="5.877" height="0.998"/>
	<path fill="#3E183A" d="M243.338,42.732c-0.704-0.611-1.422-0.898-2.158-0.857c-0.737,0.037-1.37,0.363-1.901,0.974
		c-0.477,0.548-0.713,1.156-0.717,1.823c-0.002,0.8,0.407,1.557,1.229,2.271c0.749,0.652,1.488,0.96,2.219,0.922
		c0.732-0.036,1.367-0.365,1.906-0.985c0.338-0.389,0.557-0.822,0.66-1.308c0.104-0.484,0.066-0.954-0.112-1.41
		C244.285,43.706,243.911,43.229,243.338,42.732z M243.299,46.342c-0.325,0.374-0.739,0.564-1.237,0.565
		c-0.498,0.003-1.031-0.243-1.6-0.736s-0.885-0.987-0.951-1.479c-0.063-0.492,0.067-0.927,0.393-1.303
		c0.322-0.37,0.732-0.558,1.23-0.561c0.5-0.005,1.023,0.232,1.572,0.711c0.582,0.506,0.908,1.006,0.979,1.499
		C243.751,45.534,243.624,45.968,243.299,46.342z"/>
	<path fill="#3E183A" d="M229.287,56.293c-0.116-0.215-0.163-0.429-0.137-0.647c0.027-0.215,0.115-0.4,0.267-0.558
		c0.171-0.176,0.392-0.301,0.663-0.375l-0.428-0.89c-0.394,0.102-0.709,0.271-0.941,0.512c-0.161,0.168-0.262,0.37-0.3,0.599
		c-0.039,0.232,0.011,0.576,0.151,1.029l-0.641-0.617l-0.622,0.645l4.228,4.082l0.692-0.716l-2.214-2.138
		C229.704,56.926,229.462,56.617,229.287,56.293z"/>
	<path fill="#3E183A" d="M231.927,53.571c-0.115-0.216-0.162-0.429-0.136-0.646c0.026-0.216,0.114-0.401,0.267-0.559
		c0.17-0.176,0.391-0.302,0.662-0.373l-0.426-0.892c-0.395,0.103-0.71,0.273-0.943,0.515c-0.16,0.168-0.26,0.368-0.299,0.599
		c-0.041,0.232,0.01,0.576,0.151,1.029l-0.642-0.619l-0.621,0.646l4.227,4.082l0.693-0.719l-2.213-2.136
		C232.344,54.205,232.103,53.896,231.927,53.571z"/>
	
		<rect x="231.063" y="48.72" transform="matrix(0.7297 0.6837 -0.6837 0.7297 96.2512 -145.0709)" fill="#3E183A" width="1.146" height="0.998"/>
	
		<rect x="109.873" y="125.013" transform="matrix(-0.2251 -0.9743 0.9743 -0.2251 17.2863 264.7679)" fill="#3E183A" width="8.113" height="0.994"/>
	<path fill="#3E183A" d="M138.38,113.411l1.045,2.719c-0.249-0.162-0.527-0.264-0.841-0.303c-0.312-0.041-0.633,0.002-0.962,0.127
		c-0.451,0.176-0.814,0.451-1.09,0.83c-0.274,0.377-0.416,0.824-0.428,1.338c-0.011,0.518,0.088,1.051,0.299,1.598
		c0.216,0.563,0.507,1.02,0.873,1.375c0.369,0.355,0.783,0.584,1.24,0.686c0.461,0.098,0.908,0.064,1.346-0.105
		c0.676-0.26,1.082-0.727,1.221-1.406l0.268,0.695l0.862-0.334l-2.907-7.574L138.38,113.411z M140.344,118.294
		c0.263,0.684,0.315,1.248,0.158,1.686c-0.156,0.443-0.438,0.742-0.845,0.896c-0.403,0.156-0.82,0.115-1.25-0.119
		c-0.43-0.232-0.778-0.701-1.049-1.402c-0.278-0.729-0.344-1.313-0.194-1.758c0.147-0.441,0.428-0.746,0.841-0.902
		c0.424-0.162,0.848-0.125,1.271,0.115C139.701,117.052,140.056,117.544,140.344,118.294z"/>
	<path fill="#3E183A" d="M112.05,125.589c-0.282-0.426-0.633-0.725-1.063-0.908c-0.426-0.178-0.883-0.223-1.377-0.125
		c-0.377,0.072-0.683,0.211-0.918,0.408c-0.236,0.197-0.431,0.463-0.584,0.799l-0.145-0.752l-0.891,0.176l1.552,7.979l0.978-0.191
		l-0.546-2.807c0.209,0.176,0.453,0.311,0.74,0.398c0.286,0.084,0.59,0.098,0.916,0.033c0.444-0.088,0.845-0.295,1.199-0.623
		c0.358-0.332,0.594-0.752,0.715-1.27c0.12-0.514,0.122-1.064,0.008-1.652C112.526,126.501,112.332,126.013,112.05,125.589z
		 M111.5,129.04c-0.239,0.43-0.576,0.686-1.01,0.77c-0.426,0.082-0.826-0.023-1.195-0.318c-0.371-0.301-0.627-0.818-0.771-1.561
		s-0.095-1.34,0.152-1.791c0.244-0.451,0.576-0.719,0.993-0.799c0.418-0.082,0.815,0.031,1.189,0.338
		c0.373,0.307,0.631,0.826,0.774,1.563C111.782,128.013,111.738,128.611,111.5,129.04z"/>
	<path fill="#3E183A" d="M145.615,113.531c-0.68-0.287-1.391-0.271-2.137,0.045c-0.668,0.283-1.149,0.725-1.445,1.32
		c-0.354,0.723-0.316,1.58,0.109,2.582c0.387,0.914,0.918,1.516,1.592,1.803s1.389,0.268,2.146-0.053
		c0.474-0.199,0.86-0.494,1.167-0.885c0.305-0.389,0.479-0.828,0.518-1.316c0.039-0.484-0.088-1.08-0.387-1.775
		C146.814,114.392,146.294,113.82,145.615,113.531z M146.474,117.474c-0.156,0.473-0.461,0.809-0.916,1.002
		c-0.457,0.195-0.91,0.184-1.361-0.035c-0.447-0.215-0.819-0.67-1.112-1.361s-0.362-1.275-0.208-1.748
		c0.156-0.469,0.464-0.801,0.921-1c0.454-0.191,0.903-0.178,1.354,0.039c0.451,0.213,0.818,0.658,1.104,1.328
		C146.555,116.406,146.627,116.997,146.474,117.474z"/>
	
		<rect x="92.055" y="128.474" transform="matrix(-0.139 -0.9903 0.9903 -0.139 -18.2856 242.1239)" fill="#3E183A" width="8.114" height="1.073"/>
	<path fill="#3E183A" d="M105.523,126.181c-0.357-0.275-0.822-0.375-1.4-0.295c-0.736,0.104-1.288,0.529-1.654,1.271
		c-0.156-0.307-0.386-0.525-0.689-0.666c-0.301-0.143-0.667-0.184-1.096-0.123c-0.388,0.057-0.721,0.191-1,0.406
		c-0.279,0.217-0.49,0.48-0.633,0.789l-0.115-0.813l-0.881,0.121l0.817,5.822l0.989-0.139l-0.425-3.02
		c-0.076-0.529-0.08-0.941-0.013-1.24c0.065-0.295,0.209-0.533,0.423-0.711c0.215-0.182,0.461-0.289,0.738-0.328
		c0.366-0.051,0.644,0.021,0.835,0.219c0.193,0.193,0.318,0.514,0.381,0.953l0.53,3.779l0.985-0.137l-0.475-3.385
		c-0.083-0.598-0.007-1.051,0.223-1.361c0.234-0.311,0.553-0.494,0.963-0.553c0.225-0.033,0.43-0.006,0.614,0.076
		c0.181,0.08,0.316,0.207,0.407,0.369c0.088,0.166,0.16,0.445,0.215,0.84l0.516,3.664l0.98-0.137l-0.562-3.994
		C106.103,126.927,105.877,126.456,105.523,126.181z"/>
	<path fill="#3E183A" d="M126.124,121.673c-0.135-0.258-0.301-0.463-0.501-0.621c-0.199-0.158-0.457-0.26-0.78-0.301
		c-0.319-0.039-0.648-0.012-0.989,0.088c-0.783,0.223-1.294,0.705-1.532,1.447l-0.229-0.805l-0.861,0.246l1.619,5.648l0.958-0.271
		l-0.885-3.086c-0.208-0.725-0.201-1.256,0.021-1.602c0.222-0.344,0.536-0.576,0.945-0.691c0.255-0.072,0.493-0.08,0.719-0.02
		c0.22,0.063,0.397,0.18,0.526,0.348c0.131,0.176,0.25,0.457,0.361,0.846l0.985,3.438l0.959-0.275l-0.995-3.475
		C126.317,122.146,126.209,121.843,126.124,121.673z"/>
	<path fill="#3E183A" d="M120.864,125.532l-0.299-1.293c-0.099-0.432-0.186-0.725-0.254-0.885c-0.121-0.254-0.271-0.447-0.454-0.592
		c-0.186-0.141-0.445-0.232-0.777-0.279c-0.332-0.039-0.741-0.008-1.231,0.104c-0.491,0.113-0.908,0.283-1.251,0.502
		c-0.343,0.221-0.584,0.482-0.726,0.777c-0.137,0.293-0.203,0.652-0.197,1.08l0.978-0.088c0.013-0.434,0.106-0.752,0.286-0.963
		c0.183-0.209,0.5-0.365,0.957-0.473c0.49-0.113,0.884-0.09,1.182,0.076c0.219,0.115,0.376,0.375,0.469,0.77
		c0.008,0.035,0.027,0.123,0.051,0.254c-0.338,0.217-0.89,0.461-1.653,0.736c-0.373,0.135-0.648,0.25-0.827,0.344
		c-0.244,0.131-0.451,0.291-0.627,0.48c-0.174,0.188-0.297,0.41-0.373,0.674c-0.074,0.26-0.078,0.533-0.012,0.813
		c0.109,0.475,0.369,0.832,0.776,1.061c0.412,0.229,0.928,0.27,1.558,0.125c0.381-0.086,0.722-0.232,1.027-0.434
		c0.304-0.205,0.6-0.5,0.89-0.889c0.09,0.264,0.209,0.486,0.354,0.66l1.014-0.23c-0.172-0.191-0.308-0.404-0.404-0.633
		C121.225,127.001,121.072,126.437,120.864,125.532z M119.923,126.646c-0.07,0.314-0.233,0.592-0.487,0.822
		c-0.252,0.229-0.566,0.389-0.941,0.473c-0.376,0.088-0.683,0.068-0.918-0.061c-0.234-0.125-0.384-0.318-0.444-0.578
		c-0.038-0.17-0.029-0.332,0.031-0.492c0.055-0.16,0.161-0.295,0.309-0.402c0.148-0.111,0.415-0.24,0.802-0.391
		c0.68-0.262,1.18-0.506,1.499-0.732l0.082,0.357C119.955,126.068,119.979,126.404,119.923,126.646z"/>
	<path fill="#3E183A" d="M134.381,118.099c-0.651-0.348-1.36-0.395-2.13-0.145c-0.691,0.221-1.209,0.623-1.557,1.189
		c-0.414,0.686-0.451,1.547-0.116,2.582c0.309,0.945,0.782,1.588,1.43,1.934c0.647,0.348,1.36,0.393,2.142,0.139
		c0.488-0.16,0.9-0.42,1.24-0.779c0.338-0.365,0.547-0.789,0.629-1.27c0.082-0.484,0.006-1.08-0.229-1.801
		C135.501,119.058,135.035,118.445,134.381,118.099z M134.898,122.099c-0.196,0.459-0.529,0.768-1,0.918
		c-0.474,0.154-0.924,0.104-1.354-0.15c-0.428-0.254-0.759-0.738-0.99-1.457c-0.234-0.713-0.251-1.301-0.052-1.758
		c0.196-0.453,0.532-0.762,1.005-0.914c0.467-0.15,0.915-0.102,1.344,0.152c0.432,0.254,0.758,0.729,0.982,1.42
		C135.072,121.042,135.091,121.64,134.898,122.099z"/>
	<path fill="#3E183A" d="M130.31,124.197c-0.14,0.043-0.256,0.055-0.347,0.033s-0.164-0.066-0.223-0.133
		c-0.058-0.064-0.132-0.232-0.219-0.504l-1.063-3.268l0.952-0.311l-0.237-0.734l-0.953,0.309l-0.636-1.953l-0.758,0.873l0.451,1.385
		l-0.695,0.229l0.237,0.734l0.696-0.225l1.046,3.215c0.183,0.566,0.344,0.93,0.479,1.08c0.135,0.154,0.313,0.254,0.538,0.297
		c0.226,0.049,0.509,0.016,0.854-0.096c0.209-0.066,0.439-0.172,0.688-0.316l-0.409-0.793
		C130.547,124.101,130.413,124.159,130.31,124.197z"/>
	<path fill="#3E183A" d="M163.419,108.156l-0.604-1.182c-0.201-0.395-0.354-0.66-0.461-0.795c-0.179-0.217-0.369-0.373-0.582-0.465
		c-0.218-0.094-0.487-0.119-0.821-0.084c-0.332,0.037-0.722,0.168-1.169,0.398c-0.45,0.227-0.816,0.49-1.094,0.787
		c-0.281,0.299-0.453,0.609-0.517,0.928c-0.065,0.32-0.041,0.689,0.069,1.1l0.927-0.322c-0.092-0.42-0.078-0.754,0.046-1.002
		c0.125-0.248,0.395-0.479,0.814-0.688c0.445-0.23,0.834-0.301,1.162-0.217c0.242,0.063,0.459,0.275,0.642,0.637
		c0.017,0.031,0.054,0.111,0.112,0.232c-0.277,0.291-0.754,0.662-1.426,1.113c-0.332,0.223-0.572,0.4-0.722,0.535
		c-0.204,0.184-0.366,0.391-0.492,0.617c-0.122,0.221-0.188,0.471-0.196,0.742s0.054,0.535,0.184,0.793
		c0.223,0.436,0.561,0.717,1.012,0.842c0.452,0.123,0.967,0.039,1.541-0.256c0.348-0.18,0.646-0.4,0.893-0.67
		c0.244-0.27,0.459-0.631,0.647-1.076c0.15,0.232,0.321,0.418,0.505,0.557l0.928-0.473c-0.213-0.146-0.396-0.314-0.545-0.516
		C164.125,109.497,163.839,108.982,163.419,108.156z M162.501,110.378c-0.191,0.285-0.457,0.514-0.799,0.689
		c-0.344,0.176-0.648,0.229-0.905,0.162c-0.259-0.064-0.451-0.217-0.571-0.453c-0.08-0.154-0.109-0.316-0.09-0.486
		c0.014-0.168,0.085-0.322,0.202-0.467c0.117-0.141,0.347-0.332,0.685-0.57c0.596-0.418,1.021-0.775,1.276-1.074l0.167,0.326
		c0.198,0.393,0.301,0.711,0.307,0.959C162.783,109.786,162.689,110.093,162.501,110.378z"/>
	<path fill="#3E183A" d="M179.269,99.591c0.086,0.438,0.07,0.807-0.057,1.1c-0.122,0.301-0.338,0.543-0.65,0.73
		c-0.422,0.254-0.858,0.316-1.32,0.191c-0.456-0.123-0.868-0.455-1.231-0.99l3.757-2.256c-0.057-0.104-0.103-0.178-0.134-0.23
		c-0.498-0.83-1.101-1.348-1.803-1.551c-0.7-0.201-1.39-0.102-2.063,0.303c-0.695,0.42-1.119,0.994-1.275,1.725
		c-0.156,0.729,0.021,1.518,0.531,2.367c0.492,0.818,1.09,1.326,1.795,1.521c0.703,0.193,1.426,0.068,2.16-0.373
		c0.586-0.354,0.981-0.783,1.188-1.295c0.204-0.51,0.221-1.064,0.051-1.662L179.269,99.591z M175.637,99.894
		c-0.235-0.457-0.3-0.896-0.19-1.318c0.109-0.424,0.361-0.752,0.754-0.986c0.433-0.26,0.884-0.307,1.354-0.145
		c0.305,0.105,0.604,0.359,0.895,0.762L175.637,99.894z"/>
	<path fill="#3E183A" d="M171.316,104.462c0.074,0.441,0.041,0.807-0.09,1.1c-0.135,0.295-0.361,0.529-0.68,0.705
		c-0.428,0.238-0.869,0.285-1.322,0.145c-0.453-0.137-0.854-0.482-1.199-1.031l3.834-2.123c-0.054-0.105-0.096-0.184-0.125-0.238
		c-0.469-0.844-1.053-1.383-1.748-1.609c-0.693-0.227-1.385-0.15-2.073,0.23c-0.709,0.395-1.152,0.953-1.334,1.678
		c-0.181,0.725-0.032,1.52,0.446,2.385c0.465,0.836,1.045,1.361,1.742,1.582c0.695,0.219,1.42,0.119,2.172-0.299
		c0.598-0.328,1.006-0.744,1.231-1.25c0.22-0.504,0.258-1.057,0.108-1.662L171.316,104.462z M167.677,104.64
		c-0.22-0.467-0.27-0.908-0.145-1.324c0.125-0.42,0.39-0.74,0.789-0.963c0.438-0.244,0.894-0.275,1.356-0.094
		c0.3,0.113,0.591,0.379,0.868,0.789L167.677,104.64z"/>
	<path fill="#3E183A" d="M184.334,95.616c-0.258-0.105-0.537-0.135-0.836-0.08c-0.3,0.049-0.794,0.189-1.486,0.416
		c-0.481,0.152-0.774,0.242-0.877,0.266c-0.187,0.035-0.339,0.029-0.466-0.016c-0.124-0.043-0.223-0.117-0.293-0.227
		c-0.111-0.168-0.125-0.373-0.042-0.605c0.08-0.234,0.313-0.475,0.696-0.727c0.326-0.209,0.623-0.299,0.894-0.271
		c0.271,0.025,0.506,0.152,0.708,0.383l0.744-0.643c-0.26-0.285-0.518-0.475-0.783-0.576c-0.261-0.1-0.574-0.109-0.941-0.031
		c-0.362,0.078-0.74,0.242-1.127,0.492c-0.258,0.17-0.477,0.355-0.658,0.568c-0.178,0.215-0.305,0.41-0.371,0.59
		c-0.092,0.234-0.129,0.479-0.107,0.732s0.102,0.488,0.244,0.711c0.156,0.238,0.361,0.42,0.613,0.539
		c0.251,0.123,0.533,0.16,0.843,0.119c0.31-0.037,0.822-0.182,1.535-0.424c0.528-0.18,0.874-0.271,1.037-0.271
		c0.235,0,0.413,0.096,0.536,0.285c0.138,0.209,0.162,0.453,0.078,0.73c-0.084,0.273-0.316,0.541-0.701,0.789
		c-0.381,0.246-0.735,0.35-1.061,0.313c-0.326-0.041-0.621-0.211-0.884-0.512l-0.739,0.668c0.43,0.463,0.899,0.717,1.41,0.766
		c0.508,0.049,1.082-0.135,1.723-0.553c0.389-0.25,0.69-0.541,0.908-0.873c0.221-0.336,0.329-0.676,0.334-1.027
		c0.002-0.354-0.086-0.668-0.268-0.945C184.814,95.917,184.591,95.722,184.334,95.616z"/>
	<path fill="#3E183A" d="M187.93,95.257c-0.124,0.078-0.231,0.119-0.323,0.123c-0.095,0.004-0.177-0.018-0.252-0.068
		c-0.072-0.051-0.185-0.191-0.342-0.434l-1.869-2.881l0.84-0.545l-0.424-0.648l-0.838,0.545l-1.119-1.723l-0.504,1.043l0.791,1.221
		l-0.613,0.398l0.424,0.646l0.611-0.396l1.84,2.836c0.326,0.5,0.576,0.809,0.744,0.918c0.172,0.111,0.371,0.162,0.598,0.148
		c0.232-0.012,0.496-0.115,0.802-0.313c0.187-0.121,0.38-0.281,0.582-0.484l-0.601-0.658
		C188.14,95.105,188.025,95.197,187.93,95.257z"/>
	
		<rect x="154.293" y="110.18" transform="matrix(-0.4227 -0.9063 0.9063 -0.4227 123.3936 299.9565)" fill="#3E183A" width="5.877" height="0.995"/>
	<path fill="#3E183A" d="M156.42,113.409c-0.134,0.061-0.246,0.088-0.339,0.078c-0.092-0.01-0.17-0.045-0.237-0.104
		c-0.065-0.061-0.157-0.217-0.276-0.475l-1.453-3.117l0.908-0.422l-0.328-0.701l-0.906,0.422l-0.868-1.861l-0.646,0.963l0.615,1.318
		l-0.662,0.311l0.326,0.701l0.662-0.311l1.43,3.068c0.252,0.537,0.455,0.877,0.606,1.012c0.153,0.133,0.344,0.211,0.571,0.23
		c0.231,0.02,0.509-0.047,0.836-0.199c0.201-0.094,0.417-0.229,0.646-0.398l-0.503-0.74
		C156.65,113.288,156.523,113.363,156.42,113.409z"/>
	
		<rect x="154.713" y="106.011" transform="matrix(0.4225 0.9064 -0.9064 0.4225 186.211 -79.2371)" fill="#3E183A" width="1.146" height="0.997"/>
	<path fill="#3E183A" d="M151.814,111.486c-0.176-0.229-0.369-0.41-0.592-0.533c-0.222-0.125-0.492-0.186-0.816-0.174
		c-0.323,0.012-0.646,0.09-0.965,0.24c-0.739,0.344-1.168,0.898-1.287,1.668l-0.353-0.758l-0.812,0.379l2.481,5.326l0.903-0.42
		l-1.354-2.91c-0.32-0.684-0.396-1.209-0.232-1.586c0.168-0.371,0.439-0.65,0.826-0.83c0.24-0.111,0.476-0.156,0.705-0.127
		c0.229,0.025,0.424,0.109,0.576,0.26c0.155,0.15,0.318,0.41,0.489,0.777l1.511,3.238l0.904-0.42l-1.527-3.277
		C152.079,111.923,151.925,111.638,151.814,111.486z"/>
</g>
</svg>
