<?xml version="1.0" encoding="utf-8"?>
<!-- Generator: Adobe Illustrator 23.0.1, SVG Export Plug-In . SVG Version: 6.00 Build 0)  -->
<svg version="1.1" id="Camada_1" xmlns="http://www.w3.org/2000/svg" xmlns:xlink="http://www.w3.org/1999/xlink" x="0px" y="0px"
	 viewBox="0 0 162 166" style="enable-background:new 0 0 162 166;" xml:space="preserve">
<style type="text/css">
	.st0{fill:#480E3F;}
</style>
<g>
	<path class="st0" d="M31.7,75.8c0,0,19.8,33,51.2,33c31.3,0,50.7-34.7,50.7-34.7S105,98,82.6,98C60.2,98,31.7,75.8,31.7,75.8z"/>
	<path class="st0" d="M82.6,66.8c9.9,0,50.9,2.4,50.9,2.4c-5.6,0-22.4-11.6-32.2-11.9s-18,6.6-18,6.6c-9.5-5.1-19.8-10.3-33.1-2.9
		S28.3,70,28.3,70C70.8,65.6,72.7,66.8,82.6,66.8z"/>
	<polygon class="st0" points="120.7,76.8 120.7,74.1 127.6,74.2 127.6,72.9 120.7,72.9 120.7,70.8 116.3,70.8 116.3,72.9 
		109.1,72.9 109.1,70.8 104.7,70.8 104.7,72.9 97,72.9 97,70.8 92.6,70.8 92.6,72.9 84.2,72.9 84.2,70.8 79.8,70.8 79.8,72.9 
		72.7,72.9 72.7,70.8 68.3,70.8 68.3,72.9 61.3,72.9 61.3,70.8 57,70.8 57,72.9 49,72.9 49,70.8 44.6,70.8 44.6,72.9 35,72.9 
		35,73.5 44.6,73.6 44.6,76.8 49,76.8 49,73.6 57,73.7 57,76.8 61.3,76.8 61.3,73.7 68.3,73.8 68.3,76.8 72.7,76.8 72.7,73.8 
		79.8,73.8 79.8,76.8 84.2,76.8 84.2,73.9 92.6,73.9 92.6,76.8 97,76.8 97,74 104.7,74 104.7,76.8 109.1,76.8 109.1,74.1 
		116.3,74.1 116.3,76.8 	"/>
	<path class="st0" d="M46.7,78.8c5.4,1,12.6,1.9,20.1,1.7c15.1-0.4,16.6-1,16.6-1S61.6,80.8,46.7,78.8z"/>
	<path class="st0" d="M46.7,78.8c-5.4-1-9-2-9-2C40.1,77.7,43.2,78.3,46.7,78.8z"/>
</g>
</svg>
