<?xml version="1.0" encoding="utf-8"?>
<!-- Generator: Adobe Illustrator 23.0.1, SVG Export Plug-In . SVG Version: 6.00 Build 0)  -->
<svg version="1.1" id="Camada_5" xmlns="http://www.w3.org/2000/svg" xmlns:xlink="http://www.w3.org/1999/xlink" x="0px" y="0px"
	 viewBox="0 0 162 166" style="enable-background:new 0 0 162 166;" xml:space="preserve">
<style type="text/css">
	.st0{fill:#480E3F;}
</style>
<path class="st0" d="M95.7,37.4c-6.3,0-13.3,3.8-13.3,3.8c-3.6,1.8-8.7-3.7-17-3.7S46.9,43.6,55,67.1c3.8,18.8,1.8,35.3,1.8,43.2
	c0,7.8,12.5,17.2,12.5,17.2c0-22.7,0.7-39.8,13-39.8S94,127.4,94,127.4c14.3-12.5,11.2-22.5,9.5-38.8s4-22.3,6-34.3
	S102.1,37.4,95.7,37.4z M92.5,66.2h-7v7h-8v-7h-6.9v-8h6.8v-6h0.1h8.1v6h6.9V66.2z"/>
</svg>
