<svg width="41" height="32" viewBox="0 0 41 32" fill="none" xmlns="http://www.w3.org/2000/svg">
<path d="M35.379 0C35.1964 0 35.0484 0.149251 35.0484 0.333333V1C35.0484 1.18408 35.1964 1.33333 35.379 1.33333C35.5616 1.33333 35.7097 1.18408 35.7097 1V0.333333C35.7097 0.149251 35.5616 0 35.379 0Z" fill="white"/>
<path fill-rule="evenodd" clip-rule="evenodd" d="M12.5645 16.6667H19.1774V21.3333H12.5645V16.6667ZM17.6932 18.1357C17.585 17.9874 17.3779 17.9558 17.2309 18.0649L15.4439 19.3919L15.1472 18.9771C15.0404 18.8278 14.8337 18.7941 14.6856 18.9018C14.5376 19.0095 14.5041 19.2178 14.6109 19.3671L15.1064 20.0597C15.2131 20.2089 15.4198 20.2427 15.5679 20.135C15.586 20.1218 15.6025 20.1071 15.6171 20.0913L17.6231 18.6017C17.7702 18.4926 17.8016 18.2839 17.6932 18.1357Z" fill="white"/>
<path fill-rule="evenodd" clip-rule="evenodd" d="M6.6129 0.666667H34.3871V1C34.3871 1.55229 34.8312 2 35.379 2C35.9268 2 36.371 1.55229 36.371 1V0.666667H41V32H0V0.666667H4.62903V1C4.62903 1.55229 5.07318 2 5.62097 2C6.16876 2 6.6129 1.55229 6.6129 1V0.666667ZM2.64516 14.6667V8.66667H10.5806V14.6667H2.64516ZM10.5806 22V16H2.64516V22H10.5806ZM2.64516 29.3333V23.3333H10.5806V29.3333H2.64516ZM19.8387 8.66667H11.9032V14.6667H19.8387V8.66667ZM11.9032 16H19.8387V22H11.9032V16ZM19.8387 23.3333H11.9032V29.3333H19.8387V23.3333ZM21.1613 8.66667H29.0968V14.6667H21.1613V8.66667ZM29.0968 16H21.1613V22H29.0968V16ZM21.1613 23.3333H29.0968V29.3333H21.1613V23.3333ZM30.4194 8.66667V14.6667H38.3548V8.66667H30.4194ZM38.3548 16V22H30.4194V16H38.3548ZM30.4194 23.3333V29.3333H38.3548V23.3333H30.4194ZM2.64516 3.33333H38.3548V6.66667H2.64516V3.33333Z" fill="white"/>
<path d="M5.29032 0.333333C5.29032 0.149251 5.43837 0 5.62097 0C5.80357 0 5.95161 0.149251 5.95161 0.333333V1C5.95161 1.18408 5.80357 1.33333 5.62097 1.33333C5.43837 1.33333 5.29032 1.18408 5.29032 1V0.333333Z" fill="white"/>
</svg>
