<svg width="41" height="41" viewBox="0 0 41 41" fill="none" xmlns="http://www.w3.org/2000/svg">
<path fill-rule="evenodd" clip-rule="evenodd" d="M21.2885 3.93027V0C31.7192 0.394741 40.1547 8.58838 40.9403 18.9219H37.0577V20.5H41C41 31.5658 32.2449 40.5853 21.2885 41V37.0697H19.7115V41C8.7551 40.5853 0 31.5658 0 20.5H3.94231V18.9219H0.059749C0.845265 8.58838 9.28082 0.394743 19.7115 1.41697e-07V3.93027H21.2885ZM21.7361 21.48L31.4458 35.1433L30.6784 35.6894L20.9576 22.0106C20.8128 22.0545 20.6592 22.0781 20.5 22.0781C19.6291 22.0781 18.9231 21.3715 18.9231 20.5C18.9231 19.9159 19.2402 19.4059 19.7115 19.133V4.71931H21.2885V19.133C21.7598 19.4059 22.0769 19.9159 22.0769 20.5C22.0769 20.8703 21.9495 21.2108 21.7361 21.48Z" fill="white"/>
</svg>
