<svg width="33" height="41" viewBox="0 0 33 41" fill="none" xmlns="http://www.w3.org/2000/svg">
<path d="M9.46154 9.46154H0L9.46154 0V9.46154Z" fill="white"/>
<path d="M13.8182 15.1663C13.8182 15.1663 13.0644 15.0499 13.0644 14.3516C13.0644 14.3516 13.0152 15.0333 12.4416 15.1497C12.4525 15.1552 12.4736 15.1588 12.5016 15.1637C12.6427 15.1883 12.9578 15.2431 12.9988 15.715C12.9988 15.8182 13.0051 15.8045 13.0364 15.7364C13.1059 15.5853 13.2984 15.1663 13.8182 15.1663Z" fill="white"/>
<path d="M12.4776 16.5187C12.5687 16.5287 12.7743 16.5512 12.8022 16.8622C12.8022 16.9297 12.8054 16.9226 12.8242 16.881C12.8657 16.7893 12.9833 16.5297 13.3102 16.5297C13.3102 16.5297 12.8349 16.4632 12.8349 16.0143C12.8349 16.0143 12.8022 16.4466 12.4416 16.5131C12.449 16.5156 12.4615 16.5169 12.4776 16.5187Z" fill="white"/>
<path d="M13.7722 16.1861C13.8634 16.1961 14.069 16.2187 14.0968 16.5297C14.0968 16.5972 14.1 16.5901 14.1189 16.5485C14.1604 16.4568 14.278 16.1972 14.6049 16.1972C14.6049 16.1972 14.1296 16.1306 14.1296 15.6817C14.1296 15.6817 14.0968 16.114 13.7363 16.1805C13.7437 16.183 13.7562 16.1844 13.7722 16.1861Z" fill="white"/>
<path fill-rule="evenodd" clip-rule="evenodd" d="M0 10.25V41H32.3269V0H10.25V10.25H0ZM16.0143 14.0357C16.0143 14.0357 17.1615 13.4038 18.1939 13.4038C19.2264 13.4038 20.7833 14.2352 20.4555 16.2304C20.3425 16.9181 20.1575 17.4873 19.975 18.0489C19.6279 19.1168 19.2896 20.1574 19.4722 21.9334C19.5024 22.2266 19.5352 22.5076 19.5668 22.7781C19.8274 25.0082 20.0053 26.5311 17.9153 28.3846C17.9153 28.3846 18.0137 21.7671 15.9979 21.7671C13.9821 21.7671 13.8674 24.6103 13.8674 28.3846C13.8674 28.3846 11.8189 26.8217 11.8189 25.5248C11.8189 25.2419 11.8341 24.8926 11.8517 24.4875C11.916 23.0117 12.0125 20.7946 11.5239 18.342C10.1964 14.4347 11.868 13.4205 13.2283 13.4205C13.9163 13.4205 14.4701 13.6544 14.9259 13.8469C15.3711 14.035 15.7227 14.1836 16.0143 14.0357Z" fill="white"/>
</svg>
