<svg width="42" height="42" viewBox="-0.5 20.7 42 42" xml:space="preserve" xmlns:xlink="http://www.w3.org/1999/xlink" xmlns="http://www.w3.org/2000/svg"><defs><linearGradient id="b"><stop style="stop-color:#340e70;stop-opacity:1" offset="0"/><stop style="stop-color:#0089e1;stop-opacity:1" offset="1"/></linearGradient><linearGradient xlink:href="#b" id="c" x1="-62.6" y1="-107.5" x2="-67.1" y2="-78.9" gradientUnits="userSpaceOnUse" gradientTransform="translate(84.6 127)"/><path id="a" d="M108.7 20.7H150v41h-41.3z"/></defs><path style="fill:url(#c);stroke-width:2.97556;stroke-miterlimit:10" d="M-.5 20.7h41.3v41H-.5Z" transform="matrix(1.0158 0 0 1.02534 0 -.5)"/><path fill-rule="evenodd" clip-rule="evenodd" fill="#fff" d="M35.6 23.7v28.1h-2.4s-7.5-6.4-14.6-6.4c-7.3-.1-14.2 6.4-14.2 6.4H-.5v3.5l42-.5v-3H40V38h1.5v-.5H40v-1h1.5V36H40V23.7"/><path style="fill:#00a743;stroke-width:.573;stroke-miterlimit:10" d="M0 34v8h42v-8H0z" transform="translate(-.5 20.7)"/><path fill="none" d="M-109.2 20.7h150v41h-150z"/></svg>
