<svg width="131" height="67" viewBox="0 0 131 67" fill="none" xmlns="http://www.w3.org/2000/svg">
<g clip-path="url(#clip0_4_4)">
<path d="M45.2964 28.7148C44.8714 28.1935 44.3345 27.9304 43.6931 27.9219C42.0777 27.9344 40.8347 28.3404 39.9652 29.1433C39.0962 29.9467 38.5204 30.9666 38.2418 32.204C37.9592 33.4414 37.8376 34.8512 37.8704 36.4389C37.9067 37.4999 38.048 38.3243 38.2917 38.9037C38.541 39.4831 38.8761 39.8925 39.2995 40.1361C39.7235 40.3807 40.2665 40.5415 40.9235 40.6273L41.4181 40.6333C42.7347 40.6508 43.7895 40.315 44.5843 39.6309C45.3756 38.9458 45.9297 38.0362 46.2456 36.902C46.558 35.7683 46.6933 34.5029 46.6448 33.0996C46.5954 32.2586 46.4636 31.4472 46.2557 30.6679C46.0473 29.884 45.7263 29.232 45.2964 28.7148ZM44.3491 38.173C43.9535 39.2721 43.2439 39.8173 42.221 39.8048C41.5604 39.7482 41.0583 39.4986 40.7101 39.051C40.3649 38.6065 40.1393 38.0793 40.0323 37.4733C39.9248 36.8704 39.8582 36.1477 39.8294 35.3158C39.8264 34.4848 39.8819 33.5732 39.996 32.5763C40.1095 31.5845 40.3311 30.7085 40.6651 29.9547C40.9947 29.2004 41.4489 28.8145 42.0247 28.7919C42.9694 28.804 43.6663 29.3172 44.1124 30.325C44.5581 31.3369 44.8063 32.5002 44.8508 33.8178L44.8634 34.1821C44.9159 35.7408 44.7448 37.0699 44.3491 38.173Z" fill="#3E183A"/>
<path d="M31.2084 27.8999C30.677 28.4446 30.4302 29.2129 30.4635 30.2023C30.5488 31.3444 31.0959 32.3969 32.1021 33.3647L33.4768 34.576C34.0042 35.0261 34.3953 35.4441 34.6562 35.829C34.9171 36.2164 35.0584 36.6795 35.0766 37.2177C35.0998 37.8968 34.8868 38.3925 34.4352 38.7047C33.984 39.021 33.4304 39.1267 32.7733 39.024C32.3676 38.9513 31.9891 38.7919 31.6369 38.5373C31.2846 38.2827 31 37.95 30.785 37.539C30.5705 37.1325 30.4539 36.6815 30.4373 36.1863C30.4514 35.8701 30.4655 35.5548 30.4766 35.2426C30.4908 34.9264 30.5024 34.762 30.514 34.7434L29.7257 34.5184L29.5531 38.3369C29.7732 38.5113 30.1673 38.7448 30.731 39.0455C31.2982 39.3462 31.9689 39.5567 32.7451 39.678L32.7955 39.686C33.5969 39.8103 34.2898 39.7066 34.8687 39.3718C35.449 39.038 35.8871 38.5885 36.1737 38.0221C36.4649 37.4573 36.6011 36.914 36.584 36.4023C36.4977 35.2336 35.8997 34.1901 34.795 33.271L33.6222 32.2997C32.6103 31.4156 32.0587 30.4649 31.9644 29.4405C31.9513 29.0385 32.0885 28.6611 32.3711 28.3148C32.6537 27.9685 32.9964 27.8227 33.4011 27.8853C33.7675 27.9425 34.0597 28.1489 34.2737 28.5093C34.4871 28.8646 34.6052 29.2565 34.6199 29.679L34.6421 30.3661L35.4016 30.4844L35.3092 27.7756C35.3264 27.7781 35.1225 27.6994 34.6971 27.54C34.2767 27.3811 33.9128 27.2779 33.605 27.2298C32.5367 27.1341 31.7393 27.3581 31.2084 27.8999Z" fill="#3E183A"/>
<path d="M3.92722 10.063C4.27796 10.3712 4.54038 10.7912 4.71751 11.3264C4.89465 11.8617 5.01476 12.5794 5.08137 13.482L5.35388 22.5623C5.37861 23.2865 5.34177 23.7977 5.24387 24.0884C5.14597 24.3796 4.87598 24.333 4.43137 23.9451L3.63705 23.2474L3.66884 24.1902C4.80381 25.0176 5.79697 25.8044 6.6569 26.5572C7.57487 27.3611 8.38484 28.1364 9.08632 28.8832L9.05452 27.9355L8.00333 27.0158C7.46688 26.5457 7.10857 26.0245 6.92992 25.4511C6.75229 24.8768 6.64883 24.2202 6.62309 23.4735L6.2769 12.218C6.35764 12.2877 6.48583 12.3929 6.66447 12.5318C6.84262 12.6716 6.96626 12.7713 7.03338 12.83C7.92712 13.6133 8.59882 14.4708 9.04645 15.4045C9.49408 16.3342 9.73884 17.3807 9.7782 18.5414C9.81151 19.5217 9.69594 20.1702 9.43402 20.4794C9.17261 20.7877 8.63818 20.6353 7.83376 20.0128C7.73485 19.9266 7.63644 19.8575 7.53955 19.8049C7.24079 19.4861 7.00966 19.21 6.84716 18.9764L6.87744 19.876C7.30135 20.4449 7.68085 20.8769 8.01998 21.1736C8.07801 21.2247 8.13403 21.2903 8.18753 21.3665C9.19179 22.2215 9.94877 22.4295 10.464 21.99C10.9783 21.5505 11.2124 20.6744 11.167 19.3563C11.1433 18.6521 10.9863 17.8848 10.6906 17.0479C10.3999 16.2134 10.0174 15.4226 9.54 14.6653C9.06563 13.9145 8.55946 13.3031 8.02048 12.8305C7.89382 12.7197 7.72173 12.5859 7.50674 12.427C7.11412 12.1323 6.47422 11.6261 5.58905 10.9175C5.27112 10.6178 4.84418 10.2163 4.3037 9.70112C3.76271 9.18641 3.3827 8.82957 3.15762 8.61908L3.18639 9.46406L3.92722 10.063Z" fill="#3E183A"/>
<path d="M23.6189 37.0388C23.6148 36.9145 23.6951 36.468 23.8535 35.7027C24.0095 34.9314 24.2245 34.0864 24.4934 33.1617C24.7604 32.2335 25.0748 31.372 25.4336 30.5706C26.2335 28.8476 27.0293 28.1144 27.8186 28.375C27.9382 28.4141 28.0341 28.4497 28.1063 28.4862C28.1779 28.5233 28.2274 28.5514 28.2511 28.5679L28.1779 26.4179C28.1527 26.4013 28.1053 26.3733 28.0326 26.3362C27.9609 26.3001 27.865 26.264 27.7449 26.2249C27.3024 26.0791 26.9042 26.1668 26.5484 26.4926C26.3758 26.6374 26.1951 26.8815 26.0013 27.2233C25.8116 27.5656 25.6244 27.95 25.4376 28.379C25.2555 28.8035 25.0112 29.3979 24.7099 30.1547C24.4127 30.9129 24.2532 31.3149 24.231 31.3675L24.3264 25.0216C23.7344 25.1088 23.037 25.1364 22.2396 25.0923C21.4423 25.0537 20.7529 24.9439 20.1791 24.768L20.2135 25.7914L22.5596 26.059L22.3754 36.6289L23.6189 37.0388Z" fill="#3E183A"/>
<path d="M14.095 31.9995C14.5926 32.7122 15.2154 33.264 15.9617 33.6604C16.9943 34.2077 17.781 34.3189 18.323 33.9962C18.8645 33.6714 19.2127 33.2143 19.3722 32.625C19.5287 32.0366 19.6018 31.565 19.5902 31.2116L18.9059 30.743L18.9125 30.948C18.9306 31.4858 18.8342 31.9373 18.6248 32.3077C18.4179 32.6761 18.1247 32.9051 17.7497 32.9963C17.3723 33.0845 16.9595 33.0079 16.5138 32.7718C15.0584 31.9243 14.2404 30.1677 14.0713 27.5049C14.0976 26.9331 14.1172 26.6494 14.1248 26.6534C15.7089 27.2844 17.2148 27.7064 18.6334 27.9094C18.7782 27.1025 18.8423 26.4329 18.8237 25.8987C18.803 25.2767 18.7035 24.6788 18.5259 24.1075C18.3478 23.5351 18.0677 23.0064 17.6882 22.5247C17.3056 22.0401 16.8136 21.6412 16.2105 21.3214C15.5161 20.9781 14.9312 20.9029 14.4564 21.0954C13.9785 21.2853 13.603 21.6697 13.329 22.2526C13.0575 22.8325 12.8617 23.5131 12.7481 24.2944C12.6346 25.0767 12.5745 25.9448 12.5639 26.907C12.5952 27.8372 12.734 28.7438 12.9787 29.6199C13.225 30.495 13.5969 31.2913 14.095 31.9995ZM14.6411 22.9056C14.9681 21.9384 15.5 21.6427 16.2343 22.012C16.7293 22.2746 17.0513 22.6671 17.2093 23.1953C17.3667 23.7231 17.4555 24.3185 17.4787 24.9805C17.4974 25.5649 17.3874 26.0089 17.1497 26.3181C16.9125 26.6234 16.5628 26.7066 16.1096 26.5707L14.1854 25.8721C14.1854 25.8686 14.1808 25.8495 14.1758 25.8215C14.1682 25.7954 14.1561 25.7653 14.1374 25.7253C14.1465 24.8086 14.3115 23.8694 14.6411 22.9056Z" fill="#3E183A"/>
<path d="M92.8092 15.4576L92.8713 17.3C92.9884 20.7391 92.8733 23.9511 92.5241 26.9391L94.3787 25.621L94.8096 12.8245C92.9747 14.3621 91.5925 15.4125 90.6614 15.9754L90.6932 16.8925L92.8092 15.4576Z" fill="#3E183A"/>
<path d="M74.1742 28.3183C73.7286 29.667 73.5 30.8829 73.4824 31.9654C73.5434 33.7651 74.0557 34.5084 75.015 34.2007C75.6811 33.9541 76.3322 33.48 76.9615 32.7758C77.5923 32.0727 78.103 31.2863 78.5062 30.4168L80.5581 26.059L80.6026 27.3641C80.6283 28.1023 80.6242 28.7519 80.5889 29.3137C80.5475 29.8785 80.4537 30.7851 80.3083 32.0356C80.3159 32.2406 80.3477 32.3278 80.4163 32.3027C80.5168 32.2651 80.5849 32.2275 80.6162 32.1809C81.3701 31.4818 81.9172 30.9986 82.2639 30.7375C82.6055 30.4764 83.1995 30.098 84.0413 29.5964L83.7178 29.1242C83.3348 29.3302 82.9083 29.5958 82.4375 29.9296V29.9306C82.2472 30.0003 82.114 29.6435 82.0373 28.8606C82.0343 28.2863 82.0484 27.6768 82.0817 27.0253C82.114 26.3738 82.1902 25.0752 82.3078 23.1317C82.4259 21.1871 82.5112 19.657 82.5626 18.5484L80.7721 19.4189C80.6495 19.4636 80.488 19.4886 80.2957 19.4911C80.1045 19.4931 79.9298 19.5232 79.7785 19.5788C79.2667 19.7688 78.6531 20.307 77.9354 21.1951C77.2178 22.0822 76.5234 23.1557 75.8487 24.4117C75.1775 25.6661 74.6188 26.9652 74.1742 28.3183ZM78.4719 21.769C78.9831 21.0999 79.4222 20.6949 79.786 20.5606C79.8955 20.52 79.9889 20.511 80.0671 20.5346C80.4567 20.5676 80.6671 20.9561 80.6919 21.7038C80.7166 22.438 80.6606 23.0545 80.5243 23.5582C80.2967 24.546 79.9626 25.6411 79.5251 26.8404C79.0876 28.0397 78.589 29.1092 78.0268 30.0509C77.4696 30.9871 76.908 31.5705 76.3478 31.7945C75.664 32.0486 75.2668 31.6682 75.1518 30.6609C75.1851 30.5396 75.2032 30.4123 75.1977 30.2759C75.2229 29.3808 75.399 28.4005 75.7256 27.329C76.0526 26.2565 76.4669 25.2316 76.9589 24.2503C77.4545 23.2685 77.9561 22.4435 78.4719 21.769Z" fill="#3E183A"/>
<path d="M92.6593 10.2093C92.9116 10.3907 93.2013 10.4033 93.5318 10.2424C93.5409 10.2384 93.5485 10.2384 93.5616 10.2369C93.5727 10.2349 93.5823 10.2359 93.5823 10.2439C93.9729 10.0424 94.3019 9.70562 94.5679 9.23402C94.8293 8.76491 94.9555 8.30934 94.9393 7.86981C94.9267 7.46837 94.7713 7.17969 94.4745 7.00578C94.1788 6.83237 93.8432 6.83839 93.4723 7.01831C93.0842 7.20625 92.7769 7.53653 92.5478 8.01615C92.3237 8.48826 92.2152 8.94834 92.2298 9.38387C92.2667 9.75323 92.413 10.0289 92.6593 10.2093Z" fill="#3E183A"/>
<path d="M68.9839 36.4765C70.1804 35.3879 71.4203 34.6292 72.7007 34.2017L72.6704 33.3061L70.8254 34.0884L71.0736 23.052L69.6586 23.4735C68.7941 24.6878 68.0392 25.7964 67.3902 26.8043C66.7397 27.8127 66.1457 28.8205 65.5996 29.8324C65.0536 30.8483 64.5313 31.9308 64.0332 33.0825L64.6322 24.6868C63.4286 25.8561 62.0519 26.666 60.5092 27.126L60.542 28.1284L62.5293 27.0669L62.2856 38.1068L63.8551 37.6397C63.9509 36.5081 64.1483 35.4401 64.448 34.4367C64.7478 33.4293 65.1263 32.4721 65.5805 31.561C66.0301 30.6463 66.4666 29.858 66.8774 29.1919C67.2918 28.5218 68.0694 27.3075 69.2094 25.5458C69.3043 30.3697 69.0929 33.9501 68.566 36.2866L68.9839 36.4765Z" fill="#3E183A"/>
<path d="M109.887 0.756602L108.528 0.269958L105.764 4.3751L106.114 4.63221L109.887 0.756602Z" fill="#3E183A"/>
<path d="M105.605 19.0526C106.147 19.223 106.826 19.0841 107.64 18.6416C108.766 18.0287 109.626 17.2443 110.219 16.2871C110.813 15.3303 111.194 14.4578 111.369 13.6629C111.543 12.8736 111.625 12.2982 111.613 11.9444L110.866 12.2416L110.873 12.4466C110.892 12.9843 110.786 13.5637 110.555 14.1886C110.328 14.8076 110.006 15.3819 109.596 15.9052C109.183 16.4294 108.733 16.8218 108.246 17.087C106.658 17.8723 105.77 16.9817 105.593 14.4102C105.624 13.7847 105.646 13.469 105.654 13.4644C107.384 12.3062 109.028 11.0222 110.578 9.61039C110.739 8.60653 110.81 7.83673 110.793 7.30397C110.771 6.68101 110.665 6.17432 110.471 5.7834C110.28 5.39248 109.975 5.16295 109.562 5.09629C109.145 5.03214 108.609 5.17948 107.951 5.53833C107.193 5.97586 106.554 6.56674 106.035 7.30999C105.511 8.05524 105.1 8.88268 104.798 9.80335C104.499 10.7175 104.283 11.6482 104.156 12.5899C104.03 13.5316 103.962 14.5024 103.948 15.5148C103.98 16.4444 104.128 17.2283 104.394 17.8573C104.659 18.4857 105.063 18.8877 105.605 19.0526ZM106.23 8.98041C106.589 7.60368 107.172 6.68703 107.974 6.22895C108.513 5.93576 108.864 5.97585 109.035 6.34372C109.206 6.71008 109.301 7.2283 109.323 7.88985C109.342 8.47372 109.221 9.0616 108.96 9.6545C108.699 10.2439 108.317 10.73 107.822 11.1074L105.72 12.5834C105.72 12.5794 105.716 12.5648 105.711 12.5418C105.703 12.5257 105.69 12.5062 105.669 12.4871C105.681 11.5244 105.865 10.3602 106.23 8.98041Z" fill="#3E183A"/>
<path d="M97.9612 12.4581C97.8063 16.3041 97.7412 19.1152 97.7649 20.8924C97.7906 21.1605 97.8204 21.562 97.8558 22.0947C97.8901 22.624 97.9198 23.0299 97.9405 23.3005C98.102 23.3331 98.3882 23.3271 98.7924 23.293C99.1971 23.2599 99.6624 23.1026 100.19 22.8269C100.845 22.4836 101.416 22.0205 101.903 21.4352C102.392 20.8453 102.766 20.1802 103.019 19.436C103.272 18.6907 103.389 17.9309 103.363 17.1541L102.683 17.5094C102.713 18.367 102.563 19.1403 102.23 19.8314C101.898 20.5225 101.452 21.0377 100.899 21.3835C100.891 21.3886 100.879 21.3986 100.863 21.4111C100.843 21.4261 100.824 21.4532 100.8 21.4918C100.433 21.6662 100.165 21.6772 99.9909 21.5209C99.8178 21.369 99.7068 21.1009 99.6584 20.7325C99.6074 20.3586 99.5675 19.7978 99.5428 19.0511C99.4767 14.2488 99.4706 11.7765 99.511 11.6477L102.269 10.2308L102.281 9.15532L99.7199 10.5481L99.9102 7.45282L98.0869 8.87616L98.0309 11.4322L96.363 12.2536L96.4003 13.3537L97.9612 12.4581Z" fill="#3E183A"/>
<path d="M85.5083 30.2945C86.8568 29.1217 88.2839 28.175 89.7949 27.4473L89.7565 26.3472L87.4886 27.8287C87.4825 27.6533 87.4805 26.7321 87.4825 25.0602C87.4815 23.3933 87.4992 21.4758 87.53 19.3092C87.5653 17.1416 87.6238 15.1409 87.7117 13.3081C87.801 11.4758 87.9271 10.1036 88.0927 9.18992C88.3218 7.91844 88.5655 6.94415 88.8189 6.25954C89.0767 5.57744 89.3003 5.11886 89.488 4.8788C89.6783 4.63873 89.811 4.47485 89.8872 4.38514L89.8615 3.62585L87.1384 4.8372C86.9077 6.18737 86.717 7.38017 86.5676 8.41711C86.4182 9.45304 86.287 10.4338 86.1805 11.356C86.0771 12.2807 85.9807 13.2465 85.8969 14.2618C85.8187 15.2757 85.7369 16.446 85.6607 17.7796C85.6057 18.7739 85.5719 19.7723 85.5563 20.7837C85.5457 21.7935 85.5406 23.0249 85.5437 24.4748C85.5517 25.9262 85.5558 27.0504 85.5538 27.8518C85.5527 28.6546 85.5391 29.4666 85.5083 30.2945Z" fill="#3E183A"/>
<path d="M56.1429 39.6384C57.3616 38.7368 58.6233 38.173 59.9278 37.941L59.8965 37.0463L58.0192 37.5425L58.2786 26.6003L56.8383 26.8038C55.9577 27.8803 55.1896 28.8676 54.527 29.7718C53.8649 30.6759 53.2593 31.589 52.7037 32.5122C52.1475 33.4399 51.6151 34.4362 51.108 35.5072L51.7221 27.2458C50.4963 28.2256 49.0964 28.822 47.5249 29.0451L47.5587 30.0474L49.5814 29.2936L49.326 40.2388L50.9238 40.0128C51.0217 38.9017 51.2235 37.8693 51.5283 36.9185C51.8342 35.9623 52.2207 35.0677 52.683 34.2307C53.1407 33.3893 53.5858 32.6696 54.0037 32.0712C54.4266 31.4667 55.2179 30.3772 56.3801 28.7985C56.473 33.6113 56.2544 37.1401 55.7175 39.3858L56.1429 39.6384Z" fill="#3E183A"/>
<path d="M28.9788 47.3861C11.3901 43.2219 1.9848 33.3722 0.756972 17.8352C0.226074 21.2613 0.00402551 24.4533 0.059033 27.4232C-0.861963 82.6971 90.8985 63.9205 125.011 8.87417C124.841 9.03905 124.67 9.20194 124.5 9.36632C124.981 8.64112 125.455 7.9109 125.916 7.17267C99.3677 32.6971 69.4472 51.1344 28.9788 47.3861Z" fill="#3E183A"/>
<path d="M129.29 3.51658C125.511 0.149668 120.295 2.49117 114.873 5.64858C128.169 1.78852 130.213 7.98307 127.143 18.7494C130.323 12.7543 132.681 7.06491 129.29 3.51658Z" fill="#3E183A"/>
<path d="M42.1125 15.5208C42.3426 15.5228 42.4895 15.5333 42.5611 15.5518C42.7024 15.5769 42.7958 15.7333 42.8432 16.0255C42.8912 16.3186 42.924 16.697 42.9426 17.1636L43.1112 21.369C43.1359 21.994 42.924 22.3032 42.4723 22.2982L41.9 22.2907L41.9187 22.7618C42.4208 22.6996 42.9931 22.6726 43.6355 22.6816C44.2795 22.6891 44.8553 22.7302 45.3625 22.8039L45.3443 22.3603L44.7433 22.3528C44.4304 22.3488 44.226 22.1769 44.1311 21.8391C44.0372 21.5023 43.9787 21.0668 43.9575 20.533L43.8021 16.6825C43.7996 16.6148 43.7895 16.5647 43.7703 16.5296C43.7738 16.2129 43.8208 15.9743 43.9156 15.812C44.0125 15.6506 44.1982 15.5714 44.4707 15.5739L44.9956 15.5804L44.9759 15.0913C44.7513 15.1088 44.1886 15.1294 43.2843 15.1564C42.3532 15.1033 41.7925 15.0687 41.6083 15.0492L41.6275 15.5138L42.1125 15.5208Z" fill="#3E183A"/>
<path d="M34.2701 16.0656C34.2666 15.9899 34.2565 15.9257 34.2384 15.8741C34.2409 15.5779 34.2792 15.3669 34.3539 15.2381C34.4301 15.1093 34.6007 15.0562 34.8656 15.0782L37.129 15.2637L37.3379 20.4504C37.3445 20.9621 37.343 21.2883 37.3284 21.4262C37.3142 21.564 37.2405 21.6667 37.1073 21.7364C36.9731 21.8056 36.7293 21.8251 36.3756 21.796L35.8048 21.7484L35.8235 22.2185C36.747 22.2265 37.4081 22.2466 37.8037 22.2797C38.2806 22.3183 39.0119 22.4125 39.996 22.5598L39.9788 22.1188L39.5075 22.0802C39.1451 22.0506 38.8807 21.985 38.7136 21.8807C38.5461 21.7775 38.4371 21.6191 38.3821 21.4101C38.3261 21.1996 38.2907 20.8784 38.2736 20.4499L38.0697 15.3694L39.89 15.5188C40.1403 15.5388 40.322 15.5854 40.433 15.6576C40.543 15.7273 40.6152 15.8285 40.6429 15.9548C40.6737 16.0816 40.6949 16.2856 40.7055 16.5683L41.1491 16.6043L41.0815 14.9344C40.0601 14.9139 38.7939 14.8567 37.288 14.7625C35.8835 14.6177 34.7052 14.4748 33.7574 14.3345L33.823 16.0079L34.2701 16.0656Z" fill="#3E183A"/>
<path d="M46.1987 16.7757C46.1957 16.7005 46.1846 16.6374 46.1659 16.5893C46.1679 16.2906 46.2062 16.0736 46.2819 15.9352C46.3571 15.7969 46.5287 15.7227 46.7942 15.7122L49.0641 15.622L49.2725 20.8092C49.2801 21.3224 49.2786 21.6512 49.264 21.7905C49.2498 21.9308 49.1761 22.0446 49.0429 22.1298C48.9077 22.2155 48.6629 22.2651 48.3081 22.2791L47.7354 22.3017L47.7545 22.7703C48.6811 22.6656 49.3427 22.6059 49.7404 22.5909C50.2183 22.5718 50.951 22.5763 51.9376 22.6044L51.92 22.1634L51.4481 22.1824C51.0842 22.1964 50.8198 22.1624 50.6523 22.0787C50.4847 21.9935 50.3747 21.8486 50.3197 21.6452C50.2647 21.4412 50.2284 21.1224 50.2112 20.6944L50.0073 15.614L51.8332 15.5413C52.0835 15.5313 52.2662 15.5558 52.3767 15.6145C52.4877 15.6711 52.5594 15.7633 52.5871 15.8876C52.6184 16.0109 52.6396 16.2129 52.6502 16.4961L53.0948 16.4785L53.0282 14.8086C52.0037 14.9118 50.7345 15.0086 49.2246 15.0983C47.8161 15.1248 46.6342 15.1248 45.6829 15.0988L45.751 16.7732L46.1987 16.7757Z" fill="#3E183A"/>
<path d="M71.8175 18.7017C72.4266 18.9032 73.0978 18.8967 73.8306 18.6842C74.5427 18.4777 75.1881 18.1319 75.768 17.6463C76.3463 17.1596 76.8 16.5647 77.126 15.8616C77.4495 15.1584 77.5968 14.4026 77.5645 13.5902C77.5348 12.8605 77.3279 12.2325 76.9448 11.7043C76.5623 11.1766 76.0576 10.8172 75.4334 10.6213C74.8076 10.4263 74.1399 10.4313 73.4294 10.6373C72.9141 10.7942 72.4271 11.0327 71.9679 11.3585C71.5102 11.6828 71.1105 12.0702 70.7734 12.5182C70.4333 12.9673 70.1729 13.4619 69.9917 14.0007C69.8105 14.539 69.7308 15.0948 69.755 15.6641C69.7928 16.4089 69.9937 17.0509 70.3565 17.5921C70.7214 18.1309 71.2084 18.5013 71.8175 18.7017ZM70.9995 13.5436C71.2271 12.9893 71.5591 12.5092 71.9972 12.1017C72.4362 11.6943 72.9474 11.4051 73.5308 11.2357C73.9467 11.1144 74.3418 11.0989 74.7127 11.1876C75.0842 11.2788 75.4076 11.4497 75.6842 11.7023C75.9628 11.9519 76.1818 12.2666 76.3443 12.6405C76.5048 13.0139 76.5946 13.4238 76.6112 13.8649C76.6415 14.5956 76.5451 15.2511 76.3236 15.828C76.1005 16.4048 75.7765 16.8875 75.3476 17.2724C74.9201 17.6588 74.4241 17.942 73.8548 18.1239C73.8508 18.1249 73.8452 18.1299 73.8331 18.1344C73.821 18.1434 73.8044 18.154 73.7852 18.1695C73.2104 18.3284 72.6881 18.2938 72.2207 18.0683C71.7534 17.8432 71.384 17.4804 71.111 16.9812C70.8415 16.4785 70.6932 15.9172 70.6674 15.2947C70.6614 14.6823 70.7719 14.0974 70.9995 13.5436Z" fill="#3E183A"/>
<path d="M30.514 17.6723L31.4153 18.3013C32.2182 18.8381 32.6431 19.4425 32.6941 20.1191C32.7112 20.5441 32.5841 20.8638 32.3131 21.0828C32.0436 21.3004 31.706 21.379 31.3028 21.3174C30.8788 21.2532 30.52 21.0352 30.2203 20.6639C29.922 20.294 29.7631 19.8915 29.7454 19.4585L29.7252 18.9373L29.1807 18.8546C29.2488 19.249 29.2902 19.662 29.3079 20.095C29.3119 20.1963 29.3134 20.3416 29.3124 20.53C29.3119 20.7165 29.3134 20.8638 29.3174 20.9676C29.4411 21.0658 29.7161 21.2172 30.1471 21.4226C30.5781 21.6296 30.9591 21.7564 31.2932 21.8076C31.7953 21.8752 32.2051 21.8331 32.5255 21.6782C32.847 21.5239 33.0781 21.2883 33.222 20.9681C33.3658 20.6463 33.4279 20.2694 33.4107 19.8369C33.39 19.3322 33.2245 18.8286 32.9131 18.3259C32.6033 17.8257 32.1884 17.4142 31.6722 17.092L30.8874 16.5953C30.1986 16.1498 29.8428 15.613 29.8176 14.984C29.8176 14.6783 29.9316 14.4327 30.1607 14.2538C30.3898 14.0729 30.6623 14.0067 30.9818 14.0558C31.2578 14.0974 31.4738 14.2022 31.6358 14.3701C31.7968 14.537 31.9073 14.7174 31.9669 14.9154C32.0269 15.1118 32.0592 15.2907 32.0668 15.4546L32.0698 15.5559L32.5644 15.6305L32.5028 14.1004L32.2737 14.0649C32.2389 14.0413 32.1773 14.0208 32.0855 14.0072C31.5662 13.8298 31.2018 13.7246 30.9939 13.6925C30.624 13.6369 30.2965 13.6579 30.0108 13.7591C29.7237 13.8599 29.4951 14.0428 29.3285 14.3119C29.1595 14.5796 29.0727 14.9209 29.0646 15.3369C29.1014 16.2304 29.5834 17.0083 30.514 17.6723Z" fill="#3E183A"/>
<path d="M53.9674 15.1885C54.1904 15.1604 54.3529 15.1995 54.4548 15.3068C54.5583 15.413 54.6244 15.5724 54.6562 15.7824C54.688 15.9919 54.7117 16.3172 54.7294 16.7567L54.8359 19.4079C54.8606 20.0078 54.9585 20.503 55.1291 20.8904C55.2991 21.2763 55.5293 21.569 55.8154 21.7665C56.1025 21.9644 56.4326 22.0897 56.8055 22.1418C57.1775 22.196 57.5999 22.2 58.0747 22.1524C59.0593 22.0276 59.8163 21.6557 60.3497 21.0347C60.8821 20.4133 61.1259 19.5407 61.08 18.4111L60.9624 15.4752C60.9457 15.0657 60.9705 14.774 61.0325 14.5961C61.0961 14.4197 61.2657 14.314 61.5377 14.2799L61.9066 14.2323L61.8879 13.7416C61.3868 13.8514 60.7913 13.9631 60.1045 14.0784C59.4767 14.126 59.0321 14.1441 58.7702 14.137L58.7908 14.6277L59.3344 14.5585C59.5872 14.527 59.7739 14.528 59.8971 14.564C60.0172 14.6016 60.1156 14.7314 60.1898 14.9509C60.267 15.172 60.3159 15.5473 60.3366 16.0761L60.4254 18.2647C60.4663 19.2947 60.2967 20.0735 59.9127 20.6007C59.5307 21.129 58.9352 21.4442 58.1267 21.5474C57.667 21.5951 57.2587 21.5489 56.908 21.4066C56.5572 21.2648 56.2756 21.0142 56.0672 20.6538C55.8593 20.297 55.7437 19.8259 55.72 19.241L55.5959 16.1528C55.5848 15.8706 55.5863 15.6541 55.6019 15.5027C55.6196 15.3499 55.6731 15.2246 55.7664 15.1213C55.8593 15.0176 56.0097 14.9525 56.2206 14.9259L56.7894 14.8532L56.7687 14.3601C56.4876 14.4372 55.9532 14.543 55.1679 14.6793C54.4104 14.7374 53.9012 14.7645 53.6418 14.7565L53.6605 15.2266L53.9674 15.1885Z" fill="#3E183A"/>
<path d="M62.9578 15.1033C62.9548 15.0276 62.9442 14.9665 62.926 14.9209C62.9285 14.6197 62.9654 14.3946 63.039 14.2423C63.1132 14.0904 63.2808 13.9862 63.5402 13.9295L65.7591 13.4494L65.9676 18.6361C65.9761 19.1523 65.9751 19.4826 65.959 19.6269C65.9459 19.7703 65.8732 19.8966 65.743 20.0058C65.6113 20.1151 65.3721 20.2073 65.0249 20.282L64.4657 20.4028L64.4844 20.8714C65.3902 20.6077 66.0382 20.4328 66.4268 20.3491C66.8946 20.2489 67.6112 20.1271 68.5756 19.9863L68.5585 19.5452L68.0972 19.646C67.7414 19.7227 67.4815 19.7342 67.3185 19.6775C67.154 19.6224 67.0465 19.4936 66.9925 19.2992C66.9385 19.1022 66.9027 18.788 66.8855 18.3595L66.6816 13.279L68.4666 12.8926C68.7124 12.8405 68.8905 12.8325 68.9995 12.8736C69.108 12.9122 69.1782 12.9923 69.2059 13.1121C69.2362 13.2309 69.2569 13.4314 69.2675 13.714L69.701 13.6198L69.6349 11.9509C68.6337 12.2316 67.3922 12.5463 65.9151 12.8951C64.5384 13.1627 63.3827 13.3662 62.4536 13.504L62.5213 15.178L62.9578 15.1033Z" fill="#3E183A"/>
<path d="M16.1096 10.4268C16.3286 10.496 16.4684 10.5491 16.5365 10.5867C16.6703 10.6529 16.7601 10.8348 16.8065 11.137C16.8519 11.4412 16.8842 11.8246 16.9029 12.2907L17.0715 16.4966C17.0967 17.121 16.8953 17.3646 16.4649 17.2288L15.9198 17.0559L15.9385 17.5265C16.4159 17.6107 16.9615 17.7505 17.5741 17.9445C18.1883 18.1399 18.7368 18.3469 19.2188 18.5664L19.2016 18.1229L18.6278 17.942C18.3306 17.8473 18.1348 17.6182 18.0444 17.2564C17.9541 16.8965 17.8976 16.45 17.8769 15.9157L17.722 12.0652C17.7184 11.997 17.7089 11.9444 17.6917 11.9048C17.6922 11.5931 17.7376 11.3695 17.8285 11.2382C17.9198 11.1064 18.0964 11.0814 18.3558 11.1636L18.8559 11.3219L18.8363 10.8318C18.6233 10.7842 18.0873 10.6418 17.2254 10.4053C16.3377 10.0825 15.8043 9.88555 15.6287 9.81339L15.6478 10.278L16.1096 10.4268Z" fill="#3E183A"/>
<path d="M20.056 11.7459C20.2846 11.8051 20.4395 11.9003 20.5167 12.0311C20.596 12.1619 20.6404 12.3599 20.6515 12.6265L20.8478 17.5039L20.8574 17.7315C20.8695 18.0462 20.8377 18.2723 20.764 18.4051C20.6878 18.5379 20.5092 18.569 20.2276 18.4958L19.7976 18.383L19.8163 18.8521C20.3098 18.9303 20.8155 19.0376 21.3318 19.1724C21.9136 19.3237 22.4294 19.4916 22.877 19.6756L22.8594 19.2345L22.33 19.0962C21.9762 19.004 21.7405 18.8256 21.623 18.5644C21.5069 18.3023 21.4398 17.949 21.4216 17.5034L21.2066 12.7478L27.269 21.0488L27.5516 21.1219L27.3013 14.2764C27.2933 14.0609 27.3235 13.9185 27.3942 13.8454C27.4643 13.7732 27.6026 13.7637 27.808 13.8178L28.3662 13.9631L28.3455 13.471C27.8701 13.3953 27.3493 13.2951 26.78 13.1718C26.2653 13.0099 25.7732 12.8455 25.3085 12.6786L25.3049 13.1903L25.6748 13.2865L26.1063 13.4003C26.2819 13.4459 26.4066 13.5176 26.4838 13.6178C26.56 13.7181 26.6039 13.9075 26.6155 14.1847L27.049 19.2225L21.4564 11.6748C21.3171 11.6592 21.0078 11.6056 20.5238 11.5174C20.0257 11.35 19.6916 11.2252 19.519 11.1405L19.5382 11.6106L20.056 11.7459Z" fill="#3E183A"/>
<path d="M96.8081 45.858C96.8671 46.0756 96.8712 46.2605 96.8187 46.4128C96.7672 46.5667 96.6663 46.695 96.5159 46.8003C96.3115 46.9411 96.0935 46.9872 95.8573 46.9411C95.6237 46.896 95.4041 46.7451 95.2028 46.489L97.0145 45.2301C96.9822 45.181 96.9569 45.1439 96.9393 45.1183C96.6602 44.7209 96.3387 44.4818 95.9769 44.4066C95.6171 44.3305 95.2744 44.4056 94.9499 44.6297C94.6148 44.8637 94.4205 45.1649 94.3681 45.5373C94.3161 45.9062 94.4332 46.2961 94.7193 46.701C94.9954 47.0934 95.3143 47.3255 95.6756 47.3982C96.037 47.4713 96.3953 47.3836 96.751 47.137C97.0321 46.9411 97.2163 46.712 97.3031 46.4499C97.3879 46.1868 97.3773 45.9087 97.2703 45.615L96.8081 45.858ZM94.8485 45.4852C94.8889 45.2697 95.0039 45.0958 95.1932 44.9654C95.4016 44.8186 95.6282 44.7795 95.8699 44.8482C96.0259 44.8883 96.1858 45.005 96.3468 45.1945L94.9903 46.1382C94.8551 45.9177 94.8081 45.6997 94.8485 45.4852Z" fill="#3E183A"/>
<path d="M101.473 42.2972C101.596 42.5192 101.642 42.7171 101.608 42.8916C101.576 43.067 101.481 43.2128 101.324 43.3311C101.126 43.4789 100.913 43.5261 100.683 43.4739C100.451 43.4213 100.217 43.2379 99.9768 42.9206C99.7401 42.6094 99.6306 42.3343 99.6488 42.0962C99.6644 41.8571 99.7749 41.6627 99.9768 41.5108C100.111 41.4101 100.256 41.366 100.41 41.374C100.566 41.384 100.721 41.4542 100.878 41.5825L101.225 41.2312C100.997 41.0287 100.753 40.9239 100.491 40.9169C100.23 40.9089 99.9697 41.0021 99.7134 41.1951C99.51 41.3479 99.3571 41.5359 99.2567 41.7609C99.1562 41.9869 99.1356 42.226 99.1946 42.4796C99.2541 42.7342 99.3798 42.9888 99.5731 43.2419C99.8718 43.6353 100.199 43.8633 100.556 43.926C100.912 43.9886 101.253 43.8974 101.576 43.6559C101.836 43.4629 101.996 43.2223 102.058 42.9362C102.12 42.65 102.069 42.3558 101.907 42.0541L101.473 42.2972Z" fill="#3E183A"/>
<path d="M103.991 40.1672L103.579 39.6424C103.442 39.467 103.341 39.3528 103.274 39.2951C103.165 39.2049 103.055 39.1483 102.941 39.1227C102.826 39.0982 102.688 39.1112 102.527 39.1608C102.366 39.2119 102.186 39.3117 101.987 39.467C101.784 39.6239 101.63 39.7893 101.521 39.9612C101.411 40.1346 101.355 40.304 101.355 40.4674C101.353 40.6308 101.4 40.8082 101.494 40.9991L101.923 40.7526C101.836 40.5556 101.812 40.3882 101.849 40.2554C101.888 40.1221 102 39.9822 102.187 39.8384C102.386 39.6835 102.571 39.6104 102.742 39.6209C102.868 39.6289 102.995 39.7121 103.121 39.8735C103.132 39.887 103.159 39.9226 103.199 39.9772C103.09 40.1466 102.889 40.3747 102.599 40.6613C102.458 40.8012 102.357 40.9129 102.295 40.9931C102.212 41.1039 102.151 41.2201 102.111 41.3424C102.072 41.4657 102.063 41.594 102.085 41.7273C102.105 41.8627 102.162 41.987 102.251 42.0992C102.404 42.2932 102.598 42.3999 102.834 42.4165C103.069 42.434 103.315 42.3433 103.572 42.1433C103.728 42.024 103.854 41.8847 103.95 41.7293C104.045 41.5725 104.117 41.376 104.166 41.137C104.265 41.2397 104.367 41.3134 104.47 41.364L104.884 41.0407C104.764 40.9906 104.657 40.9255 104.564 40.8403C104.469 40.7571 104.278 40.533 103.991 40.1672ZM103.753 41.3474C103.686 41.5058 103.576 41.6441 103.424 41.7624C103.269 41.8827 103.126 41.9378 102.992 41.9298C102.856 41.9218 102.747 41.8662 102.665 41.7604C102.611 41.6928 102.581 41.6156 102.573 41.5314C102.564 41.4462 102.583 41.363 102.627 41.2818C102.672 41.2016 102.766 41.0848 102.911 40.9365C103.166 40.6734 103.343 40.4559 103.441 40.2845L103.556 40.4293C103.692 40.6017 103.774 40.7495 103.8 40.8718C103.835 41.0302 103.82 41.1891 103.753 41.3474Z" fill="#3E183A"/>
<path d="M109.933 34.7414C109.617 34.3951 109.275 34.2082 108.904 34.1826C108.532 34.1581 108.196 34.2794 107.892 34.5515C107.619 34.7941 107.461 35.0843 107.42 35.415C107.367 35.8125 107.527 36.2139 107.894 36.6189C108.23 36.9897 108.582 37.1877 108.951 37.2133C109.319 37.2398 109.657 37.1155 109.966 36.8394C110.158 36.667 110.295 36.4645 110.377 36.2284C110.459 35.9944 110.469 35.7593 110.408 35.5208C110.346 35.2827 110.188 35.0241 109.933 34.7414ZM109.69 36.5337C109.504 36.7 109.285 36.7697 109.035 36.7391C108.786 36.7116 108.534 36.5562 108.279 36.275C108.026 35.9959 107.896 35.7318 107.895 35.4822C107.891 35.2326 107.984 35.0251 108.17 34.8587C108.355 34.6943 108.571 34.6267 108.821 34.6542C109.072 34.6838 109.32 34.8332 109.566 35.1033C109.826 35.391 109.958 35.6581 109.962 35.9087C109.966 36.1598 109.876 36.3673 109.69 36.5337Z" fill="#3E183A"/>
<path d="M105.414 35.3218L106.359 36.4394C106.214 36.4023 106.064 36.4013 105.907 36.4324C105.753 36.464 105.606 36.5361 105.47 36.6509C105.283 36.8068 105.155 36.9962 105.087 37.2208C105.017 37.4438 105.024 37.6798 105.103 37.9264C105.182 38.173 105.317 38.408 105.508 38.6331C105.703 38.8651 105.917 39.0335 106.149 39.1413C106.384 39.25 106.619 39.2911 106.854 39.2626C107.089 39.236 107.298 39.1473 107.478 38.9954C107.758 38.7634 107.876 38.4747 107.83 38.1309L108.071 38.4166L108.429 38.1169L105.797 35.002L105.414 35.3218ZM107.155 37.3165C107.392 37.5976 107.508 37.8547 107.506 38.0888C107.504 38.3238 107.419 38.5108 107.251 38.6526C107.084 38.7894 106.878 38.8396 106.635 38.7985C106.391 38.7594 106.148 38.593 105.903 38.3033C105.651 38.0046 105.524 37.7385 105.521 37.5044C105.519 37.2704 105.603 37.0804 105.774 36.9396C105.95 36.7917 106.158 36.7411 106.4 36.7867C106.642 36.8308 106.893 37.0073 107.155 37.3165Z" fill="#3E183A"/>
<path d="M98.7732 45.1248C98.7131 45.1669 98.6591 45.1905 98.6127 45.1935C98.5653 45.1965 98.5239 45.1854 98.4855 45.1619C98.4487 45.1383 98.3886 45.0687 98.3064 44.9534L97.3117 43.5421L97.7245 43.2544L97.5014 42.9362L97.0876 43.2248L96.4926 42.3809L96.2549 42.9106L96.6779 43.5085L96.374 43.72L96.5976 44.0383L96.9009 43.8278L97.8789 45.216C98.052 45.4616 98.1822 45.6104 98.27 45.6646C98.3568 45.7172 98.4583 45.7387 98.5738 45.7282C98.6899 45.7177 98.8221 45.6606 98.972 45.5558C99.0639 45.4932 99.1582 45.408 99.2566 45.3042L98.9422 44.984C98.8756 45.0466 98.8186 45.0937 98.7732 45.1248Z" fill="#3E183A"/>
<path d="M97.813 42.7078L99.597 45.0588L100 44.7572L98.2161 42.4062L97.813 42.7078Z" fill="#3E183A"/>
<path d="M94.9302 43.3326L94.3907 43.7075L94.5341 44.5555L94.8757 44.3184L94.9302 43.3326Z" fill="#3E183A"/>
<path d="M97.543 41.5032L97.1409 41.8036L97.4893 42.2634L97.8913 41.9629L97.543 41.5032Z" fill="#3E183A"/>
<path d="M113.553 32.213C113.433 32.0907 113.305 32.0155 113.167 31.9895C113.03 31.9614 112.888 31.9744 112.745 32.0296C112.602 32.0817 112.371 32.1985 112.048 32.3754C111.825 32.4972 111.689 32.5693 111.639 32.5909C111.551 32.6255 111.475 32.6385 111.407 32.6275C111.341 32.6179 111.286 32.5919 111.239 32.5443C111.169 32.4716 111.144 32.3734 111.161 32.2501C111.179 32.1283 111.272 31.9875 111.438 31.8276C111.578 31.6928 111.717 31.6186 111.853 31.6071C111.99 31.595 112.119 31.6356 112.241 31.7278L112.547 31.3414C112.391 31.2262 112.244 31.157 112.104 31.1324C111.963 31.1084 111.807 31.1335 111.634 31.2066C111.46 31.2808 111.289 31.3966 111.123 31.5569C111.011 31.6637 110.921 31.7785 110.852 31.9008C110.782 32.022 110.741 32.1318 110.723 32.226C110.702 32.3508 110.706 32.4736 110.741 32.5964C110.775 32.7187 110.839 32.8274 110.93 32.9217C111.032 33.0254 111.15 33.0951 111.286 33.1291C111.422 33.1642 111.566 33.1577 111.717 33.1071C111.866 33.0585 112.106 32.9397 112.436 32.7518C112.68 32.6129 112.843 32.5337 112.924 32.5187C113.04 32.4972 113.138 32.5272 113.217 32.6084C113.304 32.6986 113.34 32.8159 113.327 32.9602C113.311 33.1041 113.22 33.2564 113.055 33.4158C112.889 33.5747 112.725 33.6599 112.56 33.6704C112.394 33.6819 112.231 33.6273 112.073 33.504L111.771 33.9035C112.028 34.0904 112.285 34.1716 112.542 34.145C112.799 34.1195 113.065 33.9736 113.344 33.7075C113.51 33.5461 113.633 33.3732 113.709 33.1888C113.785 33.0038 113.808 32.8249 113.776 32.6525C113.743 32.4796 113.669 32.3328 113.553 32.213Z" fill="#3E183A"/>
<path d="M115.394 29.5327C115.067 29.1959 114.717 29.0215 114.346 29.01C113.974 28.9969 113.641 29.1307 113.347 29.4129C113.084 29.666 112.937 29.9592 112.907 30.2925C112.869 30.6919 113.042 31.0878 113.423 31.4798C113.772 31.8386 114.129 32.024 114.499 32.0361C114.87 32.0501 115.203 31.9138 115.501 31.6271C115.687 31.4487 115.817 31.2412 115.891 31.0036C115.964 30.7666 115.965 30.53 115.896 30.2945C115.826 30.0594 115.658 29.8058 115.394 29.5327ZM115.214 31.3319C115.034 31.5063 114.818 31.5815 114.566 31.5605C114.316 31.5404 114.059 31.3951 113.796 31.1234C113.533 30.8518 113.394 30.5922 113.383 30.3431C113.372 30.095 113.457 29.883 113.636 29.7101C113.815 29.5382 114.028 29.4635 114.28 29.4831C114.531 29.5026 114.783 29.645 115.039 29.9071C115.309 30.1852 115.452 30.4493 115.464 30.6984C115.476 30.949 115.394 31.1605 115.214 31.3319Z" fill="#3E183A"/>
<path d="M121.283 24.3139C121.157 24.1987 121.024 24.13 120.886 24.1099C120.748 24.0894 120.608 24.1099 120.467 24.1721C120.326 24.2322 120.101 24.3605 119.789 24.554C119.572 24.6873 119.441 24.766 119.392 24.79C119.307 24.8291 119.231 24.8457 119.163 24.8387C119.096 24.8331 119.04 24.8086 118.992 24.7655C118.917 24.6958 118.886 24.5991 118.897 24.4758C118.908 24.3525 118.993 24.2072 119.151 24.0393C119.283 23.8974 119.418 23.8163 119.554 23.7967C119.689 23.7782 119.82 23.8117 119.949 23.898L120.233 23.495C120.071 23.3883 119.921 23.3271 119.78 23.3096C119.638 23.2935 119.484 23.3256 119.315 23.4088C119.146 23.491 118.981 23.6158 118.822 23.7852C118.718 23.8974 118.633 24.0157 118.57 24.1415C118.508 24.2663 118.471 24.3771 118.46 24.4728C118.442 24.5986 118.455 24.7219 118.496 24.8427C118.537 24.963 118.606 25.0672 118.702 25.1574C118.808 25.2546 118.931 25.3173 119.068 25.3464C119.207 25.3739 119.351 25.3594 119.496 25.3012C119.643 25.2451 119.877 25.1128 120.196 24.9093C120.434 24.7565 120.591 24.6703 120.67 24.6507C120.786 24.6227 120.885 24.6472 120.969 24.7249C121.061 24.8096 121.104 24.9259 121.096 25.0697C121.09 25.214 121.007 25.3719 120.849 25.5388C120.692 25.7062 120.531 25.7994 120.368 25.82C120.203 25.8405 120.038 25.7934 119.874 25.6791L119.593 26.0921C119.859 26.2655 120.121 26.3322 120.376 26.2951C120.632 26.257 120.891 26.0981 121.153 25.8175C121.313 25.6491 121.425 25.4701 121.491 25.2822C121.558 25.0938 121.57 24.9133 121.53 24.7419C121.486 24.57 121.405 24.4277 121.283 24.3139Z" fill="#3E183A"/>
<path d="M124.005 21.5672L124.437 21.9403L124.813 21.5109L124.38 21.1378L124.005 21.5672Z" fill="#3E183A"/>
<path d="M117.333 25.5002L119.502 27.509L119.846 27.1431L117.676 25.1344L117.333 25.5002Z" fill="#3E183A"/>
<path d="M122.802 21.4993C122.447 21.1931 122.084 21.0493 121.713 21.0698C121.341 21.0884 121.021 21.2518 120.753 21.558C120.513 21.8326 120.394 22.1373 120.392 22.4716C120.391 22.8726 120.597 23.252 121.012 23.6098C121.39 23.9366 121.763 24.0909 122.132 24.0719C122.501 24.0538 122.822 23.889 123.094 23.5782C123.264 23.3833 123.375 23.1663 123.427 22.9227C123.479 22.6801 123.46 22.4446 123.37 22.216C123.28 21.9875 123.091 21.7484 122.802 21.4993ZM122.782 23.3086C122.618 23.496 122.409 23.5913 122.158 23.5918C121.907 23.5933 121.638 23.47 121.35 23.2229C121.063 22.9758 120.904 22.7282 120.871 22.4816C120.839 22.2351 120.904 22.0171 121.069 21.8286C121.231 21.6432 121.438 21.549 121.69 21.5474C121.942 21.5449 122.206 21.6637 122.483 21.9038C122.777 22.1574 122.941 22.408 122.977 22.6551C123.01 22.9036 122.946 23.1211 122.782 23.3086Z" fill="#3E183A"/>
<path d="M115.711 28.2958C115.652 28.188 115.629 28.0808 115.642 27.9715C115.655 27.8638 115.7 27.7711 115.777 27.6919C115.863 27.6037 115.974 27.541 116.111 27.5039L115.895 27.0579C115.696 27.109 115.537 27.1937 115.42 27.3145C115.339 27.3987 115.288 27.4999 115.269 27.6147C115.249 27.731 115.274 27.9034 115.345 28.1304L115.022 27.8212L114.708 28.1444L116.841 30.1902L117.191 29.8314L116.073 28.7599C115.921 28.613 115.799 28.4582 115.711 28.2958Z" fill="#3E183A"/>
<path d="M117.043 26.9316C116.985 26.8233 116.961 26.7166 116.975 26.6078C116.988 26.4996 117.032 26.4068 117.109 26.3277C117.195 26.2394 117.307 26.1763 117.443 26.1407L117.228 25.6937C117.029 25.7453 116.87 25.8305 116.753 25.9518C116.672 26.036 116.621 26.1362 116.602 26.252C116.581 26.3682 116.607 26.5407 116.678 26.7677L116.354 26.4575L116.04 26.7812L118.174 28.827L118.523 28.4667L117.407 27.3962C117.254 27.2493 117.132 27.0945 117.043 26.9316Z" fill="#3E183A"/>
<path d="M117.274 24.7617L116.852 24.369L116.508 24.734L116.93 25.1266L117.274 24.7617Z" fill="#3E183A"/>
<path d="M56.7878 61.0631L57.7094 65.0247L58.1981 64.9125L57.2765 60.951L56.7878 61.0631Z" fill="#3E183A"/>
<path d="M69.8342 56.922L70.3616 58.2847C70.2359 58.2036 70.0956 58.1524 69.9372 58.1329C69.7797 58.1123 69.6177 58.1339 69.4517 58.1965C69.2241 58.2847 69.0409 58.4226 68.9016 58.6125C68.7633 58.8015 68.6917 59.0255 68.6856 59.2831C68.6801 59.5427 68.73 59.8098 68.8365 60.084C68.9455 60.3661 69.0924 60.5952 69.2771 60.7731C69.4633 60.951 69.6722 61.0658 69.9029 61.1169C70.1355 61.166 70.3611 61.149 70.5821 61.0643C70.9233 60.934 71.1282 60.6999 71.1983 60.3596L71.3336 60.7079L71.7686 60.5405L70.3015 56.7446L69.8342 56.922ZM70.8254 59.3693C70.9581 59.7121 70.9843 59.9948 70.9051 60.2143C70.8264 60.4363 70.6841 60.5862 70.4787 60.6633C70.2753 60.7415 70.0648 60.721 69.8478 60.6037C69.6308 60.4874 69.4552 60.2524 69.3185 59.901C69.1782 59.5357 69.1449 59.243 69.2206 59.02C69.2947 58.799 69.4366 58.6461 69.645 58.5679C69.859 58.4867 70.0729 58.5053 70.2864 58.6255C70.5009 58.7468 70.68 58.9934 70.8254 59.3693Z" fill="#3E183A"/>
<path d="M56.5466 63.0254C56.4043 62.8119 56.2272 62.662 56.0102 62.5703C55.7952 62.4811 55.5646 62.4585 55.3153 62.5077C55.125 62.5437 54.9706 62.6134 54.852 62.7121C54.7329 62.8109 54.6345 62.9442 54.5573 63.1126L54.4841 62.7357L54.0345 62.8239L54.8177 66.8228L55.3112 66.7271L55.0357 65.3203C55.1412 65.4085 55.2643 65.4761 55.4091 65.5197C55.5535 65.5618 55.7069 65.5688 55.8714 65.5363C56.0955 65.4922 56.2978 65.3884 56.4765 65.224C56.6572 65.0576 56.7762 64.8472 56.8373 64.5875C56.8979 64.3299 56.8989 64.0543 56.8414 63.7596C56.7868 63.4824 56.6889 63.2379 56.5466 63.0254ZM56.2691 64.7549C56.1485 64.9704 55.9784 65.0987 55.7594 65.1408C55.5444 65.1819 55.3425 65.1293 55.1563 64.9815C54.9691 64.8306 54.8399 64.5715 54.7672 64.1991C54.6945 63.8268 54.7193 63.5276 54.8439 63.3015C54.9671 63.0755 55.1346 62.9412 55.345 62.9011C55.556 62.86 55.7563 62.9166 55.9451 63.0705C56.1333 63.2243 56.2635 63.4845 56.3357 63.8538C56.4114 64.2402 56.3892 64.5399 56.2691 64.7549Z" fill="#3E183A"/>
<path d="M73.4854 56.9822C73.1422 56.8383 72.7834 56.8463 72.4069 57.0047C72.0698 57.1465 71.8271 57.3681 71.6777 57.6663C71.4991 58.0286 71.5182 58.4581 71.7327 58.9603C71.928 59.4184 72.196 59.7201 72.5361 59.8639C72.8763 60.0078 73.2371 59.9982 73.6191 59.8374C73.8583 59.7376 74.0531 59.5898 74.2081 59.3938C74.362 59.1989 74.4498 58.9789 74.4695 58.7343C74.4892 58.4917 74.4251 58.193 74.2742 57.8447C74.0905 57.4137 73.8281 57.127 73.4854 56.9822ZM73.9189 58.9583C73.8402 59.1954 73.6862 59.3638 73.4566 59.4605C73.226 59.5582 72.9974 59.5527 72.7698 59.4429C72.5442 59.3352 72.3565 59.1072 72.2086 58.7608C72.0608 58.4145 72.0259 58.1218 72.1036 57.8848C72.1824 57.6497 72.3378 57.4833 72.5684 57.3836C72.7976 57.2879 73.0241 57.2944 73.2517 57.4032C73.4793 57.5099 73.6645 57.7329 73.8089 58.0687C73.9598 58.423 73.9961 58.7192 73.9189 58.9583Z" fill="#3E183A"/>
<path d="M47.9517 62.7646L48.5209 66.7917L49.0571 66.7169L48.4879 62.6898L47.9517 62.7646Z" fill="#3E183A"/>
<path d="M53.2527 63.3221C53.0726 63.1842 52.8379 63.1341 52.5462 63.1742C52.1748 63.2263 51.8962 63.4393 51.7115 63.8112C51.6328 63.6574 51.5167 63.5481 51.3638 63.4774C51.2119 63.4058 51.0272 63.3852 50.8107 63.4158C50.6149 63.4444 50.4469 63.5115 50.3061 63.6193C50.1653 63.728 50.0588 63.8598 49.9866 64.0147L49.9286 63.6072L49.484 63.6679L49.8963 66.5857L50.3954 66.5161L50.1809 65.0025C50.1426 64.7374 50.1405 64.5309 50.1743 64.3811C50.2071 64.2332 50.2798 64.1139 50.3878 64.0247C50.4963 63.9335 50.6205 63.8799 50.7603 63.8603C50.945 63.8348 51.0852 63.8709 51.1816 63.9701C51.279 64.0668 51.3421 64.2277 51.3739 64.4477L51.6414 66.3417L52.1385 66.273L51.8988 64.5765C51.8569 64.2768 51.8952 64.0498 52.0113 63.8944C52.1294 63.7385 52.2904 63.6468 52.4973 63.6173C52.6108 63.6007 52.7143 63.6143 52.8071 63.6553C52.8985 63.6954 52.9666 63.7591 53.0125 63.8403C53.0569 63.9235 53.0933 64.0633 53.121 64.2613L53.3814 66.0976L53.876 66.0289L53.5924 64.0272C53.5454 63.6959 53.4314 63.4599 53.2527 63.3221Z" fill="#3E183A"/>
<path d="M63.6492 61.0628C63.581 60.9335 63.4973 60.8307 63.3963 60.7515C63.2959 60.6723 63.1657 60.6212 63.0027 60.6007C62.8417 60.5811 62.6757 60.5947 62.5036 60.6448C62.1084 60.7565 61.8506 60.9981 61.7305 61.37L61.6149 60.9665L61.1804 61.0898L61.9974 63.9205L62.4809 63.7847L62.0343 62.238C61.9293 61.8747 61.9328 61.6085 62.0449 61.4351C62.1569 61.2627 62.3154 61.1465 62.5218 61.0888C62.6504 61.0527 62.7706 61.0487 62.8846 61.0788C62.9956 61.1104 63.085 61.169 63.1501 61.2532C63.2162 61.3414 63.2762 61.4822 63.3322 61.6772L63.8293 63.4003L64.3133 63.2624L63.8112 61.5208C63.7466 61.2998 63.6921 61.148 63.6492 61.0628Z" fill="#3E183A"/>
<path d="M60.9947 62.9968L60.8438 62.3488C60.7938 62.1323 60.7499 61.9854 60.7156 61.9052C60.6545 61.7779 60.5788 61.6812 60.4865 61.6085C60.3926 61.5379 60.2619 61.4923 60.0944 61.4687C59.9268 61.4492 59.7204 61.4647 59.4731 61.5208C59.2253 61.5775 59.0149 61.6627 58.8418 61.7724C58.6687 61.8832 58.5471 62.014 58.4754 62.1618C58.4063 62.3087 58.373 62.4886 58.376 62.7031L58.8696 62.659C58.8761 62.4415 58.9231 62.2821 59.0139 62.1764C59.1062 62.0716 59.2662 61.9934 59.4969 61.9393C59.7441 61.8827 59.943 61.8942 60.0934 61.9774C60.2039 62.035 60.2831 62.1653 60.33 62.3633C60.3341 62.3809 60.3437 62.425 60.3558 62.4906C60.1852 62.5994 59.9066 62.7217 59.5216 62.8595C59.3333 62.9271 59.1946 62.9848 59.1042 63.0319C58.9811 63.0975 58.8766 63.1777 58.7878 63.2725C58.7 63.3667 58.6379 63.4779 58.5996 63.6102C58.5622 63.7405 58.5602 63.8774 58.5935 64.0177C58.6485 64.2558 58.7797 64.4347 58.9851 64.5495C59.1931 64.6642 59.4535 64.6848 59.7714 64.6121C59.9637 64.569 60.1357 64.4958 60.2897 64.3946C60.4431 64.2918 60.5925 64.144 60.7388 63.949C60.7842 64.0814 60.8443 64.1926 60.9175 64.2798L61.4292 64.1645C61.3424 64.0688 61.2737 63.9621 61.2253 63.8473C61.1768 63.733 61.0996 63.4504 60.9947 62.9968ZM60.5198 63.5551C60.4845 63.7125 60.4022 63.8518 60.274 63.9671C60.1468 64.0819 59.9884 64.162 59.7991 64.2041C59.6094 64.2482 59.4545 64.2382 59.3359 64.1736C59.2178 64.1109 59.1421 64.0142 59.1118 63.8839C59.0926 63.7987 59.0972 63.7175 59.1274 63.6373C59.1552 63.5571 59.2087 63.4895 59.2834 63.4358C59.3581 63.3802 59.4928 63.3156 59.6881 63.2399C60.0313 63.1086 60.2836 62.9863 60.4446 62.873L60.486 63.0519C60.5359 63.2654 60.548 63.4338 60.5198 63.5551Z" fill="#3E183A"/>
<path d="M67.8161 59.2716C67.4876 59.0971 67.1298 59.0736 66.7412 59.1989C66.3925 59.3096 66.1311 59.5111 65.9555 59.7948C65.7465 60.1386 65.7279 60.5701 65.8969 61.0888C66.0529 61.5624 66.2916 61.8847 66.6186 62.0581C66.9451 62.2325 67.3049 62.2551 67.6995 62.1278C67.9458 62.0476 68.1537 61.9173 68.3253 61.7373C68.4959 61.5544 68.6014 61.3419 68.6427 61.1009C68.6841 60.8583 68.6458 60.5596 68.5272 60.1982C68.3813 59.7522 68.1462 59.445 67.8161 59.2716ZM68.077 61.2763C67.9781 61.5063 67.8101 61.6612 67.5724 61.7363C67.3332 61.8135 67.1061 61.7885 66.8891 61.6612C66.6731 61.5339 66.506 61.2913 66.3895 60.931C66.2714 60.5736 66.2628 60.2789 66.3632 60.0499C66.4621 59.8229 66.6317 59.668 66.8704 59.5918C67.1061 59.5166 67.3322 59.5407 67.5486 59.668C67.7667 59.7953 67.9312 60.0333 68.0442 60.3797C68.1648 60.7465 68.1744 61.0462 68.077 61.2763Z" fill="#3E183A"/>
<path d="M65.7617 62.3277C65.691 62.3493 65.6325 62.3553 65.5865 62.3443C65.5406 62.3332 65.5038 62.3112 65.474 62.2776C65.4447 62.2455 65.4074 62.1613 65.3635 62.025L64.827 60.3872L65.3075 60.2313L65.1879 59.8634L64.7069 60.0183L64.386 59.0395L64.0034 59.477L64.231 60.1711L63.8803 60.2859L63.9999 60.6538L64.3512 60.541L64.879 62.1523C64.9714 62.436 65.0526 62.6184 65.1207 62.6936C65.1889 62.7708 65.2787 62.8209 65.3923 62.8424C65.5063 62.867 65.6491 62.8504 65.8232 62.7943C65.9287 62.7612 66.0448 62.7081 66.1704 62.6359L65.964 62.2385C65.8813 62.2796 65.8136 62.3087 65.7617 62.3277Z" fill="#3E183A"/>
<path d="M82.4703 54.2883L82.1655 53.696C82.0641 53.498 81.9868 53.3652 81.9328 53.2975C81.8425 53.1888 81.7466 53.1106 81.6391 53.0645C81.5291 53.0174 81.3934 53.0048 81.2248 53.0224C81.0573 53.0409 80.8605 53.1066 80.6349 53.2218C80.4078 53.3356 80.2231 53.4674 80.0828 53.6163C79.941 53.7661 79.8542 53.9215 79.8219 54.0814C79.7891 54.2417 79.8012 54.4267 79.8567 54.6327L80.3245 54.4713C80.2781 54.2608 80.2851 54.0934 80.3477 53.9691C80.4108 53.8448 80.5471 53.729 80.7585 53.6243C80.9831 53.509 81.1794 53.4734 81.3449 53.5155C81.467 53.5471 81.5766 53.6534 81.6689 53.8348C81.6775 53.8503 81.6962 53.8904 81.7254 53.9511C81.5856 54.0969 81.3449 54.2828 81.0058 54.5089C80.8382 54.6206 80.7171 54.7093 80.6414 54.777C80.5385 54.8692 80.4567 54.973 80.3931 55.0862C80.3316 55.197 80.2983 55.3223 80.2942 55.4581C80.2902 55.5939 80.3215 55.7262 80.3871 55.8555C80.4996 56.074 80.6702 56.2149 80.8978 56.2775C81.1259 56.3392 81.3858 56.2971 81.6755 56.1492C81.8511 56.059 82.0015 55.9487 82.1261 55.8134C82.2493 55.6781 82.3578 55.4972 82.4526 55.2742C82.5283 55.3904 82.6146 55.4836 82.7075 55.5533L83.1758 55.3163C83.0683 55.2431 82.976 55.1589 82.9008 55.0577C82.8266 54.9604 82.6823 54.7023 82.4703 54.2883ZM82.007 55.402C81.9106 55.5448 81.7764 55.6596 81.6038 55.7473C81.4302 55.8355 81.2768 55.862 81.1471 55.8285C81.0164 55.7964 80.9195 55.7197 80.8589 55.6014C80.8186 55.5242 80.8039 55.4431 80.8135 55.3579C80.8206 55.2737 80.8564 55.1965 80.9155 55.1238C80.9745 55.0531 81.0906 54.9574 81.2611 54.8381C81.5619 54.6286 81.7764 54.4497 81.9051 54.2999L81.9894 54.4633C82.0893 54.6602 82.1413 54.8196 82.1443 54.9439C82.1493 55.1053 82.1019 55.2591 82.007 55.402Z" fill="#3E183A"/>
<path d="M90.4691 49.9958C90.5125 50.2153 90.5044 50.4002 90.4403 50.5471C90.3788 50.6979 90.2697 50.8192 90.1123 50.9129C89.8993 51.0402 89.6793 51.0713 89.4462 51.0086C89.216 50.947 89.0081 50.7806 88.8249 50.5125L90.7209 49.3818C90.6921 49.3297 90.6689 49.2926 90.6533 49.2666C90.402 48.8506 90.0977 48.591 89.7434 48.4892C89.3901 48.3885 89.0419 48.4381 88.7023 48.6411C88.3516 48.8516 88.1376 49.1393 88.0588 49.5056C87.9801 49.871 88.0694 50.2664 88.3268 50.6919C88.5751 51.1019 88.8769 51.3565 89.2327 51.4542C89.5875 51.5509 89.9523 51.4883 90.3227 51.2673C90.6185 51.0898 90.8178 50.8748 90.9223 50.6182C91.0252 50.3626 91.0338 50.085 90.948 49.7853L90.4691 49.9958ZM88.6362 50.1476C88.5176 49.9186 88.4848 49.6986 88.5403 49.4871C88.5953 49.2746 88.7225 49.1102 88.9208 48.9929C89.1393 48.8626 89.3669 48.8391 89.6041 48.9202C89.758 48.9729 89.9089 49.1002 90.0558 49.3021L88.6362 50.1476Z" fill="#3E183A"/>
<path d="M86.4555 52.437C86.4929 52.658 86.4762 52.8415 86.4101 52.9883C86.342 53.1361 86.2279 53.2534 86.067 53.3416C85.851 53.4609 85.6284 53.4845 85.3998 53.4143C85.1712 53.3456 84.9688 53.1727 84.7947 52.8976L86.7296 51.8336C86.7023 51.781 86.6811 51.7414 86.6665 51.7143C86.4298 51.2913 86.1351 51.0212 85.7844 50.9079C85.4346 50.7942 85.0854 50.8327 84.7382 51.0232C84.3804 51.2212 84.1568 51.5008 84.065 51.8642C83.9736 52.2275 84.0488 52.626 84.2901 53.0595C84.5247 53.4785 84.8174 53.7416 85.1692 53.8523C85.5199 53.9621 85.8858 53.912 86.2653 53.7025C86.5671 53.5381 86.773 53.3296 86.8865 53.076C86.9975 52.8234 87.0167 52.5463 86.941 52.2431L86.4555 52.437ZM84.6191 52.5262C84.5081 52.2922 84.4828 52.0711 84.5459 51.8627C84.609 51.6522 84.7427 51.4918 84.9441 51.38C85.1651 51.2577 85.3953 51.2422 85.6284 51.3329C85.7798 51.3895 85.9267 51.5229 86.0665 51.7283L84.6191 52.5262Z" fill="#3E183A"/>
<path d="M93.0252 48.0036C92.895 47.951 92.7542 47.9359 92.6033 47.9635C92.4519 47.9881 92.2026 48.0582 91.8534 48.172C91.6106 48.2482 91.4628 48.2933 91.4108 48.3053C91.3164 48.3228 91.2397 48.3198 91.1756 48.2973C91.113 48.2757 91.0631 48.2386 91.0278 48.1835C90.9717 48.0993 90.9647 47.9966 91.0066 47.8803C91.0469 47.763 91.1645 47.6422 91.3578 47.5159C91.5223 47.4112 91.6722 47.3661 91.809 47.3801C91.9457 47.3927 92.0643 47.4563 92.1663 47.5721L92.5417 47.2498C92.4105 47.107 92.2803 47.0118 92.1466 46.9611C92.0149 46.911 91.8569 46.9065 91.6717 46.9456C91.489 46.9847 91.2983 47.0669 91.103 47.1922C90.9727 47.2774 90.8622 47.3701 90.7709 47.4769C90.6811 47.5846 90.617 47.6823 90.5837 47.7725C90.5372 47.8898 90.5186 48.0126 90.5297 48.1394C90.5408 48.2662 90.5811 48.384 90.6528 48.4957C90.7315 48.615 90.835 48.7062 90.9622 48.7659C91.0888 48.8275 91.2311 48.8461 91.3876 48.8255C91.544 48.807 91.8024 48.7343 92.1622 48.613C92.4287 48.5228 92.6033 48.4772 92.6856 48.4772C92.8041 48.4772 92.894 48.5253 92.9561 48.62C93.0257 48.7248 93.0378 48.8471 92.9954 48.9859C92.953 49.1227 92.8359 49.257 92.6417 49.3813C92.4494 49.5046 92.2707 49.5567 92.1062 49.5382C91.9417 49.5176 91.7928 49.4324 91.6601 49.2816L91.2872 49.6164C91.5042 49.8484 91.7408 49.9757 91.9987 50.0003C92.2551 50.0248 92.5448 49.9326 92.8682 49.7231C93.0645 49.5978 93.2165 49.452 93.3265 49.2856C93.438 49.1172 93.4925 48.9468 93.495 48.7709C93.496 48.5935 93.4516 48.4361 93.3598 48.2973C93.2674 48.1544 93.1549 48.0567 93.0252 48.0036Z" fill="#3E183A"/>
<path d="M94.8399 47.8237C94.7773 47.8627 94.7233 47.8833 94.6769 47.8853C94.629 47.8873 94.5876 47.8763 94.5497 47.8512C94.5134 47.8257 94.4564 47.7555 94.3771 47.6337L93.4339 46.1898L93.8578 45.9167L93.6439 45.5919L93.221 45.8651L92.6563 45.0015L92.4019 45.5243L92.8011 46.1362L92.4917 46.3357L92.7057 46.6594L93.0141 46.461L93.9426 47.8823C94.1071 48.1329 94.2333 48.2877 94.3181 48.3424C94.4049 48.398 94.5053 48.4236 94.6199 48.4165C94.737 48.4105 94.8702 48.3589 95.0246 48.2597C95.119 48.199 95.2164 48.1188 95.3183 48.0171L95.015 47.6873C94.9459 47.7475 94.8878 47.7936 94.8399 47.8237Z" fill="#3E183A"/>
<path d="M78.4971 54.3211L79.7507 56.9905L80.2058 56.7798L78.9521 54.1103L78.4971 54.3211Z" fill="#3E183A"/>
<path d="M78.9382 56.921C78.8706 56.9516 78.8141 56.9651 78.7671 56.9601C78.7207 56.9551 78.6813 56.9376 78.6475 56.908C78.6147 56.8774 78.5683 56.7993 78.5082 56.6699L77.775 55.1078L78.2332 54.8963L78.0677 54.545L77.6105 54.7565L77.1724 53.8238L76.8464 54.3064L77.1568 54.9669L76.8227 55.1228L76.9872 55.4741L77.3213 55.3183L78.0429 56.8559C78.1701 57.125 78.2726 57.2954 78.3488 57.3631C78.426 57.4297 78.5224 57.4688 78.6369 57.4783C78.7535 57.4884 78.8938 57.4548 79.0588 57.3786C79.1603 57.3315 79.2693 57.2638 79.3848 57.1791L79.131 56.8083C79.0543 56.8604 78.9902 56.898 78.9382 56.921Z" fill="#3E183A"/>
<path d="M78.7127 53.6204L78.4683 53.0998L78.0123 53.3109L78.2566 53.8315L78.7127 53.6204Z" fill="#3E183A"/>
<path d="M76.6138 55.9572C76.5249 55.8425 76.4275 55.7518 76.315 55.6901C76.203 55.6275 76.0667 55.5969 75.9032 55.6029C75.7402 55.6089 75.5772 55.648 75.4162 55.7232C75.0433 55.8956 74.8268 56.1733 74.7667 56.5592L74.5886 56.1793L74.1788 56.3692L75.4309 59.0385L75.8866 58.828L75.2033 57.3696C75.0418 57.0268 75.0034 56.7636 75.0862 56.5747C75.171 56.3888 75.3077 56.2489 75.503 56.1587C75.6241 56.1031 75.7432 56.0805 75.8588 56.0951C75.9744 56.1076 76.0728 56.1497 76.1495 56.2254C76.2277 56.3006 76.31 56.4309 76.3963 56.6148L77.1588 58.2376L77.615 58.0271L76.8444 56.3848C76.7475 56.1763 76.6698 56.0334 76.6138 55.9572Z" fill="#3E183A"/>
</g>
<defs>
<clipPath id="clip0_4_4">
<rect width="131" height="67" fill="white"/>
</clipPath>
</defs>
</svg>
