<svg width="113" height="58" viewBox="0 0 113 58" fill="none" xmlns="http://www.w3.org/2000/svg">
<path d="M39.0501 24.685C38.6963 24.2146 38.2245 23.9795 37.6937 23.9795C36.2784 23.9795 35.2169 24.3322 34.4503 25.0377C33.6837 25.7432 33.2119 26.625 32.976 27.6832C32.7401 28.7414 32.6222 29.976 32.6812 31.3282C32.7401 32.2688 32.8581 32.9743 33.035 33.4446C33.2709 33.9737 33.5657 34.3264 33.9196 34.5028C34.2734 34.738 34.7452 34.8555 35.3349 34.9143H35.7477C36.8681 34.9143 37.8117 34.6204 38.4604 34.0325C39.168 33.4446 39.6398 32.6215 39.8757 31.6809C40.1705 30.6815 40.2885 29.6233 40.2295 28.3887C40.1705 27.6832 40.0526 26.9778 39.8757 26.2723C39.6988 25.6844 39.4039 25.1553 39.0501 24.685ZM38.2245 32.9155C37.8707 33.8561 37.2809 34.3264 36.3964 34.3264C35.8067 34.2676 35.3939 34.0325 35.099 33.6798C34.8041 33.2682 34.6272 32.8567 34.5093 32.3276C34.3913 31.7985 34.3324 31.1518 34.3324 30.4463C34.3324 29.7409 34.3913 28.9178 34.4503 28.0948C34.5683 27.2129 34.7452 26.4486 35.04 25.802C35.3349 25.1553 35.6887 24.8025 36.2195 24.8025C37.0451 24.8025 37.6348 25.2729 38.0476 26.1547C38.4604 27.0365 38.6373 28.036 38.6963 29.2118V29.5057C38.6963 30.7991 38.5783 31.9161 38.2245 32.9155Z" fill="url(#paint0_linear_63_44)"/>
<path d="M26.843 23.9797C26.3712 24.45 26.1943 25.0967 26.1943 25.9785C26.2533 26.978 26.725 27.8598 27.6096 28.7416L28.7891 29.7998C29.2608 30.2114 29.5557 30.5641 29.7916 30.8581C30.0275 31.2108 30.1454 31.6223 30.1454 32.0338C30.1454 32.6217 29.9685 33.0333 29.6147 33.3272C29.2019 33.6212 28.7301 33.68 28.1993 33.6212C27.8455 33.5624 27.5506 33.4448 27.1968 33.2096C26.843 32.9745 26.6661 32.6805 26.4892 32.3278C26.3122 31.9751 26.1943 31.5635 26.1943 31.152C26.1943 30.8581 26.1943 30.6229 26.2533 30.329C26.2533 30.035 26.2533 29.9174 26.3122 29.9174L25.6046 29.7411L25.4277 33.0333C25.6046 33.2096 25.9584 33.386 26.4302 33.6212C26.902 33.8563 27.4917 34.0915 28.1404 34.1503H28.1993C28.907 34.2678 29.4967 34.1503 29.9685 33.8563C30.4403 33.5624 30.8531 33.1508 31.0889 32.6805C31.3248 32.2102 31.4428 31.7399 31.4428 31.2696C31.3838 30.2702 30.8531 29.3295 29.9095 28.5653L28.907 27.7422C28.0224 26.978 27.5506 26.1549 27.4917 25.2731C27.4917 24.9203 27.6096 24.6264 27.8455 24.2736C28.0814 23.9797 28.3763 23.8621 28.7301 23.9209C29.0249 23.9797 29.3198 24.1561 29.4967 24.45C29.6736 24.744 29.7916 25.0967 29.7916 25.4494V26.0373L30.4403 26.1549L30.3813 23.8033C30.3813 23.8033 30.2044 23.7445 29.8505 23.627C29.4967 23.5094 29.2019 23.3918 28.907 23.333C28.0224 23.333 27.3148 23.5094 26.843 23.9797Z" fill="url(#paint1_linear_63_44)"/>
<path d="M3.31334 8.51778C3.6082 8.81173 3.84408 9.16447 4.021 9.63478C4.19791 10.1051 4.25689 10.693 4.31586 11.516L4.55174 19.335C4.55174 19.9817 4.55174 20.3933 4.4338 20.6872C4.37483 20.9224 4.13894 20.9224 3.72614 20.5696L3.01848 19.9817V20.8048C4.021 21.5103 4.8466 22.2157 5.61323 22.8624C6.37986 23.5679 7.08752 24.2146 7.73621 24.8612V24.0382L6.85163 23.2151C6.37986 22.8036 6.085 22.3333 5.90809 21.863C5.73117 21.3927 5.6722 20.8048 5.6722 20.1581L5.37734 10.399C5.43632 10.4578 5.55426 10.5754 5.73117 10.693C5.90809 10.8106 5.96706 10.9281 6.02603 10.9281C6.79266 11.6336 7.38238 12.3391 7.73621 13.1621C8.14901 13.9852 8.32592 14.867 8.38489 15.8665C8.38489 16.6895 8.32592 17.2774 8.09003 17.5714C7.85415 17.8653 7.38238 17.6889 6.73369 17.1598C6.67472 17.101 6.55677 17.0423 6.4978 16.9835C6.26192 16.6895 6.02603 16.4544 5.90809 16.278V17.0423C6.26192 17.5126 6.61575 17.9241 6.9106 18.1593C6.96958 18.218 7.02855 18.2768 7.02855 18.3356C7.91312 19.0999 8.56181 19.2763 8.97461 18.8647C9.44638 18.512 9.62329 17.7477 9.56432 16.5719C9.56432 15.984 9.38741 15.2786 9.15152 14.5731C8.91564 13.8676 8.56181 13.1621 8.149 12.5155C7.7362 11.8688 7.3234 11.3397 6.85163 10.9281C6.73369 10.8106 6.61575 10.693 6.37986 10.5754C6.02603 10.3403 5.49529 9.86994 4.72866 9.28204C4.4338 9.04689 4.07997 8.69415 3.6082 8.22383C3.13643 7.75352 2.84157 7.45957 2.60568 7.2832V7.98868L3.31334 8.51778Z" fill="url(#paint2_linear_63_44)"/>
<path d="M20.2972 31.9158C20.2972 31.7982 20.3561 31.4455 20.4741 30.74C20.592 30.0933 20.7689 29.3291 21.0048 28.5648C21.2407 27.7417 21.5356 27.0363 21.8304 26.3308C22.5381 24.8611 23.1868 24.2144 23.8944 24.4495C24.0124 24.5083 24.0713 24.5083 24.1303 24.5671C24.1893 24.6259 24.2483 24.6259 24.2483 24.6259L24.1893 22.7446C24.1893 22.7446 24.1303 22.6859 24.0713 22.6859C24.0124 22.6271 23.9534 22.6271 23.8355 22.5683C23.4816 22.4507 23.1278 22.5095 22.774 22.8034C22.5971 22.921 22.4791 23.1562 22.3022 23.4501C22.1253 23.7441 21.9484 24.0968 21.8304 24.4495C21.6535 24.8023 21.4766 25.3314 21.1817 25.9781C20.9459 26.6247 20.7689 26.9775 20.7689 27.0363L20.8279 21.5101C20.2972 21.5689 19.7075 21.6276 18.9998 21.5688C18.2921 21.5101 17.7024 21.4513 17.2307 21.2749L17.2896 22.1567L19.2947 22.3919L19.1177 31.5631L20.2972 31.9158Z" fill="url(#paint3_linear_63_44)"/>
<path d="M12.1001 27.5653C12.5129 28.212 13.0436 28.6823 13.6923 28.9762C14.5769 29.4465 15.2846 29.5641 15.7563 29.2702C16.2281 28.9762 16.523 28.5647 16.6409 28.0944C16.7589 27.5653 16.8178 27.1538 16.8178 26.8598L16.2281 26.4483V26.6247C16.2281 27.095 16.1691 27.5065 15.9922 27.8004C15.8153 28.0944 15.5794 28.3295 15.2256 28.3883C14.8718 28.4471 14.5179 28.3883 14.1641 28.212C12.9257 27.5065 12.218 25.978 12.0411 23.6264C12.0411 23.1561 12.1001 22.8621 12.1001 22.8621C13.4564 23.3912 14.7538 23.8028 15.9922 23.9791C16.1102 23.2737 16.1691 22.6858 16.1691 22.2154C16.1691 21.6863 16.0512 21.1572 15.9332 20.6869C15.7563 20.2166 15.5204 19.7463 15.2256 19.3348C14.8718 18.9232 14.459 18.5705 13.9282 18.2766C13.3385 17.9826 12.8078 17.9238 12.395 18.1002C11.9822 18.2766 11.6873 18.5705 11.3924 19.0996C11.1566 19.6287 10.9796 20.2166 10.8617 20.8633C10.7438 21.5688 10.6848 22.2742 10.6848 23.1561C10.6848 23.9791 10.8027 24.7434 11.0386 25.5077C11.3335 26.2131 11.6873 26.9186 12.1001 27.5653ZM12.5719 19.6287C12.8667 18.8057 13.3385 18.5117 13.9282 18.8644C14.341 19.0996 14.6359 19.4523 14.7538 19.8639C14.8718 20.3342 14.9897 20.8633 14.9897 21.3924C14.9897 21.9215 14.9307 22.2742 14.6948 22.5682C14.5179 22.8621 14.1641 22.9209 13.8103 22.8033L12.1591 22.2154C12.1591 22.2154 12.1591 22.2154 12.1591 22.1567C12.1591 22.1567 12.1591 22.0979 12.1001 22.0979C12.1591 21.2748 12.277 20.5106 12.5719 19.6287Z" fill="url(#paint4_linear_63_44)"/>
<path d="M80.0942 13.2205L80.1532 14.8078C80.2711 17.8061 80.1532 20.5692 79.8583 23.1559L81.4506 22.0389L81.8044 10.9277C80.2122 12.2799 79.0328 13.1617 78.2072 13.632V14.4551L80.0942 13.2205Z" fill="url(#paint5_linear_63_44)"/>
<path d="M63.995 24.3324C63.5822 25.5082 63.4053 26.5664 63.4053 27.507C63.4643 29.0943 63.8771 29.6822 64.7027 29.4471C65.2924 29.2119 65.8231 28.8004 66.4129 28.2125C66.9436 27.6246 67.4154 26.9191 67.7692 26.1549L69.5383 22.3923L69.5973 23.5093C69.5973 24.156 69.5973 24.6851 69.5973 25.2142C69.5383 25.6845 69.4794 26.5076 69.3614 27.5658C69.3614 27.7422 69.4204 27.801 69.4794 27.801C69.5383 27.7422 69.5973 27.7422 69.6563 27.6834C70.305 27.0955 70.7767 26.684 71.0716 26.4488C71.3665 26.2136 71.8972 25.9197 72.6049 25.4494L72.31 25.0379C71.9562 25.2142 71.6023 25.4494 71.1895 25.7433C71.0126 25.8021 70.8947 25.5082 70.8357 24.8027C70.8357 24.3324 70.8357 23.8033 70.8947 23.2154C70.8947 22.6275 71.0126 21.5105 71.0716 19.8644C71.1895 18.1595 71.2485 16.8661 71.3075 15.8667L69.7742 16.631C69.6563 16.6898 69.5383 16.6898 69.3614 16.6898C69.1845 16.6898 69.0666 16.6898 68.8897 16.7485C68.4769 16.9249 67.9461 17.3952 67.2974 18.1595C66.6487 18.9238 66.059 19.8644 65.4693 20.9226C64.8206 22.0396 64.3488 23.1566 63.995 24.3324ZM67.7102 18.6886C68.123 18.1007 68.5358 17.748 68.8307 17.6304C68.9486 17.5716 69.0076 17.5716 69.0666 17.6304C69.4204 17.6304 69.5973 17.9831 69.5973 18.6298C69.5973 19.2765 69.5973 19.8056 69.4794 20.2171C69.3025 21.099 69.0076 22.0396 68.5948 23.039C68.241 24.0972 67.7692 24.9791 67.2974 25.8021C66.8257 26.6252 66.3539 27.0955 65.8231 27.3306C65.2334 27.5658 64.8796 27.2131 64.7617 26.3312C64.7617 26.2136 64.8206 26.0961 64.8206 25.9785C64.8206 25.2142 64.9975 24.3324 65.2924 23.4505C65.5872 22.5099 65.9411 21.6281 66.3539 20.805C66.8257 19.982 67.2385 19.2765 67.7102 18.6886Z" fill="url(#paint6_linear_63_44)"/>
<path d="M79.9173 8.63584C80.1532 8.81221 80.3891 8.81221 80.684 8.63584C81.0378 8.45947 81.3327 8.16553 81.5096 7.754C81.7455 7.34247 81.8634 6.93095 81.8044 6.57821C81.8044 6.22547 81.6865 5.99032 81.3916 5.81395C81.1557 5.63758 80.8609 5.69637 80.5071 5.81395C80.1532 5.99032 79.9173 6.28426 79.6815 6.69579C79.5045 7.10732 79.3866 7.51884 79.3866 7.87158C79.6225 8.22432 79.7404 8.51826 79.9173 8.63584Z" fill="url(#paint7_linear_63_44)"/>
<path d="M59.5132 31.4455C60.5747 30.5049 61.6362 29.8582 62.6977 29.4466V28.6824L61.1054 29.3879L61.3413 19.8052L60.1029 20.1579C59.3363 21.2161 58.6876 22.1568 58.1569 23.0386C57.5672 23.9204 57.0954 24.8023 56.6236 25.6841C56.1518 26.566 55.6801 27.5066 55.2673 28.506L55.739 21.2161C54.6775 22.2155 53.4981 22.921 52.2007 23.3325V24.2144L53.9109 23.2738L53.734 32.8564L55.0904 32.4449C55.1493 31.4455 55.3262 30.5636 55.6211 29.6818C55.857 28.8 56.2108 27.9769 56.6236 27.2126C57.0364 26.4484 57.3902 25.7429 57.7441 25.155C58.0979 24.5671 58.7466 23.5089 59.7491 21.9804C59.8081 26.1544 59.6312 29.2703 59.2184 31.2691L59.5132 31.4455Z" fill="url(#paint8_linear_63_44)"/>
<path d="M94.8371 0.463772L93.6577 0.0522461L91.2399 3.57961L91.5347 3.81477L94.8371 0.463772Z" fill="url(#paint9_linear_63_44)"/>
<path d="M91.1219 16.337C91.5937 16.5133 92.1834 16.337 92.8911 15.9842C93.8346 15.4551 94.6012 14.7497 95.132 13.9266C95.6627 13.1036 95.9576 12.3393 96.1345 11.6338C96.3114 10.9283 96.3704 10.458 96.3704 10.1641L95.7217 10.3992V10.5756C95.7217 11.0459 95.6627 11.5162 95.4268 12.1041C95.2499 12.6332 94.9551 13.1623 94.6012 13.5739C94.2474 14.0442 93.8346 14.3969 93.4218 14.5733C92.0655 15.2788 91.2988 14.4557 91.1219 12.2805C91.1219 11.7514 91.1809 11.4575 91.1809 11.4575C92.6552 10.458 94.0705 9.34103 95.4268 8.10645C95.5448 7.22461 95.6038 6.57793 95.6038 6.10761C95.6038 5.57851 95.4858 5.10819 95.3089 4.81424C95.132 4.46151 94.8961 4.28514 94.5423 4.22635C94.1884 4.16756 93.7167 4.28514 93.1269 4.63788C92.4783 4.99061 91.9475 5.51972 91.4757 6.1664C91.004 6.81309 90.6501 7.51856 90.4143 8.34161C90.1784 9.10587 89.9425 9.92893 89.8835 10.752C89.7656 11.575 89.7066 12.3981 89.7066 13.2799C89.7066 14.103 89.8835 14.7497 90.1194 15.3376C90.2963 15.8079 90.6501 16.1606 91.1219 16.337ZM91.6527 7.57735C91.9475 6.40156 92.4783 5.57851 93.1859 5.16698C93.6577 4.93182 93.9526 4.93182 94.1295 5.28456C94.2474 5.57851 94.3654 6.04882 94.3654 6.63672C94.3654 7.16582 94.2474 7.63614 94.0705 8.16524C93.8346 8.69435 93.5398 9.10587 93.068 9.39982L91.2399 10.6932C91.2399 10.6932 91.2399 10.6932 91.2399 10.6344C91.2399 10.6344 91.2399 10.5756 91.1809 10.5756C91.1809 9.81135 91.3578 8.75314 91.6527 7.57735Z" fill="url(#paint10_linear_63_44)"/>
<path d="M84.5171 10.5754C84.3991 13.9264 84.3402 16.3368 84.3402 17.8653C84.3402 18.1005 84.3991 18.4532 84.3991 18.9235C84.4581 19.3938 84.4581 19.7466 84.4581 19.9817C84.5761 19.9817 84.8709 19.9817 85.1658 19.9817C85.5196 19.9817 85.9324 19.8054 86.3452 19.5702C86.9349 19.2763 87.4067 18.8647 87.8195 18.3356C88.2323 17.8065 88.5861 17.2186 88.763 16.6307C88.9989 15.984 89.0579 15.3374 89.0579 14.6319L88.4682 14.9258C88.4682 15.6901 88.3502 16.3368 88.0554 16.9247C87.7605 17.5126 87.4067 17.9829 86.9349 18.2768C86.9349 18.2768 86.9349 18.2768 86.8759 18.2768L86.817 18.3356C86.5221 18.512 86.2862 18.512 86.1093 18.3356C85.9324 18.218 85.8734 17.9829 85.8145 17.6302C85.7555 17.2774 85.7555 16.8071 85.6965 16.1604C85.6375 11.9864 85.6375 9.86995 85.6965 9.75237L88.0554 8.51779V7.57716L85.8734 8.81174L86.0503 6.10742L84.4581 7.342L84.3991 9.576L82.9838 10.2815L83.0428 11.2221L84.5171 10.5754Z" fill="url(#paint11_linear_63_44)"/>
<path d="M73.7843 26.0372C74.9637 25.0377 76.2021 24.2147 77.4995 23.568L77.4405 22.6274L75.4945 23.9207C75.4945 23.7444 75.4945 22.9801 75.4945 21.5104C75.4945 20.0406 75.4945 18.3945 75.5534 16.5133C75.6124 14.632 75.6124 12.9271 75.7304 11.3398C75.7893 9.75249 75.9073 8.5767 76.0842 7.75364C76.2611 6.63664 76.497 5.81359 76.7329 5.2257C76.9688 4.6378 77.1457 4.22628 77.3226 4.04991C77.4995 3.81475 77.6174 3.69717 77.6764 3.63838V2.9917L75.3176 4.04991C75.1406 5.2257 74.9637 6.22512 74.8458 7.16575C74.7278 8.04759 74.6099 8.92943 74.492 9.6937C74.374 10.5167 74.315 11.3398 74.2561 12.2216C74.1971 13.1035 74.1381 14.1029 74.0792 15.2787C74.0202 16.1605 74.0202 16.9836 73.9612 17.8654C73.9612 18.7473 73.9612 19.8055 73.9612 21.0401C73.9612 22.2746 73.9612 23.2741 73.9612 23.9795C73.7843 24.6262 73.7843 25.3317 73.7843 26.0372Z" fill="url(#paint12_linear_63_44)"/>
<path d="M48.4265 34.1504C49.488 33.3861 50.5495 32.857 51.67 32.6806V31.9164L50.0777 32.3279L50.2547 22.8628L49.0162 23.0392C48.2496 23.9798 47.6009 24.8028 47.0112 25.6259C46.4215 26.3902 45.8908 27.2132 45.419 27.9775C44.9472 28.8005 44.4754 29.6236 44.0626 30.5642L44.5934 23.3919C43.5319 24.215 42.3525 24.7441 40.9961 24.9792V25.8611L42.7653 25.2144L42.5294 34.6795L43.8857 34.5031C43.9447 33.5625 44.1216 32.6218 44.4165 31.7988C44.6524 30.9757 45.0062 30.2115 45.419 29.4472C45.8318 28.7417 46.1856 28.0951 46.5394 27.5659C46.8933 27.0368 47.6009 26.0962 48.6035 24.7441C48.6624 28.9181 48.4855 31.9752 48.0137 33.9152L48.4265 34.1504Z" fill="url(#paint13_linear_63_44)"/>
<path d="M24.9559 40.8519C9.74124 37.2657 1.66215 28.7413 0.60066 15.2785C0.128888 18.2767 -0.0480269 21.0398 0.0109446 23.5678C-0.755685 71.4812 78.4431 55.1965 107.929 7.45948C107.929 7.45948 108.106 7.22432 108.695 5.98975C85.7555 28.1534 59.867 44.1441 24.9559 40.8519Z" fill="url(#paint14_linear_63_44)"/>
<path d="M111.585 2.87393C108.342 -0.065541 103.801 1.99209 99.1421 4.69641C110.642 1.34541 112.411 6.69525 109.757 16.0428C112.47 10.8693 114.475 5.93098 111.585 2.87393Z" fill="url(#paint15_linear_63_44)"/>
<path d="M36.2784 13.2797C36.4553 13.2797 36.6323 13.2797 36.6912 13.2797C36.8092 13.2797 36.8681 13.4561 36.9271 13.6912C36.9861 13.9264 36.9861 14.2791 36.9861 14.6906L37.104 18.3356C37.104 18.8647 36.9271 19.1586 36.5733 19.1586H36.1015V19.5702C36.5143 19.5114 37.0451 19.5114 37.5758 19.5114C38.1065 19.5114 38.6373 19.5702 39.0501 19.629V19.2174H38.5193C38.2245 19.2174 38.0476 19.0411 37.9886 18.7471C37.9296 18.4532 37.8707 18.1004 37.8117 17.6301L37.6937 14.2791C37.6937 14.2203 37.6937 14.1615 37.6937 14.1615C37.6937 13.8676 37.7527 13.6912 37.8117 13.5148C37.8707 13.3973 38.0476 13.2797 38.2835 13.2797H38.7552V12.8682C38.5783 12.8682 38.0476 12.927 37.2809 12.927C36.5143 12.8682 35.9836 12.8682 35.8656 12.8682V13.2797H36.2784Z" fill="url(#paint16_linear_63_44)"/>
<path d="M29.4967 13.7496C29.4967 13.6908 29.4967 13.632 29.4967 13.5733C29.4967 13.3381 29.5557 13.1617 29.6147 13.0441C29.6736 12.8678 29.7916 12.8678 30.0275 12.8678L31.9735 13.0441L32.1504 17.5121C32.1504 17.9825 32.1504 18.2176 32.1504 18.3352C32.1504 18.4528 32.0915 18.5704 31.9735 18.6291C31.8556 18.6879 31.6197 18.6879 31.3248 18.6879L30.8531 18.6291V19.0407C31.6787 19.0407 32.2094 19.0407 32.5632 19.0995C32.976 19.1582 33.6247 19.217 34.4503 19.3346V18.9231L34.0375 18.8643C33.7427 18.8643 33.5068 18.8055 33.3299 18.6879C33.2119 18.5704 33.094 18.4528 33.035 18.2764C32.976 18.1 32.976 17.8061 32.9171 17.4534L32.7402 13.0441L34.3324 13.1617C34.5683 13.1617 34.6862 13.2205 34.8042 13.2793C34.9221 13.3381 34.9811 13.4557 34.9811 13.5145C34.9811 13.632 35.04 13.8084 35.04 14.0436L35.3939 14.1024L35.3349 12.6326C34.4503 12.6326 33.3299 12.5738 32.0325 12.4563C30.7941 12.3387 29.7916 12.2211 28.966 12.1035L29.0249 13.5733L29.4967 13.7496Z" fill="url(#paint17_linear_63_44)"/>
<path d="M39.8167 14.3377C39.8167 14.2789 39.8167 14.2201 39.8167 14.1613C39.8167 13.9262 39.8757 13.691 39.9347 13.5734C39.9937 13.4559 40.1706 13.3971 40.4065 13.3971L42.3525 13.3383L42.5294 17.8063C42.5294 18.2766 42.5294 18.5118 42.5294 18.6293C42.5294 18.7469 42.4705 18.8645 42.3525 18.9233C42.2346 18.9821 41.9987 19.0409 41.7038 19.0409H41.2321V19.4524C42.0577 19.3348 42.5884 19.3348 42.9422 19.276C43.355 19.276 44.0037 19.276 44.8293 19.276V18.8645H44.4165C44.1217 18.8645 43.8858 18.8645 43.7089 18.7469C43.5909 18.6881 43.473 18.5705 43.414 18.3942C43.355 18.2178 43.355 17.9239 43.2961 17.5711L43.1191 13.1619L44.7114 13.1031C44.9473 13.1031 45.0652 13.1031 45.1832 13.1619C45.3011 13.2207 45.3601 13.2795 45.3601 13.3971C45.3601 13.5147 45.419 13.691 45.419 13.9262H45.8318L45.7139 12.6328C44.8293 12.7504 43.7089 12.8092 42.4115 12.868C41.1731 12.868 40.1706 12.868 39.345 12.868L39.4039 14.3377H39.8167Z" fill="url(#paint18_linear_63_44)"/>
<path d="M61.931 15.9845C62.4618 16.1608 63.0515 16.1608 63.6412 15.9845C64.2309 15.8081 64.8207 15.5142 65.2924 15.1026C65.7642 14.6911 66.177 14.162 66.4719 13.5741C66.7667 12.9862 66.8847 12.2807 66.8257 11.6341C66.8257 10.9874 66.6488 10.4583 66.2949 9.98795C65.9411 9.51763 65.5283 9.22368 64.9976 9.04732C64.4668 8.87095 63.8771 8.87095 63.2874 9.04732C62.8156 9.16489 62.4028 9.40005 62.049 9.694C61.6362 9.98795 61.2824 10.2819 61.0465 10.6934C60.7516 11.1049 60.5157 11.5165 60.3978 11.9868C60.2209 12.4571 60.1619 12.9274 60.2209 13.4565C60.2798 14.1032 60.3978 14.6323 60.7516 15.1026C60.9875 15.5142 61.4003 15.8081 61.931 15.9845ZM61.2234 11.5165C61.4003 11.0462 61.6952 10.6346 62.108 10.2819C62.4618 9.92916 62.9336 9.694 63.4053 9.51763C63.7592 9.40005 64.113 9.40005 64.4079 9.45884C64.7027 9.51763 64.9976 9.694 65.2335 9.92916C65.4693 10.1643 65.6463 10.3995 65.8232 10.7522C65.9411 11.1049 66.0591 11.4577 66.0591 11.8104C66.0591 12.4571 66.0001 12.9862 65.8232 13.5153C65.6463 14.0444 65.3514 14.4559 64.9976 14.7499C64.6437 15.1026 64.172 15.3378 63.7002 15.5142C63.7002 15.5142 63.7002 15.5142 63.6412 15.5729C63.1695 15.6905 62.6977 15.6905 62.2849 15.5142C61.8721 15.3378 61.5772 14.985 61.3413 14.5735C61.1054 14.162 60.9875 13.6329 60.9875 13.1038C60.9285 12.5159 61.0465 12.0456 61.2234 11.5165Z" fill="url(#paint19_linear_63_44)"/>
<path d="M26.2533 15.1022L27.0199 15.6313C27.7276 16.1016 28.0814 16.6307 28.1404 17.2186C28.1404 17.5714 28.0224 17.8653 27.7865 18.0417C27.5506 18.2181 27.2558 18.2768 26.9019 18.2181C26.5481 18.1593 26.2533 17.9829 25.9584 17.6302C25.7225 17.3362 25.5456 16.9835 25.5456 16.5719V16.1016L25.0738 16.0428C25.1328 16.3956 25.1918 16.7483 25.1918 17.1011C25.1918 17.1598 25.1918 17.3362 25.1918 17.4538C25.1918 17.6302 25.1918 17.7477 25.1918 17.8065C25.3097 17.8653 25.5456 18.0417 25.8994 18.2181C26.2533 18.3944 26.6071 18.512 26.9019 18.5708C27.3147 18.6296 27.6686 18.5708 27.9634 18.4532C28.2583 18.3356 28.4352 18.1005 28.5532 17.8653C28.6711 17.5714 28.7301 17.2774 28.7301 16.8659C28.7301 16.4544 28.5532 15.9841 28.3173 15.5725C28.0224 15.161 27.6686 14.8083 27.2558 14.5143L26.6071 14.1028C26.0174 13.6913 25.7225 13.2797 25.6635 12.6918C25.6635 12.3979 25.7815 12.2215 25.9584 12.0452C26.1353 11.8688 26.3712 11.81 26.6661 11.8688C26.902 11.9276 27.0789 11.9864 27.2558 12.1627C27.3737 12.2803 27.4917 12.4567 27.5506 12.6331C27.6096 12.8094 27.6096 12.9858 27.6096 13.1034V13.1622L28.0224 13.221L27.9634 11.8688L27.7865 11.81C27.7276 11.81 27.7276 11.7512 27.6096 11.7512C27.1968 11.81 26.843 11.6924 26.6661 11.6924C26.3712 11.6336 26.0763 11.6336 25.8405 11.7512C25.6046 11.81 25.3687 11.9864 25.2507 12.2215C25.1328 12.4567 25.0149 12.7506 25.0149 13.1034C25.0738 13.8676 25.4866 14.5143 26.2533 15.1022Z" fill="url(#paint20_linear_63_44)"/>
<path d="M46.5395 12.986C46.7164 12.986 46.8933 12.986 46.9523 13.1036C47.0702 13.2212 47.0702 13.3388 47.1292 13.5151C47.1292 13.6915 47.1882 13.9855 47.1882 14.3382L47.3061 16.631C47.3061 17.1601 47.4241 17.5716 47.542 17.9244C47.6599 18.2771 47.8958 18.5123 48.1317 18.6886C48.3676 18.865 48.6625 18.9826 48.9573 19.0414C49.2522 19.1001 49.665 19.1001 50.0778 19.0414C50.9034 18.9238 51.611 18.6298 52.0238 18.1007C52.4956 17.5716 52.6725 16.8074 52.6725 15.8079L52.5546 13.28C52.5546 12.9273 52.5546 12.6921 52.6135 12.5157C52.6725 12.3394 52.7905 12.2806 53.0263 12.2218L53.3212 12.163V11.7515C52.9084 11.869 52.3777 11.9278 51.7879 12.0454C51.2572 12.1042 50.8444 12.1042 50.6085 12.1042V12.5157L51.0803 12.4569C51.3162 12.4569 51.4341 12.4569 51.5521 12.4569C51.67 12.5157 51.729 12.5745 51.7879 12.8097C51.8469 12.986 51.9059 13.3388 51.9059 13.8091L51.9649 15.6904C52.0238 16.5722 51.8469 17.2777 51.4931 17.6892C51.1393 18.1595 50.6675 18.3947 49.9598 18.5122C49.547 18.571 49.1932 18.5123 48.8983 18.3947C48.6035 18.2771 48.3676 18.0419 48.1907 17.748C48.0138 17.454 47.8958 17.0425 47.8958 16.5134L47.7779 13.8091C47.7779 13.5739 47.7779 13.3976 47.7779 13.2212C47.7779 13.1036 47.8369 12.986 47.8958 12.8685C47.9548 12.7509 48.1317 12.7509 48.3086 12.6921L48.7804 12.6333V12.2218C48.5445 12.2806 48.0727 12.3981 47.4241 12.5157C46.7754 12.5745 46.3036 12.5745 46.1267 12.5745V12.986H46.5395Z" fill="url(#paint21_linear_63_44)"/>
<path d="M54.2647 12.8683C54.2647 12.8095 54.2647 12.7507 54.2647 12.6919C54.2647 12.4568 54.3237 12.2216 54.3827 12.104C54.4416 11.9864 54.6186 11.8689 54.7955 11.8101L56.6826 11.3985L56.8595 15.8665C56.8595 16.3369 56.8595 16.572 56.8595 16.7484C56.8595 16.866 56.8005 16.9835 56.6826 17.1011C56.5646 17.2187 56.3877 17.2775 56.0339 17.3363L55.5621 17.4539V17.8654C56.3287 17.6302 56.9184 17.5126 57.2133 17.3951C57.6261 17.3363 58.2158 17.2187 59.0414 17.1011V16.6896L58.6286 16.7484C58.3338 16.8072 58.0979 16.8072 57.9799 16.7484C57.862 16.6896 57.744 16.572 57.6851 16.3956C57.6261 16.2193 57.6261 15.9253 57.5671 15.5726L57.3902 11.1634L58.9235 10.8106C59.1594 10.7519 59.2773 10.7519 59.3952 10.8106C59.5132 10.8694 59.5722 10.9282 59.5722 11.0458C59.5722 11.1634 59.6311 11.3398 59.6311 11.5749L59.985 11.5161L59.926 10.0464C59.0414 10.2815 57.9799 10.5755 56.7415 10.8694C55.5621 11.1046 54.5596 11.281 53.734 11.3985L53.7929 12.8683H54.2647Z" fill="url(#paint22_linear_63_44)"/>
<path d="M13.8103 8.81221C13.9872 8.871 14.1051 8.92979 14.1641 8.92979C14.2821 8.98858 14.341 9.16495 14.4 9.40011C14.459 9.63526 14.459 9.988 14.459 10.3995L14.5769 14.0445C14.5769 14.5736 14.4 14.8087 14.0462 14.6912L13.5744 14.5148V14.9263C13.9872 14.9851 14.459 15.1027 14.9897 15.279C15.5205 15.4554 15.9922 15.6318 16.405 15.8082V15.3966L15.9333 15.2203C15.6974 15.1615 15.5205 14.9263 15.4025 14.6324C15.3436 14.3384 15.2846 13.9269 15.2846 13.4566L15.1666 10.1056C15.1666 10.0468 15.1666 9.988 15.1666 9.988C15.1666 9.69405 15.2256 9.51768 15.2846 9.40011C15.3436 9.28253 15.5205 9.28253 15.7564 9.34132L16.1692 9.4589V9.04737C15.9922 8.98858 15.5205 8.871 14.7538 8.69463C13.9872 8.40068 13.5154 8.22432 13.3975 8.16553V8.57705L13.8103 8.81221Z" fill="url(#paint23_linear_63_44)"/>
<path d="M17.2306 9.98711C17.4075 10.0459 17.5845 10.1047 17.6434 10.2223C17.7024 10.3398 17.7614 10.5162 17.7614 10.7514L17.9383 14.9842V15.1606C17.9383 15.4545 17.9383 15.6309 17.8793 15.7485C17.8203 15.8661 17.6434 15.8661 17.4075 15.8073L17.0537 15.6897V16.1012C17.4665 16.16 17.9383 16.2776 18.3511 16.3952C18.8818 16.5127 19.2946 16.6891 19.7074 16.8067V16.3952L19.1767 16.3364C18.8818 16.2776 18.6459 16.1012 18.587 15.8661C18.469 15.6309 18.4101 15.337 18.4101 14.9254L18.2331 10.8102L23.4816 17.9825L23.7175 18.0413L23.4816 12.1035C23.4816 11.9272 23.4816 11.8096 23.5406 11.7508C23.5995 11.692 23.7175 11.692 23.8944 11.7508L24.3662 11.8684V11.4568C23.9534 11.3981 23.4816 11.2805 23.0098 11.2217C22.5381 11.1041 22.1253 10.9277 21.7125 10.8102V11.2805L22.0073 11.3393L22.3611 11.4568C22.5381 11.5156 22.597 11.5744 22.715 11.6332C22.7739 11.692 22.8329 11.8684 22.8329 12.1035L23.1867 16.454L18.469 9.92832C18.3511 9.92832 18.0562 9.86953 17.6434 9.81074C17.2306 9.69316 16.9358 9.57559 16.7589 9.45801V9.86953L17.2306 9.98711Z" fill="url(#paint24_linear_63_44)"/>
<path d="M83.5147 39.5586C83.5736 39.7349 83.5736 39.9113 83.5147 40.0289C83.4557 40.1465 83.3967 40.2641 83.2788 40.3816C83.1018 40.4992 82.9249 40.558 82.689 40.4992C82.5121 40.4404 82.2762 40.3228 82.0993 40.0877L83.6916 38.9707C83.6916 38.9119 83.6326 38.9119 83.6326 38.8531C83.3967 38.5004 83.1018 38.324 82.807 38.2652C82.5121 38.2064 82.2173 38.2652 81.9224 38.4416C81.6276 38.6179 81.4506 38.9119 81.3917 39.2058C81.3327 39.4998 81.4506 39.8525 81.6865 40.2053C81.9224 40.558 82.2173 40.7344 82.5121 40.7932C82.807 40.8519 83.1608 40.7932 83.4557 40.558C83.6916 40.3816 83.8685 40.2053 83.9275 39.9701C83.9864 39.7349 83.9864 39.4998 83.9275 39.2646L83.5147 39.5586ZM81.8045 39.2058C81.8634 39.0295 81.9224 38.8531 82.0993 38.7355C82.2762 38.6179 82.4532 38.5592 82.689 38.618C82.807 38.6767 82.9839 38.7355 83.1018 38.9119L81.9224 39.7349C81.8634 39.6174 81.8045 39.441 81.8045 39.2058Z" fill="url(#paint25_linear_63_44)"/>
<path d="M87.5247 36.4431C87.6426 36.6194 87.6426 36.7958 87.6426 36.9722C87.6426 37.1485 87.5247 37.2661 87.4067 37.3249C87.2298 37.4425 87.0529 37.5013 86.876 37.4425C86.6991 37.3837 86.4632 37.2661 86.2863 36.9722C86.1094 36.6782 85.9914 36.4431 85.9914 36.2667C85.9914 36.0316 86.1094 35.914 86.2863 35.7376C86.4042 35.6788 86.5222 35.62 86.6401 35.62C86.7581 35.62 86.935 35.6788 87.0529 35.7964L87.3478 35.5024C87.1709 35.3261 86.935 35.2085 86.6991 35.2085C86.4632 35.2085 86.2273 35.2673 86.0504 35.4437C85.8735 35.5612 85.7555 35.7376 85.6376 35.914C85.5786 36.0903 85.5197 36.3255 85.5786 36.5607C85.6376 36.7958 85.7555 37.031 85.9325 37.2073C86.1683 37.5601 86.4632 37.7364 86.7581 37.7952C87.0529 37.854 87.3478 37.7952 87.6426 37.5601C87.8785 37.3837 87.9965 37.2073 88.0554 36.9134C88.1144 36.6194 88.0554 36.3843 87.9375 36.1491L87.5247 36.4431Z" fill="url(#paint26_linear_63_44)"/>
<path d="M89.7066 34.6208L89.3528 34.1505C89.2348 33.9741 89.1759 33.9153 89.1169 33.8565C88.999 33.7978 88.94 33.739 88.822 33.6802C88.7041 33.6802 88.5862 33.6802 88.4682 33.739C88.3503 33.7978 88.1734 33.8565 87.9964 34.0329C87.8195 34.1505 87.7016 34.3269 87.5836 34.4444C87.4657 34.6208 87.4657 34.7384 87.4657 34.856C87.4657 34.9735 87.5247 35.1499 87.5836 35.3263L87.9375 35.0911C87.8785 34.9148 87.8195 34.7972 87.8785 34.6796C87.9375 34.562 87.9964 34.4444 88.1734 34.3269C88.3503 34.2093 88.5272 34.1505 88.6451 34.1505C88.7631 34.1505 88.881 34.2093 88.999 34.3856C88.999 34.3856 89.0579 34.4444 89.0579 34.5032C88.94 34.6208 88.7631 34.856 88.5272 35.0911C88.4092 35.2087 88.2913 35.3263 88.2913 35.3851C88.2323 35.5026 88.1734 35.5614 88.1144 35.679C88.0554 35.7966 88.0554 35.9142 88.1144 36.0318C88.1144 36.1493 88.1734 36.2669 88.2323 36.3257C88.3503 36.5021 88.5272 36.5609 88.7631 36.6196C88.94 36.6196 89.1759 36.5609 89.4118 36.3845C89.5297 36.2669 89.6476 36.1493 89.7656 36.0318C89.8246 35.9142 89.8835 35.7378 89.9425 35.5026C90.0015 35.6202 90.1194 35.679 90.1784 35.679L90.5322 35.3851C90.4143 35.3263 90.3553 35.2675 90.2374 35.2087C90.1194 35.1499 90.0015 34.9148 89.7066 34.6208ZM89.5297 35.6202C89.4707 35.7378 89.3528 35.8554 89.2348 35.973C89.1169 36.0905 88.999 36.1493 88.881 36.0905C88.7631 36.0905 88.6451 36.0318 88.5862 35.973C88.5272 35.9142 88.5272 35.8554 88.5272 35.7966C88.5272 35.7378 88.5272 35.679 88.5862 35.5614C88.6451 35.5026 88.7041 35.3851 88.822 35.2675C89.0579 35.0323 89.1759 34.856 89.2938 34.6796L89.4118 34.7972C89.5297 34.9735 89.5887 35.0911 89.6476 35.2087C89.5887 35.3851 89.5887 35.5026 89.5297 35.6202Z" fill="url(#paint27_linear_63_44)"/>
<path d="M94.8372 29.9171C94.5423 29.6231 94.2474 29.4468 93.9526 29.4468C93.6577 29.4468 93.3629 29.5056 93.068 29.7407C92.8321 29.9759 92.7142 30.211 92.6552 30.505C92.5962 30.8577 92.7732 31.2105 93.068 31.5632C93.3629 31.8571 93.6577 32.0335 93.9526 32.0923C94.2474 32.0923 94.5423 32.0335 94.8372 31.7396C95.0141 31.5632 95.132 31.3868 95.191 31.2105C95.25 31.0341 95.25 30.7989 95.191 30.6226C95.191 30.3874 95.0731 30.1523 94.8372 29.9171ZM94.6602 31.4456C94.4833 31.5632 94.3064 31.622 94.0705 31.622C93.8346 31.622 93.6577 31.4456 93.4218 31.2105C93.186 30.9753 93.068 30.7401 93.068 30.505C93.068 30.2698 93.127 30.0935 93.3039 29.9759C93.4808 29.8583 93.6577 29.7995 93.8936 29.7995C94.1295 29.7995 94.3064 29.9759 94.5423 30.211C94.7782 30.4462 94.8961 30.6814 94.8961 30.9165C94.8961 31.1517 94.8372 31.328 94.6602 31.4456Z" fill="url(#paint28_linear_63_44)"/>
<path d="M90.945 30.4467L91.7706 31.3873C91.6527 31.3285 91.5347 31.3285 91.3578 31.3873C91.2399 31.3873 91.1219 31.5049 91.004 31.5637C90.8271 31.6813 90.7091 31.8576 90.6502 32.034C90.5912 32.2104 90.5912 32.4455 90.6502 32.6219C90.7091 32.857 90.8271 33.0334 91.004 33.2098C91.1809 33.3862 91.3578 33.5625 91.5347 33.6213C91.7116 33.7389 91.9475 33.7389 92.1244 33.7389C92.3014 33.7389 92.4783 33.6213 92.6552 33.5037C92.8911 33.3274 93.009 33.0334 92.9501 32.7395L93.1859 32.9746L93.4808 32.7395L91.1809 30.0352L90.945 30.4467ZM92.4783 32.1516C92.6552 32.3867 92.7731 32.6219 92.7731 32.7983C92.7731 32.9746 92.7142 33.151 92.5372 33.2686C92.4193 33.3862 92.2424 33.4449 92.0065 33.3862C91.7706 33.3274 91.5937 33.2098 91.3578 32.9746C91.1219 32.7395 91.004 32.5043 91.004 32.2692C91.004 32.034 91.063 31.9164 91.2399 31.7988C91.4168 31.6813 91.5937 31.6225 91.7706 31.6813C92.0065 31.74 92.2424 31.8576 92.4783 32.1516Z" fill="url(#paint29_linear_63_44)"/>
<path d="M85.2248 38.9121C85.1658 38.9709 85.1069 38.9709 85.1069 38.9709C85.0479 38.9709 85.0479 38.9709 84.9889 38.9709C84.9299 38.9709 84.9299 38.9121 84.812 38.7945L83.9274 37.56L84.2812 37.3248L84.1043 37.0309L83.7505 37.266L83.2198 36.5605L83.0428 37.0309L83.3967 37.56L83.1608 37.7363L83.3377 38.0303L83.5736 37.8539L84.3992 39.0297C84.5761 39.2649 84.6351 39.3824 84.753 39.4412C84.812 39.5 84.9299 39.5 84.9889 39.5C85.1069 39.5 85.2248 39.4412 85.3427 39.3236C85.4017 39.2649 85.5197 39.2061 85.5786 39.0885L85.2838 38.7945C85.2838 38.8533 85.2838 38.9121 85.2248 38.9121Z" fill="url(#paint30_linear_63_44)"/>
<path d="M85.9325 38.8533L84.3992 36.7957L84.753 36.5605L86.2863 38.6182L85.9325 38.8533Z" fill="url(#paint31_linear_63_44)"/>
<path d="M81.9224 37.3833L81.4506 37.6772L81.5685 38.4415L81.8634 38.2064L81.9224 37.3833Z" fill="url(#paint32_linear_63_44)"/>
<path d="M83.8095 36.0315L84.1633 35.7964L84.4582 36.1491L84.1044 36.4431L83.8095 36.0315Z" fill="url(#paint33_linear_63_44)"/>
<path d="M97.9627 27.742C97.8447 27.6244 97.7268 27.5656 97.6088 27.5656C97.4909 27.5656 97.373 27.5656 97.255 27.6244C97.1371 27.6832 96.9602 27.742 96.6653 27.9184C96.4884 28.0359 96.3704 28.0947 96.3115 28.0947C96.2525 28.1535 96.1935 28.1535 96.1346 28.1535C96.0756 28.1535 96.0166 28.0947 96.0166 28.0947C95.9576 28.0359 95.9576 27.9184 95.9576 27.8596C95.9576 27.742 96.0756 27.6244 96.1935 27.5068C96.3115 27.3893 96.4294 27.3305 96.5474 27.3305C96.6653 27.3305 96.7832 27.3305 96.9012 27.448L97.1371 27.0953C97.0191 26.9777 96.9012 26.9189 96.7833 26.9189C96.6653 26.9189 96.5474 26.9189 96.3704 26.9777C96.1935 27.0365 96.0756 27.1541 95.9576 27.2717C95.8397 27.3893 95.7807 27.448 95.7218 27.5656C95.6628 27.6832 95.6038 27.742 95.6038 27.8596C95.6038 27.9772 95.6038 28.0947 95.6038 28.1535C95.6038 28.2711 95.6628 28.3299 95.7807 28.4475C95.8397 28.565 95.9576 28.6238 96.0756 28.6238C96.1935 28.6826 96.3115 28.6238 96.4294 28.6238C96.5474 28.565 96.7833 28.5063 97.0781 28.3299C97.314 28.2123 97.4319 28.1535 97.4909 28.1535C97.6089 28.1535 97.6678 28.1535 97.7268 28.2123C97.7858 28.2711 97.8447 28.3887 97.8447 28.5063C97.8447 28.6238 97.7268 28.7414 97.6088 28.9178C97.4909 29.0354 97.314 29.1529 97.1961 29.1529C97.0781 29.1529 96.9012 29.0942 96.7833 29.0354L96.5474 29.3881C96.7832 29.5645 97.0191 29.6233 97.1961 29.6233C97.4319 29.6233 97.6678 29.4469 97.9037 29.2705C98.0216 29.1529 98.1396 28.9766 98.1986 28.8002C98.2575 28.6238 98.2575 28.5063 98.2575 28.3299C98.1396 27.9772 98.0806 27.8008 97.9627 27.742Z" fill="url(#paint34_linear_63_44)"/>
<path d="M99.5549 25.3907C99.26 25.0968 98.9652 24.9204 98.6703 24.9204C98.3754 24.9204 98.0806 25.038 97.7857 25.2731C97.5498 25.5083 97.4319 25.7435 97.4319 26.0374C97.3729 26.3901 97.5498 26.7429 97.9037 27.0956C98.1985 27.3896 98.4934 27.5659 98.8472 27.5659C99.1421 27.5659 99.4369 27.4484 99.7318 27.2132C99.9087 27.0368 100.027 26.8605 100.086 26.6841C100.145 26.5077 100.145 26.2726 100.086 26.0962C99.9677 25.861 99.7908 25.6259 99.5549 25.3907ZM99.4369 26.978C99.26 27.1544 99.0831 27.2132 98.9062 27.1544C98.6703 27.1544 98.4934 27.0368 98.2575 26.8017C98.0216 26.5665 97.9037 26.3314 97.9037 26.0962C97.9037 25.861 97.9626 25.6847 98.1395 25.5671C98.3165 25.3907 98.4934 25.3319 98.6703 25.3907C98.9062 25.3907 99.0831 25.5083 99.319 25.7435C99.5549 25.9786 99.6728 26.2138 99.6728 26.4489C99.6728 26.6253 99.5549 26.8017 99.4369 26.978Z" fill="url(#paint35_linear_63_44)"/>
<path d="M104.685 20.8638C104.567 20.7462 104.449 20.6874 104.332 20.6874C104.214 20.6874 104.096 20.6874 103.978 20.7462C103.86 20.805 103.683 20.9226 103.388 21.0989C103.211 21.2165 103.093 21.2753 103.034 21.2753C102.975 21.3341 102.916 21.3341 102.857 21.3341C102.798 21.3341 102.739 21.3341 102.68 21.2753C102.621 21.2165 102.562 21.1577 102.621 21.0401C102.621 20.9226 102.68 20.805 102.857 20.6874C102.975 20.5698 103.093 20.511 103.211 20.4523C103.329 20.4523 103.447 20.4523 103.565 20.511L103.801 20.1583C103.683 20.0407 103.506 20.0407 103.388 19.9819C103.27 19.9819 103.152 19.9819 102.975 20.0407C102.857 20.0995 102.68 20.2171 102.562 20.3935C102.444 20.511 102.386 20.5698 102.327 20.6874C102.268 20.805 102.268 20.8638 102.209 20.9814C102.209 21.0989 102.209 21.2165 102.268 21.2753C102.327 21.3929 102.385 21.4517 102.444 21.5692C102.562 21.628 102.621 21.6868 102.739 21.7456C102.857 21.7456 102.975 21.7456 103.093 21.6868C103.211 21.628 103.447 21.5105 103.683 21.3341C103.86 21.2165 104.037 21.0989 104.096 21.0989C104.214 21.0989 104.273 21.0989 104.332 21.1577C104.391 21.2165 104.45 21.3341 104.45 21.4517C104.45 21.5692 104.391 21.6868 104.214 21.8632C104.096 21.9808 103.919 22.0984 103.801 22.0984C103.683 22.0984 103.506 22.0984 103.388 21.9808L103.152 22.3335C103.388 22.5099 103.624 22.5687 103.801 22.5099C104.037 22.4511 104.273 22.3335 104.45 22.0984C104.567 21.9808 104.685 21.8044 104.744 21.628C104.803 21.4517 104.803 21.3341 104.803 21.1577C104.862 21.0989 104.744 20.9814 104.685 20.8638Z" fill="url(#paint36_linear_63_44)"/>
<path d="M107.398 18.8061L106.985 18.5121L107.339 18.1006L107.693 18.4533L107.398 18.8061Z" fill="url(#paint37_linear_63_44)"/>
<path d="M103.093 23.627L101.265 21.9221L101.56 21.5693L103.447 23.333L103.093 23.627Z" fill="url(#paint38_linear_63_44)"/>
<path d="M105.983 18.4534C105.688 18.1594 105.334 18.0418 105.039 18.1006C104.744 18.1006 104.45 18.277 104.214 18.5122C103.978 18.7473 103.919 19.0413 103.919 19.2764C103.919 19.6292 104.096 19.9819 104.45 20.2758C104.803 20.5698 105.098 20.6874 105.393 20.6874C105.688 20.6874 105.983 20.511 106.219 20.2758C106.337 20.0995 106.455 19.9231 106.514 19.6879C106.572 19.4528 106.514 19.2764 106.455 19.1001C106.396 18.8649 106.219 18.6297 105.983 18.4534ZM105.983 19.9819C105.865 20.1583 105.688 20.2171 105.452 20.2171C105.216 20.2171 104.98 20.0995 104.744 19.9231C104.508 19.6879 104.332 19.5116 104.332 19.2764C104.332 19.0413 104.332 18.8649 104.508 18.6885C104.626 18.5122 104.803 18.4534 105.039 18.4534C105.275 18.4534 105.511 18.5709 105.747 18.7473C105.983 18.9825 106.16 19.1588 106.16 19.394C106.16 19.6292 106.101 19.8643 105.983 19.9819Z" fill="url(#paint39_linear_63_44)"/>
<path d="M99.8497 24.3323C99.7908 24.2148 99.7907 24.156 99.7907 24.0384C99.7907 23.9208 99.8497 23.862 99.9087 23.8032C99.9677 23.7444 100.086 23.6856 100.204 23.6269L100.027 23.2153C99.8497 23.2741 99.7318 23.3329 99.6138 23.4505C99.5549 23.5093 99.4959 23.6269 99.4959 23.6856C99.4959 23.8032 99.4959 23.9208 99.5549 24.156L99.26 23.862L98.9651 24.156L100.793 25.9196L101.088 25.6257L100.145 24.6851C100.027 24.6263 99.9087 24.4499 99.8497 24.3323Z" fill="url(#paint40_linear_63_44)"/>
<path d="M100.97 23.1566C100.911 23.039 100.911 22.9802 100.911 22.8626C100.911 22.745 100.97 22.6862 101.029 22.6274C101.088 22.5687 101.206 22.5099 101.324 22.4511L101.147 22.0396C100.97 22.0983 100.852 22.1571 100.734 22.2747C100.675 22.3335 100.616 22.4511 100.616 22.5099C100.616 22.6274 100.616 22.745 100.675 22.9802L100.38 22.6862L100.086 22.9802L101.914 24.7439L102.209 24.4499L101.265 23.5093C101.206 23.3917 101.088 23.2741 100.97 23.1566Z" fill="url(#paint41_linear_63_44)"/>
<path d="M100.852 20.9224L101.206 21.2751L100.911 21.569L100.557 21.2163L100.852 20.9224Z" fill="url(#paint42_linear_63_44)"/>
<path d="M49.7829 56.196L48.9573 52.7274L49.3701 52.6099L50.1957 56.0784L49.7829 56.196Z" fill="url(#paint43_linear_63_44)"/>
<path d="M60.2209 49.1415L60.6927 50.3173C60.5747 50.2585 60.4568 50.1997 60.3388 50.1997C60.2209 50.1997 60.044 50.1997 59.926 50.2585C59.7491 50.3173 59.5722 50.4349 59.4543 50.6112C59.3363 50.7876 59.2773 50.964 59.2773 51.1991C59.2773 51.4343 59.3363 51.6695 59.3953 51.9046C59.5132 52.1398 59.6312 52.3749 59.7491 52.4925C59.926 52.6689 60.1029 52.7277 60.2799 52.7865C60.4568 52.8452 60.6927 52.7865 60.8696 52.7277C61.1644 52.6101 61.3413 52.4337 61.4003 52.1398L61.5183 52.4337L61.8721 52.3161L60.6337 49.0239L60.2209 49.1415ZM61.1055 51.2579C61.2234 51.5519 61.2234 51.787 61.1644 51.9634C61.1055 52.1398 60.9875 52.2573 60.8106 52.3749C60.6337 52.4337 60.4568 52.4337 60.2799 52.3161C60.1029 52.1986 59.926 52.0222 59.8081 51.7282C59.6901 51.4343 59.6312 51.1403 59.7491 50.964C59.8081 50.7876 59.926 50.6112 60.1029 50.5525C60.2799 50.4937 60.4568 50.4937 60.6337 50.6112C60.8106 50.7288 60.9875 50.964 61.1055 51.2579Z" fill="url(#paint44_linear_63_44)"/>
<path d="M48.7804 54.4322C48.6625 54.2558 48.4855 54.1382 48.3086 54.0206C48.1317 53.9619 47.8958 53.9031 47.7189 53.9619C47.542 54.0206 47.424 54.0794 47.3061 54.1382C47.1882 54.197 47.1292 54.3146 47.0702 54.491L47.0112 54.1382L46.5984 54.197L47.2471 57.6656L47.6599 57.6068L47.4241 56.3722C47.542 56.431 47.601 56.4898 47.7189 56.5486C47.8369 56.6074 47.9548 56.6074 48.1317 56.5486C48.3086 56.4898 48.4855 56.431 48.6625 56.2546C48.8394 56.1371 48.8983 55.9019 48.9573 55.7255C49.0163 55.4904 49.0163 55.2552 48.9573 55.0201C48.9573 54.8437 48.8983 54.6085 48.7804 54.4322ZM48.4855 55.9607C48.3676 56.1371 48.2497 56.2546 48.0727 56.3134C47.8958 56.3722 47.7189 56.3134 47.542 56.1958C47.3651 56.0783 47.2471 55.8431 47.1882 55.4904C47.1292 55.1964 47.1292 54.9025 47.2471 54.7261C47.3651 54.5497 47.483 54.4322 47.6599 54.3734C47.8369 54.3146 48.0138 54.3734 48.1907 54.491C48.3676 54.6085 48.4855 54.8437 48.5445 55.1964C48.6625 55.4904 48.6035 55.7255 48.4855 55.9607Z" fill="url(#paint45_linear_63_44)"/>
<path d="M63.4053 49.2C63.1105 49.0824 62.8156 49.0824 62.4618 49.2C62.1669 49.3176 61.99 49.4939 61.8131 49.7879C61.6362 50.0818 61.6952 50.4934 61.8721 50.9049C62.049 51.3164 62.2849 51.5516 62.5797 51.6692C62.8746 51.7867 63.1695 51.7867 63.5233 51.6692C63.7592 51.6104 63.8771 51.434 64.054 51.2576C64.172 51.0813 64.2899 50.9049 64.2899 50.6697C64.2899 50.4346 64.2309 50.1994 64.113 49.9055C63.8771 49.5527 63.7002 49.3176 63.4053 49.2ZM63.7592 50.9049C63.7002 51.0813 63.5823 51.2576 63.3464 51.3164C63.1695 51.3752 62.9336 51.3752 62.7567 51.3164C62.5797 51.1988 62.4028 51.0225 62.2849 50.7285C62.1669 50.4346 62.108 50.1994 62.1669 49.9643C62.2259 49.7879 62.3439 49.6115 62.5797 49.5527C62.7567 49.4939 62.9925 49.4939 63.1695 49.5527C63.3464 49.6703 63.5233 49.8467 63.6412 50.1406C63.8182 50.4346 63.8181 50.7285 63.7592 50.9049Z" fill="url(#paint46_linear_63_44)"/>
<path d="M41.8218 57.7248L41.35 54.1975L41.8218 54.1387L42.2935 57.6073L41.8218 57.7248Z" fill="url(#paint47_linear_63_44)"/>
<path d="M45.8908 54.667C45.7139 54.5494 45.537 54.4906 45.3011 54.5494C45.0062 54.6082 44.7114 54.7846 44.5934 55.0785C44.5345 54.961 44.4165 54.8434 44.2986 54.7846C44.1806 54.7258 44.0037 54.7258 43.8268 54.7258C43.6499 54.7258 43.5319 54.7846 43.414 54.9022C43.2961 55.0197 43.1781 55.1373 43.1191 55.2549L43.0602 54.9022L42.6474 54.961L43.0012 57.4889L43.414 57.4301L43.2371 56.1367C43.1781 55.9016 43.1781 55.7252 43.2371 55.6076C43.2371 55.4901 43.355 55.3725 43.414 55.3137C43.5319 55.2549 43.5909 55.1961 43.7089 55.1961C43.8858 55.1961 44.0037 55.1961 44.0627 55.3137C44.1217 55.3725 44.1806 55.5489 44.2396 55.7252L44.4755 57.3713L44.8883 57.3125L44.7114 55.784C44.6524 55.5489 44.7114 55.3137 44.8293 55.1961C44.9473 55.0785 45.0652 54.961 45.2421 54.961C45.3601 54.961 45.419 54.961 45.537 55.0197C45.5959 55.0785 45.6549 55.1373 45.7139 55.1961C45.7729 55.2549 45.7729 55.3725 45.8318 55.5488L46.0677 57.1362L46.4805 57.0774L46.2446 55.3137C46.1857 55.0197 46.0677 54.7846 45.8908 54.667Z" fill="url(#paint48_linear_63_44)"/>
<path d="M54.9134 52.7274C54.8544 52.6099 54.7955 52.5511 54.6775 52.4335C54.6186 52.3747 54.5006 52.3159 54.3237 52.3159C54.2058 52.3159 54.0288 52.3159 53.9109 52.3747C53.5571 52.4923 53.3212 52.6687 53.2622 53.0214L53.1443 52.6687L52.7904 52.7862L53.4981 55.2554L53.9109 55.1378L53.4981 53.7857C53.3801 53.4917 53.4391 53.2566 53.4981 53.0802C53.616 52.9038 53.734 52.845 53.9109 52.7862C54.0288 52.7274 54.1468 52.7274 54.2058 52.7862C54.3237 52.7862 54.3827 52.845 54.4416 52.9626C54.5006 53.0214 54.5596 53.139 54.6186 53.3153L55.0314 54.7851L55.4442 54.6675L55.0314 53.139C54.9724 52.9626 54.9134 52.7862 54.9134 52.7274Z" fill="url(#paint49_linear_63_44)"/>
<path d="M52.6135 54.4327L52.4956 53.8448C52.4366 53.6685 52.4366 53.5509 52.3777 53.4333C52.3187 53.3157 52.2597 53.2569 52.2007 53.1981C52.1418 53.1394 52.0238 53.0806 51.8469 53.0806C51.729 53.0806 51.5521 53.0806 51.3162 53.1394C51.0803 53.1981 50.9034 53.2569 50.7854 53.3745C50.6085 53.4921 50.5495 53.6097 50.4906 53.7272C50.4316 53.8448 50.3726 54.0212 50.4316 54.1976L50.8444 54.1388C50.8444 53.9624 50.9034 53.786 50.9623 53.7272C51.0213 53.6097 51.1982 53.5509 51.3751 53.5509C51.611 53.4921 51.7879 53.4921 51.9059 53.6097C52.0238 53.6685 52.0828 53.786 52.0828 53.9624C52.0828 53.9624 52.0828 54.0212 52.0828 54.08C51.9649 54.1976 51.67 54.2564 51.3751 54.3739C51.1982 54.4327 51.0803 54.4915 51.0213 54.5503C50.9034 54.6091 50.8444 54.6679 50.7265 54.7855C50.6675 54.8443 50.6085 54.9618 50.5495 55.0794C50.4906 55.197 50.4906 55.3146 50.5495 55.4321C50.6085 55.6673 50.7265 55.7849 50.9034 55.9025C51.0803 56.02 51.3162 56.02 51.611 55.9613C51.7879 55.9025 51.9059 55.8437 52.0828 55.7849C52.2007 55.6673 52.3187 55.5497 52.4956 55.3734C52.5546 55.4909 52.6135 55.6085 52.6725 55.6673L53.0853 55.5497C53.0263 55.4909 52.9674 55.3734 52.9084 55.2558C52.7315 55.0206 52.6725 54.7855 52.6135 54.4327ZM52.2007 54.903C52.1418 55.0206 52.0828 55.1382 51.9649 55.2558C51.8469 55.3734 51.729 55.4321 51.5521 55.4321C51.3751 55.4909 51.2572 55.4909 51.1392 55.4321C51.0213 55.3734 50.9623 55.3146 50.9623 55.197C50.9623 55.1382 50.9623 55.0794 50.9623 54.9618C50.9623 54.903 51.0213 54.8443 51.0803 54.7855C51.1392 54.7267 51.2572 54.6679 51.4341 54.6091C51.729 54.4915 51.9649 54.3739 52.0828 54.3151L52.1418 54.4915C52.2007 54.6679 52.2007 54.7855 52.2007 54.903Z" fill="url(#paint50_linear_63_44)"/>
<path d="M58.5107 51.1993C58.2158 51.023 57.9209 51.023 57.5671 51.1405C57.2723 51.2581 57.0364 51.4345 56.8595 51.6696C56.6825 51.9636 56.6825 52.3163 56.8005 52.7866C56.9184 53.1982 57.1543 53.4921 57.4492 53.6097C57.744 53.7861 58.0389 53.7861 58.3927 53.6685C58.6286 53.6097 58.8055 53.4921 58.9235 53.3158C59.0414 53.1394 59.1594 52.963 59.2183 52.7866C59.2773 52.5515 59.2183 52.3163 59.1004 52.0224C58.9824 51.6109 58.7465 51.3169 58.5107 51.1993ZM58.6876 52.9042C58.6286 53.0806 58.4517 53.257 58.2748 53.3158C58.0389 53.3745 57.862 53.3745 57.6851 53.257C57.5081 53.1394 57.3312 52.963 57.2723 52.6103C57.1543 52.3163 57.1543 52.0224 57.2723 51.846C57.3312 51.6696 57.5081 51.4933 57.6851 51.4345C57.862 51.3757 58.0979 51.3757 58.2748 51.4933C58.4517 51.6109 58.6286 51.7872 58.6876 52.0812C58.8055 52.4339 58.8055 52.7279 58.6876 52.9042Z" fill="url(#paint51_linear_63_44)"/>
<path d="M56.6826 53.8445C56.6236 53.8445 56.5646 53.8445 56.5057 53.8445C56.4467 53.8445 56.4467 53.8445 56.3877 53.7858C56.3877 53.7858 56.3287 53.6682 56.2698 53.5506L55.798 52.1397L56.2108 52.0221V51.6693L55.798 51.7869L55.5031 50.9639L55.1493 51.3166L55.3262 51.9045L55.0314 52.0221L55.1493 52.316L55.4442 52.1984L55.9159 53.6094C55.9749 53.8446 56.0929 54.0209 56.1518 54.0797C56.2108 54.1385 56.2698 54.1973 56.3877 54.1973C56.5057 54.1973 56.6236 54.1973 56.7415 54.1385C56.8595 54.1385 56.9185 54.0797 57.0364 54.0209L56.8595 53.6682C56.8005 53.7858 56.7415 53.7858 56.6826 53.8445Z" fill="url(#paint52_linear_63_44)"/>
<path d="M71.1306 46.8484L70.8947 46.3193C70.8357 46.143 70.7178 46.0254 70.7178 45.9666C70.6588 45.849 70.5409 45.7902 70.4819 45.7902C70.364 45.7314 70.246 45.7314 70.1281 45.7314C70.0101 45.7314 69.8332 45.7902 69.5973 45.9078C69.4204 46.0254 69.2435 46.143 69.1256 46.2606C69.0076 46.3781 68.9487 46.5545 68.8897 46.6721C68.8897 46.7897 68.8897 46.966 68.9486 47.1424L69.3614 47.0248C69.3025 46.8484 69.3025 46.6721 69.3614 46.6133C69.4204 46.4957 69.5384 46.3781 69.7153 46.3193C69.8922 46.2018 70.0691 46.2018 70.246 46.2018C70.364 46.2018 70.4229 46.3193 70.5409 46.4957C70.5409 46.4957 70.5409 46.5545 70.5998 46.6133C70.4819 46.7309 70.246 46.9072 69.9512 47.0836C69.8332 47.2012 69.7153 47.26 69.6563 47.3188C69.5384 47.3775 69.4794 47.4951 69.4204 47.6127C69.3614 47.7303 69.3614 47.7891 69.3614 47.9067C69.3614 48.0242 69.3614 48.1418 69.4204 48.2594C69.5384 48.4358 69.6563 48.5533 69.8332 48.6121C70.0101 48.6709 70.246 48.6121 70.4819 48.4945C70.6588 48.4358 70.7768 48.3182 70.8947 48.2006C71.0127 48.083 71.0716 47.9067 71.1896 47.7303C71.2485 47.8479 71.3075 47.9067 71.4255 47.9654L71.8383 47.7891C71.7203 47.7303 71.6613 47.6715 71.6024 47.5539C71.4255 47.4363 71.3075 47.2012 71.1306 46.8484ZM70.7178 47.8479C70.6588 47.9654 70.5409 48.083 70.364 48.1418C70.1871 48.2006 70.0691 48.2594 69.9512 48.2006C69.8332 48.2006 69.7742 48.083 69.7153 48.0242C69.6563 47.9654 69.6563 47.9067 69.6563 47.7891C69.6563 47.7303 69.7153 47.6715 69.7153 47.6127C69.7742 47.5539 69.8922 47.4951 70.0101 47.3775C70.246 47.2012 70.4819 47.0248 70.5409 46.9072L70.5998 47.0248C70.6588 47.2012 70.7178 47.3188 70.7178 47.4363C70.8357 47.5539 70.8357 47.7303 70.7178 47.8479Z" fill="url(#paint53_linear_63_44)"/>
<path d="M78.0302 43.1451C78.0892 43.3215 78.0892 43.4979 78.0302 43.6154C77.9712 43.733 77.9123 43.8506 77.7354 43.9094C77.5584 44.027 77.3815 44.027 77.1456 43.9682C76.9687 43.9094 76.7918 43.7918 76.6149 43.5567L78.2661 42.5572C78.2661 42.4984 78.2071 42.4984 78.2071 42.4397C77.9712 42.0869 77.7354 41.8518 77.4405 41.793C77.1456 41.7342 76.8508 41.7342 76.5559 41.9106C76.2611 42.0869 76.0841 42.3221 76.0252 42.6748C75.9662 42.9688 76.0252 43.3215 76.2611 43.6742C76.497 44.027 76.7328 44.2621 77.0277 44.3209C77.3226 44.3797 77.6764 44.3797 77.9712 44.1446C78.2071 43.9682 78.384 43.7918 78.502 43.5567C78.6199 43.3215 78.6199 43.0863 78.502 42.8512L78.0302 43.1451ZM76.438 43.2627C76.32 43.0863 76.32 42.8512 76.379 42.6748C76.438 42.4984 76.5559 42.3221 76.7328 42.2633C76.9098 42.1457 77.1456 42.1457 77.3226 42.2045C77.4405 42.2633 77.5584 42.3809 77.7354 42.5572L76.438 43.2627Z" fill="url(#paint54_linear_63_44)"/>
<path d="M74.6099 45.2612C74.6689 45.4375 74.6099 45.6139 74.5509 45.7315C74.492 45.8491 74.374 45.9667 74.2561 46.0254C74.0792 46.143 73.9022 46.143 73.6664 46.0842C73.4894 46.0254 73.3125 45.8491 73.1356 45.6139L74.7868 44.6733C74.7868 44.6145 74.7278 44.6145 74.7278 44.5557C74.5509 44.203 74.2561 43.9678 73.9612 43.8502C73.6664 43.7327 73.3715 43.7914 73.0766 43.9678C72.7818 44.1442 72.5459 44.3793 72.4869 44.6733C72.428 44.9672 72.4869 45.32 72.6638 45.7315C72.8408 46.0842 73.1356 46.3194 73.4305 46.437C73.7253 46.5545 74.0202 46.4958 74.374 46.3194C74.6099 46.2018 74.7868 46.0254 74.9048 45.7903C75.0227 45.5551 75.0227 45.32 74.9637 45.0848L74.6099 45.2612ZM73.0177 45.32C72.8997 45.1436 72.8997 44.9084 72.9587 44.7321C73.0177 44.5557 73.1356 44.4381 73.3125 44.3206C73.4894 44.203 73.7253 44.203 73.9022 44.2618C74.0202 44.3206 74.1381 44.4381 74.2561 44.6145L73.0177 45.32Z" fill="url(#paint55_linear_63_44)"/>
<path d="M80.2712 41.4401C80.1532 41.3813 80.0353 41.3813 79.9173 41.3813C79.7994 41.3813 79.5635 41.4401 79.2686 41.5577C79.0328 41.6165 78.9148 41.6753 78.9148 41.6753C78.8559 41.6753 78.7379 41.6753 78.7379 41.6753C78.6789 41.6753 78.62 41.6165 78.62 41.5577C78.561 41.4989 78.561 41.3813 78.62 41.3225C78.6789 41.2049 78.7379 41.0874 78.9148 41.0286C79.0328 40.911 79.2097 40.911 79.3276 40.911C79.4456 40.911 79.5635 40.9698 79.6225 41.0874L79.9173 40.7934C79.7994 40.6758 79.6814 40.5583 79.5635 40.5583C79.4456 40.4995 79.3276 40.4995 79.1507 40.5583C78.9738 40.617 78.8558 40.6758 78.6789 40.7934C78.561 40.8522 78.443 40.9698 78.3841 41.0286C78.3251 41.1461 78.2661 41.2049 78.2072 41.2637C78.1482 41.3813 78.1482 41.4989 78.1482 41.5577C78.1482 41.6165 78.2072 41.7928 78.2661 41.8516C78.3251 41.9692 78.443 42.028 78.561 42.0868C78.6789 42.1456 78.7969 42.1456 78.9148 42.1456C79.0328 42.1456 79.2686 42.0868 79.5635 41.9692C79.7994 41.9104 79.9173 41.8516 80.0353 41.8516C80.1532 41.8516 80.2122 41.9104 80.2712 41.9692C80.3301 42.0868 80.3301 42.1456 80.3301 42.2631C80.2712 42.3807 80.2122 42.4983 80.0353 42.6159C79.8584 42.7335 79.7404 42.7923 79.5635 42.7335C79.4456 42.7335 79.2687 42.6159 79.1507 42.4983L78.8558 42.7923C79.0328 42.9686 79.2687 43.0862 79.4456 43.145C79.6815 43.145 79.9173 43.0862 80.2122 42.9098C80.3891 42.7923 80.5071 42.6747 80.625 42.5571C80.7429 42.4395 80.7429 42.2631 80.7429 42.0868C80.7429 41.9104 80.684 41.7928 80.625 41.6753C80.4481 41.5577 80.3891 41.4401 80.2712 41.4401Z" fill="url(#paint56_linear_63_44)"/>
<path d="M81.8044 41.2636C81.7455 41.3224 81.6865 41.3224 81.6865 41.3224C81.6275 41.3224 81.6275 41.3224 81.5685 41.2636C81.5096 41.2636 81.5096 41.2048 81.3916 41.0872L80.566 39.8526L80.9199 39.6175L80.7429 39.3235L80.3891 39.5587L79.9173 38.7944L79.6815 39.2648L80.0353 39.7939L79.7404 39.9702L79.9173 40.2642L80.2122 40.0878L81.0378 41.3224C81.1557 41.5575 81.2737 41.6751 81.3327 41.7339C81.3916 41.7927 81.5096 41.7927 81.5685 41.7927C81.6865 41.7927 81.8044 41.7339 81.9224 41.6751C81.9813 41.6163 82.0993 41.5575 82.1583 41.44L81.9224 41.146C81.9224 41.2048 81.8634 41.2048 81.8044 41.2636Z" fill="url(#paint57_linear_63_44)"/>
<path d="M68.7718 49.2001L67.7103 46.9073L68.1231 46.731L69.1846 49.0237L68.7718 49.2001Z" fill="url(#paint58_linear_63_44)"/>
<path d="M68.0641 49.1413C68.0051 49.1413 67.9461 49.2001 67.8872 49.2001C67.8282 49.2001 67.8282 49.2001 67.7692 49.1413C67.7692 49.1413 67.7102 49.0238 67.6513 48.9062L67.0026 47.554L67.4154 47.3776L67.2974 47.0837L66.8846 47.2601L66.5308 46.437L66.236 46.8485L66.5308 47.4364L66.236 47.554L66.3539 47.848L66.6488 47.7304L67.2974 49.0825C67.4154 49.3177 67.4744 49.4353 67.5333 49.4941C67.5923 49.5529 67.7102 49.6116 67.7692 49.6116C67.8872 49.6116 68.0051 49.6116 68.123 49.5529C68.182 49.4941 68.3 49.4353 68.4179 49.3765L68.182 49.0825C68.182 49.0825 68.123 49.1413 68.0641 49.1413Z" fill="url(#paint59_linear_63_44)"/>
<path d="M67.7103 45.8491L67.8872 46.2606L67.4744 46.437L67.2975 46.0255L67.7103 45.8491Z" fill="url(#paint60_linear_63_44)"/>
<path d="M66.059 48.3184C66.0001 48.2008 65.8821 48.142 65.8232 48.0832C65.7052 48.0244 65.5873 48.0244 65.4693 48.0244C65.3514 48.0244 65.1745 48.0832 65.0565 48.142C64.7617 48.3184 64.5258 48.5535 64.4668 48.8475L64.2899 48.4947L63.9361 48.6711L64.9976 50.9639L65.4104 50.7875L64.8206 49.4942C64.7027 49.2002 64.6437 48.965 64.7027 48.7887C64.7617 48.6123 64.8796 48.4947 65.0565 48.4359C65.1745 48.3771 65.2924 48.3771 65.3514 48.3771C65.4693 48.3771 65.5283 48.4359 65.5873 48.4947C65.6462 48.5535 65.7052 48.6711 65.8232 48.8475L66.4718 50.2584L66.8846 50.082L66.236 48.6711C66.177 48.4947 66.118 48.3772 66.059 48.3184Z" fill="url(#paint61_linear_63_44)"/>
<defs>
<linearGradient id="paint0_linear_63_44" x1="-11.7608" y1="17.8493" x2="177.695" y2="63.9202" gradientUnits="userSpaceOnUse">
<stop offset="0.0666667" stop-color="#FFF8B1"/>
<stop offset="0.1951" stop-color="#FCF5AE"/>
<stop offset="0.3015" stop-color="#F3EAA5"/>
<stop offset="0.4001" stop-color="#E5D996"/>
<stop offset="0.494" stop-color="#D0C180"/>
<stop offset="0.5845" stop-color="#B5A165"/>
<stop offset="0.6713" stop-color="#957C43"/>
<stop offset="0.736" stop-color="#785A26"/>
<stop offset="0.8764" stop-color="#996C25"/>
<stop offset="0.9063" stop-color="#9D7025"/>
<stop offset="0.936" stop-color="#A97B23"/>
<stop offset="0.9657" stop-color="#BD8F21"/>
<stop offset="0.9952" stop-color="#D9AA1E"/>
<stop offset="1" stop-color="#DEAF1D"/>
</linearGradient>
<linearGradient id="paint1_linear_63_44" x1="-12.0386" y1="18.9923" x2="177.417" y2="65.0631" gradientUnits="userSpaceOnUse">
<stop offset="0.0666667" stop-color="#FFF8B1"/>
<stop offset="0.1951" stop-color="#FCF5AE"/>
<stop offset="0.3015" stop-color="#F3EAA5"/>
<stop offset="0.4001" stop-color="#E5D996"/>
<stop offset="0.494" stop-color="#D0C180"/>
<stop offset="0.5845" stop-color="#B5A165"/>
<stop offset="0.6713" stop-color="#957C43"/>
<stop offset="0.736" stop-color="#785A26"/>
<stop offset="0.8764" stop-color="#996C25"/>
<stop offset="0.9063" stop-color="#9D7025"/>
<stop offset="0.936" stop-color="#A97B23"/>
<stop offset="0.9657" stop-color="#BD8F21"/>
<stop offset="0.9952" stop-color="#D9AA1E"/>
<stop offset="1" stop-color="#DEAF1D"/>
</linearGradient>
<linearGradient id="paint2_linear_63_44" x1="-10.4064" y1="12.2798" x2="179.049" y2="58.3507" gradientUnits="userSpaceOnUse">
<stop offset="0.0666667" stop-color="#FFF8B1"/>
<stop offset="0.1951" stop-color="#FCF5AE"/>
<stop offset="0.3015" stop-color="#F3EAA5"/>
<stop offset="0.4001" stop-color="#E5D996"/>
<stop offset="0.494" stop-color="#D0C180"/>
<stop offset="0.5845" stop-color="#B5A165"/>
<stop offset="0.6713" stop-color="#957C43"/>
<stop offset="0.736" stop-color="#785A26"/>
<stop offset="0.8764" stop-color="#996C25"/>
<stop offset="0.9063" stop-color="#9D7025"/>
<stop offset="0.936" stop-color="#A97B23"/>
<stop offset="0.9657" stop-color="#BD8F21"/>
<stop offset="0.9952" stop-color="#D9AA1E"/>
<stop offset="1" stop-color="#DEAF1D"/>
</linearGradient>
<linearGradient id="paint3_linear_63_44" x1="-11.9956" y1="18.8148" x2="177.46" y2="64.8856" gradientUnits="userSpaceOnUse">
<stop offset="0.0666667" stop-color="#FFF8B1"/>
<stop offset="0.1951" stop-color="#FCF5AE"/>
<stop offset="0.3015" stop-color="#F3EAA5"/>
<stop offset="0.4001" stop-color="#E5D996"/>
<stop offset="0.494" stop-color="#D0C180"/>
<stop offset="0.5845" stop-color="#B5A165"/>
<stop offset="0.6713" stop-color="#957C43"/>
<stop offset="0.736" stop-color="#785A26"/>
<stop offset="0.8764" stop-color="#996C25"/>
<stop offset="0.9063" stop-color="#9D7025"/>
<stop offset="0.936" stop-color="#A97B23"/>
<stop offset="0.9657" stop-color="#BD8F21"/>
<stop offset="0.9952" stop-color="#D9AA1E"/>
<stop offset="1" stop-color="#DEAF1D"/>
</linearGradient>
<linearGradient id="paint4_linear_63_44" x1="-11.677" y1="17.5048" x2="177.778" y2="63.5756" gradientUnits="userSpaceOnUse">
<stop offset="0.0666667" stop-color="#FFF8B1"/>
<stop offset="0.1951" stop-color="#FCF5AE"/>
<stop offset="0.3015" stop-color="#F3EAA5"/>
<stop offset="0.4001" stop-color="#E5D996"/>
<stop offset="0.494" stop-color="#D0C180"/>
<stop offset="0.5845" stop-color="#B5A165"/>
<stop offset="0.6713" stop-color="#957C43"/>
<stop offset="0.736" stop-color="#785A26"/>
<stop offset="0.8764" stop-color="#996C25"/>
<stop offset="0.9063" stop-color="#9D7025"/>
<stop offset="0.936" stop-color="#A97B23"/>
<stop offset="0.9657" stop-color="#BD8F21"/>
<stop offset="0.9952" stop-color="#D9AA1E"/>
<stop offset="1" stop-color="#DEAF1D"/>
</linearGradient>
<linearGradient id="paint5_linear_63_44" x1="-6.4349" y1="-4.05217" x2="183.02" y2="42.0185" gradientUnits="userSpaceOnUse">
<stop offset="0.0666667" stop-color="#FFF8B1"/>
<stop offset="0.1951" stop-color="#FCF5AE"/>
<stop offset="0.3015" stop-color="#F3EAA5"/>
<stop offset="0.4001" stop-color="#E5D996"/>
<stop offset="0.494" stop-color="#D0C180"/>
<stop offset="0.5845" stop-color="#B5A165"/>
<stop offset="0.6713" stop-color="#957C43"/>
<stop offset="0.736" stop-color="#785A26"/>
<stop offset="0.8764" stop-color="#996C25"/>
<stop offset="0.9063" stop-color="#9D7025"/>
<stop offset="0.936" stop-color="#A97B23"/>
<stop offset="0.9657" stop-color="#BD8F21"/>
<stop offset="0.9952" stop-color="#D9AA1E"/>
<stop offset="1" stop-color="#DEAF1D"/>
</linearGradient>
<linearGradient id="paint6_linear_63_44" x1="-8.45967" y1="4.27442" x2="180.996" y2="50.3452" gradientUnits="userSpaceOnUse">
<stop offset="0.0666667" stop-color="#FFF8B1"/>
<stop offset="0.1951" stop-color="#FCF5AE"/>
<stop offset="0.3015" stop-color="#F3EAA5"/>
<stop offset="0.4001" stop-color="#E5D996"/>
<stop offset="0.494" stop-color="#D0C180"/>
<stop offset="0.5845" stop-color="#B5A165"/>
<stop offset="0.6713" stop-color="#957C43"/>
<stop offset="0.736" stop-color="#785A26"/>
<stop offset="0.8764" stop-color="#996C25"/>
<stop offset="0.9063" stop-color="#9D7025"/>
<stop offset="0.936" stop-color="#A97B23"/>
<stop offset="0.9657" stop-color="#BD8F21"/>
<stop offset="0.9952" stop-color="#D9AA1E"/>
<stop offset="1" stop-color="#DEAF1D"/>
</linearGradient>
<linearGradient id="paint7_linear_63_44" x1="-4.19674" y1="-13.2547" x2="185.258" y2="32.816" gradientUnits="userSpaceOnUse">
<stop offset="0.0666667" stop-color="#FFF8B1"/>
<stop offset="0.1951" stop-color="#FCF5AE"/>
<stop offset="0.3015" stop-color="#F3EAA5"/>
<stop offset="0.4001" stop-color="#E5D996"/>
<stop offset="0.494" stop-color="#D0C180"/>
<stop offset="0.5845" stop-color="#B5A165"/>
<stop offset="0.6713" stop-color="#957C43"/>
<stop offset="0.736" stop-color="#785A26"/>
<stop offset="0.8764" stop-color="#996C25"/>
<stop offset="0.9063" stop-color="#9D7025"/>
<stop offset="0.936" stop-color="#A97B23"/>
<stop offset="0.9657" stop-color="#BD8F21"/>
<stop offset="0.9952" stop-color="#D9AA1E"/>
<stop offset="1" stop-color="#DEAF1D"/>
</linearGradient>
<linearGradient id="paint8_linear_63_44" x1="-9.85866" y1="10.027" x2="179.597" y2="56.0979" gradientUnits="userSpaceOnUse">
<stop offset="0.0666667" stop-color="#FFF8B1"/>
<stop offset="0.1951" stop-color="#FCF5AE"/>
<stop offset="0.3015" stop-color="#F3EAA5"/>
<stop offset="0.4001" stop-color="#E5D996"/>
<stop offset="0.494" stop-color="#D0C180"/>
<stop offset="0.5845" stop-color="#B5A165"/>
<stop offset="0.6713" stop-color="#957C43"/>
<stop offset="0.736" stop-color="#785A26"/>
<stop offset="0.8764" stop-color="#996C25"/>
<stop offset="0.9063" stop-color="#9D7025"/>
<stop offset="0.936" stop-color="#A97B23"/>
<stop offset="0.9657" stop-color="#BD8F21"/>
<stop offset="0.9952" stop-color="#D9AA1E"/>
<stop offset="1" stop-color="#DEAF1D"/>
</linearGradient>
<linearGradient id="paint9_linear_63_44" x1="-2.30999" y1="-21.0153" x2="187.146" y2="25.0557" gradientUnits="userSpaceOnUse">
<stop offset="0.0666667" stop-color="#FFF8B1"/>
<stop offset="0.1951" stop-color="#FCF5AE"/>
<stop offset="0.3015" stop-color="#F3EAA5"/>
<stop offset="0.4001" stop-color="#E5D996"/>
<stop offset="0.494" stop-color="#D0C180"/>
<stop offset="0.5845" stop-color="#B5A165"/>
<stop offset="0.6713" stop-color="#957C43"/>
<stop offset="0.736" stop-color="#785A26"/>
<stop offset="0.8764" stop-color="#996C25"/>
<stop offset="0.9063" stop-color="#9D7025"/>
<stop offset="0.936" stop-color="#A97B23"/>
<stop offset="0.9657" stop-color="#BD8F21"/>
<stop offset="0.9952" stop-color="#D9AA1E"/>
<stop offset="1" stop-color="#DEAF1D"/>
</linearGradient>
<linearGradient id="paint10_linear_63_44" x1="-4.21323" y1="-13.1877" x2="185.242" y2="32.883" gradientUnits="userSpaceOnUse">
<stop offset="0.0666667" stop-color="#FFF8B1"/>
<stop offset="0.1951" stop-color="#FCF5AE"/>
<stop offset="0.3015" stop-color="#F3EAA5"/>
<stop offset="0.4001" stop-color="#E5D996"/>
<stop offset="0.494" stop-color="#D0C180"/>
<stop offset="0.5845" stop-color="#B5A165"/>
<stop offset="0.6713" stop-color="#957C43"/>
<stop offset="0.736" stop-color="#785A26"/>
<stop offset="0.8764" stop-color="#996C25"/>
<stop offset="0.9063" stop-color="#9D7025"/>
<stop offset="0.936" stop-color="#A97B23"/>
<stop offset="0.9657" stop-color="#BD8F21"/>
<stop offset="0.9952" stop-color="#D9AA1E"/>
<stop offset="1" stop-color="#DEAF1D"/>
</linearGradient>
<linearGradient id="paint11_linear_63_44" x1="-5.28601" y1="-8.77701" x2="184.17" y2="37.2939" gradientUnits="userSpaceOnUse">
<stop offset="0.0666667" stop-color="#FFF8B1"/>
<stop offset="0.1951" stop-color="#FCF5AE"/>
<stop offset="0.3015" stop-color="#F3EAA5"/>
<stop offset="0.4001" stop-color="#E5D996"/>
<stop offset="0.494" stop-color="#D0C180"/>
<stop offset="0.5845" stop-color="#B5A165"/>
<stop offset="0.6713" stop-color="#957C43"/>
<stop offset="0.736" stop-color="#785A26"/>
<stop offset="0.8764" stop-color="#996C25"/>
<stop offset="0.9063" stop-color="#9D7025"/>
<stop offset="0.936" stop-color="#A97B23"/>
<stop offset="0.9657" stop-color="#BD8F21"/>
<stop offset="0.9952" stop-color="#D9AA1E"/>
<stop offset="1" stop-color="#DEAF1D"/>
</linearGradient>
<linearGradient id="paint12_linear_63_44" x1="-6.13992" y1="-5.26457" x2="183.315" y2="40.8061" gradientUnits="userSpaceOnUse">
<stop offset="0.0666667" stop-color="#FFF8B1"/>
<stop offset="0.1951" stop-color="#FCF5AE"/>
<stop offset="0.3015" stop-color="#F3EAA5"/>
<stop offset="0.4001" stop-color="#E5D996"/>
<stop offset="0.494" stop-color="#D0C180"/>
<stop offset="0.5845" stop-color="#B5A165"/>
<stop offset="0.6713" stop-color="#957C43"/>
<stop offset="0.736" stop-color="#785A26"/>
<stop offset="0.8764" stop-color="#996C25"/>
<stop offset="0.9063" stop-color="#9D7025"/>
<stop offset="0.936" stop-color="#A97B23"/>
<stop offset="0.9657" stop-color="#BD8F21"/>
<stop offset="0.9952" stop-color="#D9AA1E"/>
<stop offset="1" stop-color="#DEAF1D"/>
</linearGradient>
<linearGradient id="paint13_linear_63_44" x1="-11.0415" y1="14.8915" x2="178.414" y2="60.9624" gradientUnits="userSpaceOnUse">
<stop offset="0.0666667" stop-color="#FFF8B1"/>
<stop offset="0.1951" stop-color="#FCF5AE"/>
<stop offset="0.3015" stop-color="#F3EAA5"/>
<stop offset="0.4001" stop-color="#E5D996"/>
<stop offset="0.494" stop-color="#D0C180"/>
<stop offset="0.5845" stop-color="#B5A165"/>
<stop offset="0.6713" stop-color="#957C43"/>
<stop offset="0.736" stop-color="#785A26"/>
<stop offset="0.8764" stop-color="#996C25"/>
<stop offset="0.9063" stop-color="#9D7025"/>
<stop offset="0.936" stop-color="#A97B23"/>
<stop offset="0.9657" stop-color="#BD8F21"/>
<stop offset="0.9952" stop-color="#D9AA1E"/>
<stop offset="1" stop-color="#DEAF1D"/>
</linearGradient>
<linearGradient id="paint14_linear_63_44" x1="-9.99121" y1="10.5724" x2="179.464" y2="56.6432" gradientUnits="userSpaceOnUse">
<stop offset="0.0666667" stop-color="#FFF8B1"/>
<stop offset="0.1951" stop-color="#FCF5AE"/>
<stop offset="0.3015" stop-color="#F3EAA5"/>
<stop offset="0.4001" stop-color="#E5D996"/>
<stop offset="0.494" stop-color="#D0C180"/>
<stop offset="0.5845" stop-color="#B5A165"/>
<stop offset="0.6713" stop-color="#957C43"/>
<stop offset="0.736" stop-color="#785A26"/>
<stop offset="0.8764" stop-color="#996C25"/>
<stop offset="0.9063" stop-color="#9D7025"/>
<stop offset="0.936" stop-color="#A97B23"/>
<stop offset="0.9657" stop-color="#BD8F21"/>
<stop offset="0.9952" stop-color="#D9AA1E"/>
<stop offset="1" stop-color="#DEAF1D"/>
</linearGradient>
<linearGradient id="paint15_linear_63_44" x1="-2.95737" y1="-18.3526" x2="186.498" y2="27.7182" gradientUnits="userSpaceOnUse">
<stop offset="0.0666667" stop-color="#FFF8B1"/>
<stop offset="0.1951" stop-color="#FCF5AE"/>
<stop offset="0.3015" stop-color="#F3EAA5"/>
<stop offset="0.4001" stop-color="#E5D996"/>
<stop offset="0.494" stop-color="#D0C180"/>
<stop offset="0.5845" stop-color="#B5A165"/>
<stop offset="0.6713" stop-color="#957C43"/>
<stop offset="0.736" stop-color="#785A26"/>
<stop offset="0.8764" stop-color="#996C25"/>
<stop offset="0.9063" stop-color="#9D7025"/>
<stop offset="0.936" stop-color="#A97B23"/>
<stop offset="0.9657" stop-color="#BD8F21"/>
<stop offset="0.9952" stop-color="#D9AA1E"/>
<stop offset="1" stop-color="#DEAF1D"/>
</linearGradient>
<linearGradient id="paint16_linear_63_44" x1="-8.65209" y1="5.06569" x2="180.803" y2="51.1364" gradientUnits="userSpaceOnUse">
<stop offset="0.0666667" stop-color="#FFF8B1"/>
<stop offset="0.1951" stop-color="#FCF5AE"/>
<stop offset="0.3015" stop-color="#F3EAA5"/>
<stop offset="0.4001" stop-color="#E5D996"/>
<stop offset="0.494" stop-color="#D0C180"/>
<stop offset="0.5845" stop-color="#B5A165"/>
<stop offset="0.6713" stop-color="#957C43"/>
<stop offset="0.736" stop-color="#785A26"/>
<stop offset="0.8764" stop-color="#996C25"/>
<stop offset="0.9063" stop-color="#9D7025"/>
<stop offset="0.936" stop-color="#A97B23"/>
<stop offset="0.9657" stop-color="#BD8F21"/>
<stop offset="0.9952" stop-color="#D9AA1E"/>
<stop offset="1" stop-color="#DEAF1D"/>
</linearGradient>
<linearGradient id="paint17_linear_63_44" x1="-8.82186" y1="5.76325" x2="180.634" y2="51.8341" gradientUnits="userSpaceOnUse">
<stop offset="0.0666667" stop-color="#FFF8B1"/>
<stop offset="0.1951" stop-color="#FCF5AE"/>
<stop offset="0.3015" stop-color="#F3EAA5"/>
<stop offset="0.4001" stop-color="#E5D996"/>
<stop offset="0.494" stop-color="#D0C180"/>
<stop offset="0.5845" stop-color="#B5A165"/>
<stop offset="0.6713" stop-color="#957C43"/>
<stop offset="0.736" stop-color="#785A26"/>
<stop offset="0.8764" stop-color="#996C25"/>
<stop offset="0.9063" stop-color="#9D7025"/>
<stop offset="0.936" stop-color="#A97B23"/>
<stop offset="0.9657" stop-color="#BD8F21"/>
<stop offset="0.9952" stop-color="#D9AA1E"/>
<stop offset="1" stop-color="#DEAF1D"/>
</linearGradient>
<linearGradient id="paint18_linear_63_44" x1="-8.29193" y1="3.58435" x2="181.164" y2="49.6552" gradientUnits="userSpaceOnUse">
<stop offset="0.0666667" stop-color="#FFF8B1"/>
<stop offset="0.1951" stop-color="#FCF5AE"/>
<stop offset="0.3015" stop-color="#F3EAA5"/>
<stop offset="0.4001" stop-color="#E5D996"/>
<stop offset="0.494" stop-color="#D0C180"/>
<stop offset="0.5845" stop-color="#B5A165"/>
<stop offset="0.6713" stop-color="#957C43"/>
<stop offset="0.736" stop-color="#785A26"/>
<stop offset="0.8764" stop-color="#996C25"/>
<stop offset="0.9063" stop-color="#9D7025"/>
<stop offset="0.936" stop-color="#A97B23"/>
<stop offset="0.9657" stop-color="#BD8F21"/>
<stop offset="0.9952" stop-color="#D9AA1E"/>
<stop offset="1" stop-color="#DEAF1D"/>
</linearGradient>
<linearGradient id="paint19_linear_63_44" x1="-6.35663" y1="-4.37367" x2="183.099" y2="41.6973" gradientUnits="userSpaceOnUse">
<stop offset="0.0666667" stop-color="#FFF8B1"/>
<stop offset="0.1951" stop-color="#FCF5AE"/>
<stop offset="0.3015" stop-color="#F3EAA5"/>
<stop offset="0.4001" stop-color="#E5D996"/>
<stop offset="0.494" stop-color="#D0C180"/>
<stop offset="0.5845" stop-color="#B5A165"/>
<stop offset="0.6713" stop-color="#957C43"/>
<stop offset="0.736" stop-color="#785A26"/>
<stop offset="0.8764" stop-color="#996C25"/>
<stop offset="0.9063" stop-color="#9D7025"/>
<stop offset="0.936" stop-color="#A97B23"/>
<stop offset="0.9657" stop-color="#BD8F21"/>
<stop offset="0.9952" stop-color="#D9AA1E"/>
<stop offset="1" stop-color="#DEAF1D"/>
</linearGradient>
<linearGradient id="paint20_linear_63_44" x1="-9.00799" y1="6.52906" x2="180.447" y2="52.5999" gradientUnits="userSpaceOnUse">
<stop offset="0.0666667" stop-color="#FFF8B1"/>
<stop offset="0.1951" stop-color="#FCF5AE"/>
<stop offset="0.3015" stop-color="#F3EAA5"/>
<stop offset="0.4001" stop-color="#E5D996"/>
<stop offset="0.494" stop-color="#D0C180"/>
<stop offset="0.5845" stop-color="#B5A165"/>
<stop offset="0.6713" stop-color="#957C43"/>
<stop offset="0.736" stop-color="#785A26"/>
<stop offset="0.8764" stop-color="#996C25"/>
<stop offset="0.9063" stop-color="#9D7025"/>
<stop offset="0.936" stop-color="#A97B23"/>
<stop offset="0.9657" stop-color="#BD8F21"/>
<stop offset="0.9952" stop-color="#D9AA1E"/>
<stop offset="1" stop-color="#DEAF1D"/>
</linearGradient>
<linearGradient id="paint21_linear_63_44" x1="-7.69518" y1="1.13062" x2="181.76" y2="47.2015" gradientUnits="userSpaceOnUse">
<stop offset="0.0666667" stop-color="#FFF8B1"/>
<stop offset="0.1951" stop-color="#FCF5AE"/>
<stop offset="0.3015" stop-color="#F3EAA5"/>
<stop offset="0.4001" stop-color="#E5D996"/>
<stop offset="0.494" stop-color="#D0C180"/>
<stop offset="0.5845" stop-color="#B5A165"/>
<stop offset="0.6713" stop-color="#957C43"/>
<stop offset="0.736" stop-color="#785A26"/>
<stop offset="0.8764" stop-color="#996C25"/>
<stop offset="0.9063" stop-color="#9D7025"/>
<stop offset="0.936" stop-color="#A97B23"/>
<stop offset="0.9657" stop-color="#BD8F21"/>
<stop offset="0.9952" stop-color="#D9AA1E"/>
<stop offset="1" stop-color="#DEAF1D"/>
</linearGradient>
<linearGradient id="paint22_linear_63_44" x1="-7.01942" y1="-1.64842" x2="182.436" y2="44.4224" gradientUnits="userSpaceOnUse">
<stop offset="0.0666667" stop-color="#FFF8B1"/>
<stop offset="0.1951" stop-color="#FCF5AE"/>
<stop offset="0.3015" stop-color="#F3EAA5"/>
<stop offset="0.4001" stop-color="#E5D996"/>
<stop offset="0.494" stop-color="#D0C180"/>
<stop offset="0.5845" stop-color="#B5A165"/>
<stop offset="0.6713" stop-color="#957C43"/>
<stop offset="0.736" stop-color="#785A26"/>
<stop offset="0.8764" stop-color="#996C25"/>
<stop offset="0.9063" stop-color="#9D7025"/>
<stop offset="0.936" stop-color="#A97B23"/>
<stop offset="0.9657" stop-color="#BD8F21"/>
<stop offset="0.9952" stop-color="#D9AA1E"/>
<stop offset="1" stop-color="#DEAF1D"/>
</linearGradient>
<linearGradient id="paint23_linear_63_44" x1="-8.95648" y1="6.31778" x2="180.499" y2="52.3887" gradientUnits="userSpaceOnUse">
<stop offset="0.0666667" stop-color="#FFF8B1"/>
<stop offset="0.1951" stop-color="#FCF5AE"/>
<stop offset="0.3015" stop-color="#F3EAA5"/>
<stop offset="0.4001" stop-color="#E5D996"/>
<stop offset="0.494" stop-color="#D0C180"/>
<stop offset="0.5845" stop-color="#B5A165"/>
<stop offset="0.6713" stop-color="#957C43"/>
<stop offset="0.736" stop-color="#785A26"/>
<stop offset="0.8764" stop-color="#996C25"/>
<stop offset="0.9063" stop-color="#9D7025"/>
<stop offset="0.936" stop-color="#A97B23"/>
<stop offset="0.9657" stop-color="#BD8F21"/>
<stop offset="0.9952" stop-color="#D9AA1E"/>
<stop offset="1" stop-color="#DEAF1D"/>
</linearGradient>
<linearGradient id="paint24_linear_63_44" x1="-9.05003" y1="6.70167" x2="180.405" y2="52.7725" gradientUnits="userSpaceOnUse">
<stop offset="0.0666667" stop-color="#FFF8B1"/>
<stop offset="0.1951" stop-color="#FCF5AE"/>
<stop offset="0.3015" stop-color="#F3EAA5"/>
<stop offset="0.4001" stop-color="#E5D996"/>
<stop offset="0.494" stop-color="#D0C180"/>
<stop offset="0.5845" stop-color="#B5A165"/>
<stop offset="0.6713" stop-color="#957C43"/>
<stop offset="0.736" stop-color="#785A26"/>
<stop offset="0.8764" stop-color="#996C25"/>
<stop offset="0.9063" stop-color="#9D7025"/>
<stop offset="0.936" stop-color="#A97B23"/>
<stop offset="0.9657" stop-color="#BD8F21"/>
<stop offset="0.9952" stop-color="#D9AA1E"/>
<stop offset="1" stop-color="#DEAF1D"/>
</linearGradient>
<linearGradient id="paint25_linear_63_44" x1="-11.5125" y1="16.828" x2="177.943" y2="62.8989" gradientUnits="userSpaceOnUse">
<stop offset="0.0666667" stop-color="#FFF8B1"/>
<stop offset="0.1951" stop-color="#FCF5AE"/>
<stop offset="0.3015" stop-color="#F3EAA5"/>
<stop offset="0.4001" stop-color="#E5D996"/>
<stop offset="0.494" stop-color="#D0C180"/>
<stop offset="0.5845" stop-color="#B5A165"/>
<stop offset="0.6713" stop-color="#957C43"/>
<stop offset="0.736" stop-color="#785A26"/>
<stop offset="0.8764" stop-color="#996C25"/>
<stop offset="0.9063" stop-color="#9D7025"/>
<stop offset="0.936" stop-color="#A97B23"/>
<stop offset="0.9657" stop-color="#BD8F21"/>
<stop offset="0.9952" stop-color="#D9AA1E"/>
<stop offset="1" stop-color="#DEAF1D"/>
</linearGradient>
<linearGradient id="paint26_linear_63_44" x1="-10.5921" y1="13.0436" x2="178.863" y2="59.1144" gradientUnits="userSpaceOnUse">
<stop offset="0.0666667" stop-color="#FFF8B1"/>
<stop offset="0.1951" stop-color="#FCF5AE"/>
<stop offset="0.3015" stop-color="#F3EAA5"/>
<stop offset="0.4001" stop-color="#E5D996"/>
<stop offset="0.494" stop-color="#D0C180"/>
<stop offset="0.5845" stop-color="#B5A165"/>
<stop offset="0.6713" stop-color="#957C43"/>
<stop offset="0.736" stop-color="#785A26"/>
<stop offset="0.8764" stop-color="#996C25"/>
<stop offset="0.9063" stop-color="#9D7025"/>
<stop offset="0.936" stop-color="#A97B23"/>
<stop offset="0.9657" stop-color="#BD8F21"/>
<stop offset="0.9952" stop-color="#D9AA1E"/>
<stop offset="1" stop-color="#DEAF1D"/>
</linearGradient>
<linearGradient id="paint27_linear_63_44" x1="-10.1531" y1="11.2388" x2="179.302" y2="57.3096" gradientUnits="userSpaceOnUse">
<stop offset="0.0666667" stop-color="#FFF8B1"/>
<stop offset="0.1951" stop-color="#FCF5AE"/>
<stop offset="0.3015" stop-color="#F3EAA5"/>
<stop offset="0.4001" stop-color="#E5D996"/>
<stop offset="0.494" stop-color="#D0C180"/>
<stop offset="0.5845" stop-color="#B5A165"/>
<stop offset="0.6713" stop-color="#957C43"/>
<stop offset="0.736" stop-color="#785A26"/>
<stop offset="0.8764" stop-color="#996C25"/>
<stop offset="0.9063" stop-color="#9D7025"/>
<stop offset="0.936" stop-color="#A97B23"/>
<stop offset="0.9657" stop-color="#BD8F21"/>
<stop offset="0.9952" stop-color="#D9AA1E"/>
<stop offset="1" stop-color="#DEAF1D"/>
</linearGradient>
<linearGradient id="paint28_linear_63_44" x1="-8.85218" y1="5.88961" x2="180.603" y2="51.9602" gradientUnits="userSpaceOnUse">
<stop offset="0.0666667" stop-color="#FFF8B1"/>
<stop offset="0.1951" stop-color="#FCF5AE"/>
<stop offset="0.3015" stop-color="#F3EAA5"/>
<stop offset="0.4001" stop-color="#E5D996"/>
<stop offset="0.494" stop-color="#D0C180"/>
<stop offset="0.5845" stop-color="#B5A165"/>
<stop offset="0.6713" stop-color="#957C43"/>
<stop offset="0.736" stop-color="#785A26"/>
<stop offset="0.8764" stop-color="#996C25"/>
<stop offset="0.9063" stop-color="#9D7025"/>
<stop offset="0.936" stop-color="#A97B23"/>
<stop offset="0.9657" stop-color="#BD8F21"/>
<stop offset="0.9952" stop-color="#D9AA1E"/>
<stop offset="1" stop-color="#DEAF1D"/>
</linearGradient>
<linearGradient id="paint29_linear_63_44" x1="-9.27078" y1="7.60992" x2="180.185" y2="53.6808" gradientUnits="userSpaceOnUse">
<stop offset="0.0666667" stop-color="#FFF8B1"/>
<stop offset="0.1951" stop-color="#FCF5AE"/>
<stop offset="0.3015" stop-color="#F3EAA5"/>
<stop offset="0.4001" stop-color="#E5D996"/>
<stop offset="0.494" stop-color="#D0C180"/>
<stop offset="0.5845" stop-color="#B5A165"/>
<stop offset="0.6713" stop-color="#957C43"/>
<stop offset="0.736" stop-color="#785A26"/>
<stop offset="0.8764" stop-color="#996C25"/>
<stop offset="0.9063" stop-color="#9D7025"/>
<stop offset="0.936" stop-color="#A97B23"/>
<stop offset="0.9657" stop-color="#BD8F21"/>
<stop offset="0.9952" stop-color="#D9AA1E"/>
<stop offset="1" stop-color="#DEAF1D"/>
</linearGradient>
<linearGradient id="paint30_linear_63_44" x1="-11.0659" y1="14.9915" x2="178.39" y2="61.0624" gradientUnits="userSpaceOnUse">
<stop offset="0.0666667" stop-color="#FFF8B1"/>
<stop offset="0.1951" stop-color="#FCF5AE"/>
<stop offset="0.3015" stop-color="#F3EAA5"/>
<stop offset="0.4001" stop-color="#E5D996"/>
<stop offset="0.494" stop-color="#D0C180"/>
<stop offset="0.5845" stop-color="#B5A165"/>
<stop offset="0.6713" stop-color="#957C43"/>
<stop offset="0.736" stop-color="#785A26"/>
<stop offset="0.8764" stop-color="#996C25"/>
<stop offset="0.9063" stop-color="#9D7025"/>
<stop offset="0.936" stop-color="#A97B23"/>
<stop offset="0.9657" stop-color="#BD8F21"/>
<stop offset="0.9952" stop-color="#D9AA1E"/>
<stop offset="1" stop-color="#DEAF1D"/>
</linearGradient>
<linearGradient id="paint31_linear_63_44" x1="-10.9326" y1="14.4443" x2="178.523" y2="60.5151" gradientUnits="userSpaceOnUse">
<stop offset="0.0666667" stop-color="#FFF8B1"/>
<stop offset="0.1951" stop-color="#FCF5AE"/>
<stop offset="0.3015" stop-color="#F3EAA5"/>
<stop offset="0.4001" stop-color="#E5D996"/>
<stop offset="0.494" stop-color="#D0C180"/>
<stop offset="0.5845" stop-color="#B5A165"/>
<stop offset="0.6713" stop-color="#957C43"/>
<stop offset="0.736" stop-color="#785A26"/>
<stop offset="0.8764" stop-color="#996C25"/>
<stop offset="0.9063" stop-color="#9D7025"/>
<stop offset="0.936" stop-color="#A97B23"/>
<stop offset="0.9657" stop-color="#BD8F21"/>
<stop offset="0.9952" stop-color="#D9AA1E"/>
<stop offset="1" stop-color="#DEAF1D"/>
</linearGradient>
<linearGradient id="paint32_linear_63_44" x1="-11.1736" y1="15.44" x2="178.279" y2="61.5095" gradientUnits="userSpaceOnUse">
<stop offset="0.0666667" stop-color="#FFF8B1"/>
<stop offset="0.1951" stop-color="#FCF5AE"/>
<stop offset="0.3015" stop-color="#F3EAA5"/>
<stop offset="0.4001" stop-color="#E5D996"/>
<stop offset="0.494" stop-color="#D0C180"/>
<stop offset="0.5845" stop-color="#B5A165"/>
<stop offset="0.6713" stop-color="#957C43"/>
<stop offset="0.736" stop-color="#785A26"/>
<stop offset="0.8764" stop-color="#996C25"/>
<stop offset="0.9063" stop-color="#9D7025"/>
<stop offset="0.936" stop-color="#A97B23"/>
<stop offset="0.9657" stop-color="#BD8F21"/>
<stop offset="0.9952" stop-color="#D9AA1E"/>
<stop offset="1" stop-color="#DEAF1D"/>
</linearGradient>
<linearGradient id="paint33_linear_63_44" x1="-10.6304" y1="13.2043" x2="178.824" y2="59.2746" gradientUnits="userSpaceOnUse">
<stop offset="0.0666667" stop-color="#FFF8B1"/>
<stop offset="0.1951" stop-color="#FCF5AE"/>
<stop offset="0.3015" stop-color="#F3EAA5"/>
<stop offset="0.4001" stop-color="#E5D996"/>
<stop offset="0.494" stop-color="#D0C180"/>
<stop offset="0.5845" stop-color="#B5A165"/>
<stop offset="0.6713" stop-color="#957C43"/>
<stop offset="0.736" stop-color="#785A26"/>
<stop offset="0.8764" stop-color="#996C25"/>
<stop offset="0.9063" stop-color="#9D7025"/>
<stop offset="0.936" stop-color="#A97B23"/>
<stop offset="0.9657" stop-color="#BD8F21"/>
<stop offset="0.9952" stop-color="#D9AA1E"/>
<stop offset="1" stop-color="#DEAF1D"/>
</linearGradient>
<linearGradient id="paint34_linear_63_44" x1="-8.08597" y1="2.73774" x2="181.37" y2="48.8086" gradientUnits="userSpaceOnUse">
<stop offset="0.0666667" stop-color="#FFF8B1"/>
<stop offset="0.1951" stop-color="#FCF5AE"/>
<stop offset="0.3015" stop-color="#F3EAA5"/>
<stop offset="0.4001" stop-color="#E5D996"/>
<stop offset="0.494" stop-color="#D0C180"/>
<stop offset="0.5845" stop-color="#B5A165"/>
<stop offset="0.6713" stop-color="#957C43"/>
<stop offset="0.736" stop-color="#785A26"/>
<stop offset="0.8764" stop-color="#996C25"/>
<stop offset="0.9063" stop-color="#9D7025"/>
<stop offset="0.936" stop-color="#A97B23"/>
<stop offset="0.9657" stop-color="#BD8F21"/>
<stop offset="0.9952" stop-color="#D9AA1E"/>
<stop offset="1" stop-color="#DEAF1D"/>
</linearGradient>
<linearGradient id="paint35_linear_63_44" x1="-7.55864" y1="0.569349" x2="181.897" y2="46.6402" gradientUnits="userSpaceOnUse">
<stop offset="0.0666667" stop-color="#FFF8B1"/>
<stop offset="0.1951" stop-color="#FCF5AE"/>
<stop offset="0.3015" stop-color="#F3EAA5"/>
<stop offset="0.4001" stop-color="#E5D996"/>
<stop offset="0.494" stop-color="#D0C180"/>
<stop offset="0.5845" stop-color="#B5A165"/>
<stop offset="0.6713" stop-color="#957C43"/>
<stop offset="0.736" stop-color="#785A26"/>
<stop offset="0.8764" stop-color="#996C25"/>
<stop offset="0.9063" stop-color="#9D7025"/>
<stop offset="0.936" stop-color="#A97B23"/>
<stop offset="0.9657" stop-color="#BD8F21"/>
<stop offset="0.9952" stop-color="#D9AA1E"/>
<stop offset="1" stop-color="#DEAF1D"/>
</linearGradient>
<linearGradient id="paint36_linear_63_44" x1="-6.15509" y1="-5.20195" x2="183.3" y2="40.8688" gradientUnits="userSpaceOnUse">
<stop offset="0.0666667" stop-color="#FFF8B1"/>
<stop offset="0.1951" stop-color="#FCF5AE"/>
<stop offset="0.3015" stop-color="#F3EAA5"/>
<stop offset="0.4001" stop-color="#E5D996"/>
<stop offset="0.494" stop-color="#D0C180"/>
<stop offset="0.5845" stop-color="#B5A165"/>
<stop offset="0.6713" stop-color="#957C43"/>
<stop offset="0.736" stop-color="#785A26"/>
<stop offset="0.8764" stop-color="#996C25"/>
<stop offset="0.9063" stop-color="#9D7025"/>
<stop offset="0.936" stop-color="#A97B23"/>
<stop offset="0.9657" stop-color="#BD8F21"/>
<stop offset="0.9952" stop-color="#D9AA1E"/>
<stop offset="1" stop-color="#DEAF1D"/>
</linearGradient>
<linearGradient id="paint37_linear_63_44" x1="-5.29244" y1="-8.75466" x2="184.165" y2="37.3172" gradientUnits="userSpaceOnUse">
<stop offset="0.0666667" stop-color="#FFF8B1"/>
<stop offset="0.1951" stop-color="#FCF5AE"/>
<stop offset="0.3015" stop-color="#F3EAA5"/>
<stop offset="0.4001" stop-color="#E5D996"/>
<stop offset="0.494" stop-color="#D0C180"/>
<stop offset="0.5845" stop-color="#B5A165"/>
<stop offset="0.6713" stop-color="#957C43"/>
<stop offset="0.736" stop-color="#785A26"/>
<stop offset="0.8764" stop-color="#996C25"/>
<stop offset="0.9063" stop-color="#9D7025"/>
<stop offset="0.936" stop-color="#A97B23"/>
<stop offset="0.9657" stop-color="#BD8F21"/>
<stop offset="0.9952" stop-color="#D9AA1E"/>
<stop offset="1" stop-color="#DEAF1D"/>
</linearGradient>
<linearGradient id="paint38_linear_63_44" x1="-6.52247" y1="-3.69137" x2="182.933" y2="42.3794" gradientUnits="userSpaceOnUse">
<stop offset="0.0666667" stop-color="#FFF8B1"/>
<stop offset="0.1951" stop-color="#FCF5AE"/>
<stop offset="0.3015" stop-color="#F3EAA5"/>
<stop offset="0.4001" stop-color="#E5D996"/>
<stop offset="0.494" stop-color="#D0C180"/>
<stop offset="0.5845" stop-color="#B5A165"/>
<stop offset="0.6713" stop-color="#957C43"/>
<stop offset="0.736" stop-color="#785A26"/>
<stop offset="0.8764" stop-color="#996C25"/>
<stop offset="0.9063" stop-color="#9D7025"/>
<stop offset="0.936" stop-color="#A97B23"/>
<stop offset="0.9657" stop-color="#BD8F21"/>
<stop offset="0.9952" stop-color="#D9AA1E"/>
<stop offset="1" stop-color="#DEAF1D"/>
</linearGradient>
<linearGradient id="paint39_linear_63_44" x1="-5.61577" y1="-7.42126" x2="183.84" y2="38.6497" gradientUnits="userSpaceOnUse">
<stop offset="0.0666667" stop-color="#FFF8B1"/>
<stop offset="0.1951" stop-color="#FCF5AE"/>
<stop offset="0.3015" stop-color="#F3EAA5"/>
<stop offset="0.4001" stop-color="#E5D996"/>
<stop offset="0.494" stop-color="#D0C180"/>
<stop offset="0.5845" stop-color="#B5A165"/>
<stop offset="0.6713" stop-color="#957C43"/>
<stop offset="0.736" stop-color="#785A26"/>
<stop offset="0.8764" stop-color="#996C25"/>
<stop offset="0.9063" stop-color="#9D7025"/>
<stop offset="0.936" stop-color="#A97B23"/>
<stop offset="0.9657" stop-color="#BD8F21"/>
<stop offset="0.9952" stop-color="#D9AA1E"/>
<stop offset="1" stop-color="#DEAF1D"/>
</linearGradient>
<linearGradient id="paint40_linear_63_44" x1="-7.08718" y1="-1.36855" x2="182.368" y2="44.702" gradientUnits="userSpaceOnUse">
<stop offset="0.0666667" stop-color="#FFF8B1"/>
<stop offset="0.1951" stop-color="#FCF5AE"/>
<stop offset="0.3015" stop-color="#F3EAA5"/>
<stop offset="0.4001" stop-color="#E5D996"/>
<stop offset="0.494" stop-color="#D0C180"/>
<stop offset="0.5845" stop-color="#B5A165"/>
<stop offset="0.6713" stop-color="#957C43"/>
<stop offset="0.736" stop-color="#785A26"/>
<stop offset="0.8764" stop-color="#996C25"/>
<stop offset="0.9063" stop-color="#9D7025"/>
<stop offset="0.936" stop-color="#A97B23"/>
<stop offset="0.9657" stop-color="#BD8F21"/>
<stop offset="0.9952" stop-color="#D9AA1E"/>
<stop offset="1" stop-color="#DEAF1D"/>
</linearGradient>
<linearGradient id="paint41_linear_63_44" x1="-6.75219" y1="-2.74786" x2="182.704" y2="43.3232" gradientUnits="userSpaceOnUse">
<stop offset="0.0666667" stop-color="#FFF8B1"/>
<stop offset="0.1951" stop-color="#FCF5AE"/>
<stop offset="0.3015" stop-color="#F3EAA5"/>
<stop offset="0.4001" stop-color="#E5D996"/>
<stop offset="0.494" stop-color="#D0C180"/>
<stop offset="0.5845" stop-color="#B5A165"/>
<stop offset="0.6713" stop-color="#957C43"/>
<stop offset="0.736" stop-color="#785A26"/>
<stop offset="0.8764" stop-color="#996C25"/>
<stop offset="0.9063" stop-color="#9D7025"/>
<stop offset="0.936" stop-color="#A97B23"/>
<stop offset="0.9657" stop-color="#BD8F21"/>
<stop offset="0.9952" stop-color="#D9AA1E"/>
<stop offset="1" stop-color="#DEAF1D"/>
</linearGradient>
<linearGradient id="paint42_linear_63_44" x1="-6.29119" y1="-4.64548" x2="183.165" y2="41.4259" gradientUnits="userSpaceOnUse">
<stop offset="0.0666667" stop-color="#FFF8B1"/>
<stop offset="0.1951" stop-color="#FCF5AE"/>
<stop offset="0.3015" stop-color="#F3EAA5"/>
<stop offset="0.4001" stop-color="#E5D996"/>
<stop offset="0.494" stop-color="#D0C180"/>
<stop offset="0.5845" stop-color="#B5A165"/>
<stop offset="0.6713" stop-color="#957C43"/>
<stop offset="0.736" stop-color="#785A26"/>
<stop offset="0.8764" stop-color="#996C25"/>
<stop offset="0.9063" stop-color="#9D7025"/>
<stop offset="0.936" stop-color="#A97B23"/>
<stop offset="0.9657" stop-color="#BD8F21"/>
<stop offset="0.9952" stop-color="#D9AA1E"/>
<stop offset="1" stop-color="#DEAF1D"/>
</linearGradient>
<linearGradient id="paint43_linear_63_44" x1="-16.7518" y1="38.3738" x2="172.704" y2="84.4446" gradientUnits="userSpaceOnUse">
<stop offset="0.0666667" stop-color="#FFF8B1"/>
<stop offset="0.1951" stop-color="#FCF5AE"/>
<stop offset="0.3015" stop-color="#F3EAA5"/>
<stop offset="0.4001" stop-color="#E5D996"/>
<stop offset="0.494" stop-color="#D0C180"/>
<stop offset="0.5845" stop-color="#B5A165"/>
<stop offset="0.6713" stop-color="#957C43"/>
<stop offset="0.736" stop-color="#785A26"/>
<stop offset="0.8764" stop-color="#996C25"/>
<stop offset="0.9063" stop-color="#9D7025"/>
<stop offset="0.936" stop-color="#A97B23"/>
<stop offset="0.9657" stop-color="#BD8F21"/>
<stop offset="0.9952" stop-color="#D9AA1E"/>
<stop offset="1" stop-color="#DEAF1D"/>
</linearGradient>
<linearGradient id="paint44_linear_63_44" x1="-15.3396" y1="32.5666" x2="174.116" y2="78.6374" gradientUnits="userSpaceOnUse">
<stop offset="0.0666667" stop-color="#FFF8B1"/>
<stop offset="0.1951" stop-color="#FCF5AE"/>
<stop offset="0.3015" stop-color="#F3EAA5"/>
<stop offset="0.4001" stop-color="#E5D996"/>
<stop offset="0.494" stop-color="#D0C180"/>
<stop offset="0.5845" stop-color="#B5A165"/>
<stop offset="0.6713" stop-color="#957C43"/>
<stop offset="0.736" stop-color="#785A26"/>
<stop offset="0.8764" stop-color="#996C25"/>
<stop offset="0.9063" stop-color="#9D7025"/>
<stop offset="0.936" stop-color="#A97B23"/>
<stop offset="0.9657" stop-color="#BD8F21"/>
<stop offset="0.9952" stop-color="#D9AA1E"/>
<stop offset="1" stop-color="#DEAF1D"/>
</linearGradient>
<linearGradient id="paint45_linear_63_44" x1="-17.1902" y1="40.1764" x2="172.265" y2="86.2473" gradientUnits="userSpaceOnUse">
<stop offset="0.0666667" stop-color="#FFF8B1"/>
<stop offset="0.1951" stop-color="#FCF5AE"/>
<stop offset="0.3015" stop-color="#F3EAA5"/>
<stop offset="0.4001" stop-color="#E5D996"/>
<stop offset="0.494" stop-color="#D0C180"/>
<stop offset="0.5845" stop-color="#B5A165"/>
<stop offset="0.6713" stop-color="#957C43"/>
<stop offset="0.736" stop-color="#785A26"/>
<stop offset="0.8764" stop-color="#996C25"/>
<stop offset="0.9063" stop-color="#9D7025"/>
<stop offset="0.936" stop-color="#A97B23"/>
<stop offset="0.9657" stop-color="#BD8F21"/>
<stop offset="0.9952" stop-color="#D9AA1E"/>
<stop offset="1" stop-color="#DEAF1D"/>
</linearGradient>
<linearGradient id="paint46_linear_63_44" x1="-15.099" y1="31.5772" x2="174.356" y2="77.648" gradientUnits="userSpaceOnUse">
<stop offset="0.0666667" stop-color="#FFF8B1"/>
<stop offset="0.1951" stop-color="#FCF5AE"/>
<stop offset="0.3015" stop-color="#F3EAA5"/>
<stop offset="0.4001" stop-color="#E5D996"/>
<stop offset="0.494" stop-color="#D0C180"/>
<stop offset="0.5845" stop-color="#B5A165"/>
<stop offset="0.6713" stop-color="#957C43"/>
<stop offset="0.736" stop-color="#785A26"/>
<stop offset="0.8764" stop-color="#996C25"/>
<stop offset="0.9063" stop-color="#9D7025"/>
<stop offset="0.936" stop-color="#A97B23"/>
<stop offset="0.9657" stop-color="#BD8F21"/>
<stop offset="0.9952" stop-color="#D9AA1E"/>
<stop offset="1" stop-color="#DEAF1D"/>
</linearGradient>
<linearGradient id="paint47_linear_63_44" x1="-17.5316" y1="41.5812" x2="171.924" y2="87.6519" gradientUnits="userSpaceOnUse">
<stop offset="0.0666667" stop-color="#FFF8B1"/>
<stop offset="0.1951" stop-color="#FCF5AE"/>
<stop offset="0.3015" stop-color="#F3EAA5"/>
<stop offset="0.4001" stop-color="#E5D996"/>
<stop offset="0.494" stop-color="#D0C180"/>
<stop offset="0.5845" stop-color="#B5A165"/>
<stop offset="0.6713" stop-color="#957C43"/>
<stop offset="0.736" stop-color="#785A26"/>
<stop offset="0.8764" stop-color="#996C25"/>
<stop offset="0.9063" stop-color="#9D7025"/>
<stop offset="0.936" stop-color="#A97B23"/>
<stop offset="0.9657" stop-color="#BD8F21"/>
<stop offset="0.9952" stop-color="#D9AA1E"/>
<stop offset="1" stop-color="#DEAF1D"/>
</linearGradient>
<linearGradient id="paint48_linear_63_44" x1="-17.4204" y1="41.1227" x2="172.035" y2="87.1936" gradientUnits="userSpaceOnUse">
<stop offset="0.0666667" stop-color="#FFF8B1"/>
<stop offset="0.1951" stop-color="#FCF5AE"/>
<stop offset="0.3015" stop-color="#F3EAA5"/>
<stop offset="0.4001" stop-color="#E5D996"/>
<stop offset="0.494" stop-color="#D0C180"/>
<stop offset="0.5845" stop-color="#B5A165"/>
<stop offset="0.6713" stop-color="#957C43"/>
<stop offset="0.736" stop-color="#785A26"/>
<stop offset="0.8764" stop-color="#996C25"/>
<stop offset="0.9063" stop-color="#9D7025"/>
<stop offset="0.936" stop-color="#A97B23"/>
<stop offset="0.9657" stop-color="#BD8F21"/>
<stop offset="0.9952" stop-color="#D9AA1E"/>
<stop offset="1" stop-color="#DEAF1D"/>
</linearGradient>
<linearGradient id="paint49_linear_63_44" x1="-16.3663" y1="36.7884" x2="173.089" y2="82.8593" gradientUnits="userSpaceOnUse">
<stop offset="0.0666667" stop-color="#FFF8B1"/>
<stop offset="0.1951" stop-color="#FCF5AE"/>
<stop offset="0.3015" stop-color="#F3EAA5"/>
<stop offset="0.4001" stop-color="#E5D996"/>
<stop offset="0.494" stop-color="#D0C180"/>
<stop offset="0.5845" stop-color="#B5A165"/>
<stop offset="0.6713" stop-color="#957C43"/>
<stop offset="0.736" stop-color="#785A26"/>
<stop offset="0.8764" stop-color="#996C25"/>
<stop offset="0.9063" stop-color="#9D7025"/>
<stop offset="0.936" stop-color="#A97B23"/>
<stop offset="0.9657" stop-color="#BD8F21"/>
<stop offset="0.9952" stop-color="#D9AA1E"/>
<stop offset="1" stop-color="#DEAF1D"/>
</linearGradient>
<linearGradient id="paint50_linear_63_44" x1="-16.6602" y1="37.9974" x2="172.795" y2="84.0682" gradientUnits="userSpaceOnUse">
<stop offset="0.0666667" stop-color="#FFF8B1"/>
<stop offset="0.1951" stop-color="#FCF5AE"/>
<stop offset="0.3015" stop-color="#F3EAA5"/>
<stop offset="0.4001" stop-color="#E5D996"/>
<stop offset="0.494" stop-color="#D0C180"/>
<stop offset="0.5845" stop-color="#B5A165"/>
<stop offset="0.6713" stop-color="#957C43"/>
<stop offset="0.736" stop-color="#785A26"/>
<stop offset="0.8764" stop-color="#996C25"/>
<stop offset="0.9063" stop-color="#9D7025"/>
<stop offset="0.936" stop-color="#A97B23"/>
<stop offset="0.9657" stop-color="#BD8F21"/>
<stop offset="0.9952" stop-color="#D9AA1E"/>
<stop offset="1" stop-color="#DEAF1D"/>
</linearGradient>
<linearGradient id="paint51_linear_63_44" x1="-15.8231" y1="34.5551" x2="173.632" y2="80.6259" gradientUnits="userSpaceOnUse">
<stop offset="0.0666667" stop-color="#FFF8B1"/>
<stop offset="0.1951" stop-color="#FCF5AE"/>
<stop offset="0.3015" stop-color="#F3EAA5"/>
<stop offset="0.4001" stop-color="#E5D996"/>
<stop offset="0.494" stop-color="#D0C180"/>
<stop offset="0.5845" stop-color="#B5A165"/>
<stop offset="0.6713" stop-color="#957C43"/>
<stop offset="0.736" stop-color="#785A26"/>
<stop offset="0.8764" stop-color="#996C25"/>
<stop offset="0.9063" stop-color="#9D7025"/>
<stop offset="0.936" stop-color="#A97B23"/>
<stop offset="0.9657" stop-color="#BD8F21"/>
<stop offset="0.9952" stop-color="#D9AA1E"/>
<stop offset="1" stop-color="#DEAF1D"/>
</linearGradient>
<linearGradient id="paint52_linear_63_44" x1="-15.9897" y1="35.2403" x2="173.466" y2="81.311" gradientUnits="userSpaceOnUse">
<stop offset="0.0666667" stop-color="#FFF8B1"/>
<stop offset="0.1951" stop-color="#FCF5AE"/>
<stop offset="0.3015" stop-color="#F3EAA5"/>
<stop offset="0.4001" stop-color="#E5D996"/>
<stop offset="0.494" stop-color="#D0C180"/>
<stop offset="0.5845" stop-color="#B5A165"/>
<stop offset="0.6713" stop-color="#957C43"/>
<stop offset="0.736" stop-color="#785A26"/>
<stop offset="0.8764" stop-color="#996C25"/>
<stop offset="0.9063" stop-color="#9D7025"/>
<stop offset="0.936" stop-color="#A97B23"/>
<stop offset="0.9657" stop-color="#BD8F21"/>
<stop offset="0.9952" stop-color="#D9AA1E"/>
<stop offset="1" stop-color="#DEAF1D"/>
</linearGradient>
<linearGradient id="paint53_linear_63_44" x1="-13.9554" y1="26.8741" x2="175.5" y2="72.945" gradientUnits="userSpaceOnUse">
<stop offset="0.0666667" stop-color="#FFF8B1"/>
<stop offset="0.1951" stop-color="#FCF5AE"/>
<stop offset="0.3015" stop-color="#F3EAA5"/>
<stop offset="0.4001" stop-color="#E5D996"/>
<stop offset="0.494" stop-color="#D0C180"/>
<stop offset="0.5845" stop-color="#B5A165"/>
<stop offset="0.6713" stop-color="#957C43"/>
<stop offset="0.736" stop-color="#785A26"/>
<stop offset="0.8764" stop-color="#996C25"/>
<stop offset="0.9063" stop-color="#9D7025"/>
<stop offset="0.936" stop-color="#A97B23"/>
<stop offset="0.9657" stop-color="#BD8F21"/>
<stop offset="0.9952" stop-color="#D9AA1E"/>
<stop offset="1" stop-color="#DEAF1D"/>
</linearGradient>
<linearGradient id="paint54_linear_63_44" x1="-12.6267" y1="21.4094" x2="176.829" y2="67.4804" gradientUnits="userSpaceOnUse">
<stop offset="0.0666667" stop-color="#FFF8B1"/>
<stop offset="0.1951" stop-color="#FCF5AE"/>
<stop offset="0.3015" stop-color="#F3EAA5"/>
<stop offset="0.4001" stop-color="#E5D996"/>
<stop offset="0.494" stop-color="#D0C180"/>
<stop offset="0.5845" stop-color="#B5A165"/>
<stop offset="0.6713" stop-color="#957C43"/>
<stop offset="0.736" stop-color="#785A26"/>
<stop offset="0.8764" stop-color="#996C25"/>
<stop offset="0.9063" stop-color="#9D7025"/>
<stop offset="0.936" stop-color="#A97B23"/>
<stop offset="0.9657" stop-color="#BD8F21"/>
<stop offset="0.9952" stop-color="#D9AA1E"/>
<stop offset="1" stop-color="#DEAF1D"/>
</linearGradient>
<linearGradient id="paint55_linear_63_44" x1="-13.2982" y1="24.1714" x2="176.157" y2="70.2423" gradientUnits="userSpaceOnUse">
<stop offset="0.0666667" stop-color="#FFF8B1"/>
<stop offset="0.1951" stop-color="#FCF5AE"/>
<stop offset="0.3015" stop-color="#F3EAA5"/>
<stop offset="0.4001" stop-color="#E5D996"/>
<stop offset="0.494" stop-color="#D0C180"/>
<stop offset="0.5845" stop-color="#B5A165"/>
<stop offset="0.6713" stop-color="#957C43"/>
<stop offset="0.736" stop-color="#785A26"/>
<stop offset="0.8764" stop-color="#996C25"/>
<stop offset="0.9063" stop-color="#9D7025"/>
<stop offset="0.936" stop-color="#A97B23"/>
<stop offset="0.9657" stop-color="#BD8F21"/>
<stop offset="0.9952" stop-color="#D9AA1E"/>
<stop offset="1" stop-color="#DEAF1D"/>
</linearGradient>
<linearGradient id="paint56_linear_63_44" x1="-12.2061" y1="19.6812" x2="177.249" y2="65.7519" gradientUnits="userSpaceOnUse">
<stop offset="0.0666667" stop-color="#FFF8B1"/>
<stop offset="0.1951" stop-color="#FCF5AE"/>
<stop offset="0.3015" stop-color="#F3EAA5"/>
<stop offset="0.4001" stop-color="#E5D996"/>
<stop offset="0.494" stop-color="#D0C180"/>
<stop offset="0.5845" stop-color="#B5A165"/>
<stop offset="0.6713" stop-color="#957C43"/>
<stop offset="0.736" stop-color="#785A26"/>
<stop offset="0.8764" stop-color="#996C25"/>
<stop offset="0.9063" stop-color="#9D7025"/>
<stop offset="0.936" stop-color="#A97B23"/>
<stop offset="0.9657" stop-color="#BD8F21"/>
<stop offset="0.9952" stop-color="#D9AA1E"/>
<stop offset="1" stop-color="#DEAF1D"/>
</linearGradient>
<linearGradient id="paint57_linear_63_44" x1="-11.7804" y1="17.9302" x2="177.675" y2="64.001" gradientUnits="userSpaceOnUse">
<stop offset="0.0666667" stop-color="#FFF8B1"/>
<stop offset="0.1951" stop-color="#FCF5AE"/>
<stop offset="0.3015" stop-color="#F3EAA5"/>
<stop offset="0.4001" stop-color="#E5D996"/>
<stop offset="0.494" stop-color="#D0C180"/>
<stop offset="0.5845" stop-color="#B5A165"/>
<stop offset="0.6713" stop-color="#957C43"/>
<stop offset="0.736" stop-color="#785A26"/>
<stop offset="0.8764" stop-color="#996C25"/>
<stop offset="0.9063" stop-color="#9D7025"/>
<stop offset="0.936" stop-color="#A97B23"/>
<stop offset="0.9657" stop-color="#BD8F21"/>
<stop offset="0.9952" stop-color="#D9AA1E"/>
<stop offset="1" stop-color="#DEAF1D"/>
</linearGradient>
<linearGradient id="paint58_linear_63_44" x1="-14.2231" y1="27.9753" x2="175.232" y2="74.0461" gradientUnits="userSpaceOnUse">
<stop offset="0.0666667" stop-color="#FFF8B1"/>
<stop offset="0.1951" stop-color="#FCF5AE"/>
<stop offset="0.3015" stop-color="#F3EAA5"/>
<stop offset="0.4001" stop-color="#E5D996"/>
<stop offset="0.494" stop-color="#D0C180"/>
<stop offset="0.5845" stop-color="#B5A165"/>
<stop offset="0.6713" stop-color="#957C43"/>
<stop offset="0.736" stop-color="#785A26"/>
<stop offset="0.8764" stop-color="#996C25"/>
<stop offset="0.9063" stop-color="#9D7025"/>
<stop offset="0.936" stop-color="#A97B23"/>
<stop offset="0.9657" stop-color="#BD8F21"/>
<stop offset="0.9952" stop-color="#D9AA1E"/>
<stop offset="1" stop-color="#DEAF1D"/>
</linearGradient>
<linearGradient id="paint59_linear_63_44" x1="-14.3132" y1="28.3458" x2="175.142" y2="74.4166" gradientUnits="userSpaceOnUse">
<stop offset="0.0666667" stop-color="#FFF8B1"/>
<stop offset="0.1951" stop-color="#FCF5AE"/>
<stop offset="0.3015" stop-color="#F3EAA5"/>
<stop offset="0.4001" stop-color="#E5D996"/>
<stop offset="0.494" stop-color="#D0C180"/>
<stop offset="0.5845" stop-color="#B5A165"/>
<stop offset="0.6713" stop-color="#957C43"/>
<stop offset="0.736" stop-color="#785A26"/>
<stop offset="0.8764" stop-color="#996C25"/>
<stop offset="0.9063" stop-color="#9D7025"/>
<stop offset="0.936" stop-color="#A97B23"/>
<stop offset="0.9657" stop-color="#BD8F21"/>
<stop offset="0.9952" stop-color="#D9AA1E"/>
<stop offset="1" stop-color="#DEAF1D"/>
</linearGradient>
<linearGradient id="paint60_linear_63_44" x1="-13.8554" y1="26.4632" x2="175.6" y2="72.5341" gradientUnits="userSpaceOnUse">
<stop offset="0.0666667" stop-color="#FFF8B1"/>
<stop offset="0.1951" stop-color="#FCF5AE"/>
<stop offset="0.3015" stop-color="#F3EAA5"/>
<stop offset="0.4001" stop-color="#E5D996"/>
<stop offset="0.494" stop-color="#D0C180"/>
<stop offset="0.5845" stop-color="#B5A165"/>
<stop offset="0.6713" stop-color="#957C43"/>
<stop offset="0.736" stop-color="#785A26"/>
<stop offset="0.8764" stop-color="#996C25"/>
<stop offset="0.9063" stop-color="#9D7025"/>
<stop offset="0.936" stop-color="#A97B23"/>
<stop offset="0.9657" stop-color="#BD8F21"/>
<stop offset="0.9952" stop-color="#D9AA1E"/>
<stop offset="1" stop-color="#DEAF1D"/>
</linearGradient>
<linearGradient id="paint61_linear_63_44" x1="-14.7486" y1="30.1362" x2="174.707" y2="76.207" gradientUnits="userSpaceOnUse">
<stop offset="0.0666667" stop-color="#FFF8B1"/>
<stop offset="0.1951" stop-color="#FCF5AE"/>
<stop offset="0.3015" stop-color="#F3EAA5"/>
<stop offset="0.4001" stop-color="#E5D996"/>
<stop offset="0.494" stop-color="#D0C180"/>
<stop offset="0.5845" stop-color="#B5A165"/>
<stop offset="0.6713" stop-color="#957C43"/>
<stop offset="0.736" stop-color="#785A26"/>
<stop offset="0.8764" stop-color="#996C25"/>
<stop offset="0.9063" stop-color="#9D7025"/>
<stop offset="0.936" stop-color="#A97B23"/>
<stop offset="0.9657" stop-color="#BD8F21"/>
<stop offset="0.9952" stop-color="#D9AA1E"/>
<stop offset="1" stop-color="#DEAF1D"/>
</linearGradient>
</defs>
</svg>
