<svg width="41" height="32" viewBox="0 0 41 32" fill="none" xmlns="http://www.w3.org/2000/svg">
<path fill-rule="evenodd" clip-rule="evenodd" d="M20.8475 8.34782C23.1502 8.34782 25.0169 6.4791 25.0169 4.17391C25.0169 2.09625 23.5005 0.373148 21.5152 0.0532371C22.9714 -0.211729 25.3335 0.402015 26.7542 4.43174C28.4043 9.112 29.9637 8.73035 30.5575 7.93568C29.6175 9.21649 27.2258 11.5218 25.0169 10.6926C22.7932 9.85781 21.3107 8.95346 20.8475 8.60564C20.3842 8.95346 18.9017 9.85781 16.678 10.6926C14.4691 11.5218 12.0774 9.21649 11.1374 7.93568C11.7312 8.73035 13.2906 9.112 14.9407 4.43174C16.3614 0.402015 18.7235 -0.211729 20.1797 0.0532371C18.1944 0.373148 16.678 2.09625 16.678 4.17391C16.678 6.4791 18.5447 8.34782 20.8475 8.34782ZM11.1186 7.90999C11.1248 7.9186 11.131 7.92716 11.1374 7.93568L11.1186 7.90999ZM30.5763 7.90999L30.5575 7.93568C30.5639 7.92716 30.5701 7.9186 30.5763 7.90999ZM24.322 4.17392C24.322 6.09491 22.7664 7.65218 20.8475 7.65218C18.9285 7.65218 17.3729 6.09491 17.3729 4.17392C17.3729 2.25293 18.9285 0.695662 20.8475 0.695662C22.7664 0.695662 24.322 2.25293 24.322 4.17392ZM14.5932 14.4348C14.5932 12.419 16.0843 10.7515 18.0237 10.475L17.3729 11.0691L20.8474 14.2404L24.322 11.0691L23.9782 10.7553C25.4062 11.3659 26.4068 12.7835 26.4068 14.4348V28C26.4068 30.2092 24.6159 32 22.4068 32H18.5932C16.3841 32 14.5932 30.2092 14.5932 28V14.4348ZM20.9318 9.73914L22.4059 11.2148L20.9318 12.6905L19.4576 11.2148L20.9318 9.73914ZM10.4237 4.17393C10.4237 6.47912 8.55698 8.34784 6.25424 8.34784C3.95149 8.34784 2.08475 6.47912 2.08475 4.17393C2.08475 1.86874 3.95149 1.66051e-05 6.25424 1.66051e-05C8.55698 1.66051e-05 10.4237 1.86874 10.4237 4.17393ZM3.43503 8.38744C1.49343 8.66193 0 10.3305 0 12.3479V28C0 30.2092 1.79086 32 4 32H7.81356C10.0227 32 11.8136 30.2092 11.8136 28V12.3479C11.8136 10.6761 10.788 9.24392 9.33177 8.64604L9.72882 9.04351L6.25424 12.5218L2.77967 9.04351L3.43503 8.38744ZM7.8127 9.82354L6.33856 8.34784L4.86442 9.82354L6.33856 11.2992L7.8127 9.82354ZM39.6102 4.17393C39.6102 6.47912 37.7434 8.34784 35.4407 8.34784C33.1379 8.34784 31.2712 6.47912 31.2712 4.17393C31.2712 1.86874 33.1379 1.66051e-05 35.4407 1.66051e-05C37.7434 1.66051e-05 39.6102 1.86874 39.6102 4.17393ZM32.6215 8.38744C30.6799 8.66193 29.1864 10.3305 29.1864 12.3479V28C29.1864 30.2092 30.9773 32 33.1864 32H37C39.2091 32 41 30.2092 41 28V12.3479C41 10.6761 39.9745 9.24392 38.5182 8.64604L38.9153 9.04351L35.4407 12.5218L31.9661 9.04351L32.6215 8.38744ZM36.9991 9.82354L35.525 8.34784L34.0509 9.82354L35.525 11.2992L36.9991 9.82354Z" fill="white"/>
</svg>
